G04 #@! TF.FileFunction,Copper,L1,Top,Signal*
%FSLAX46Y46*%
G04 Gerber Fmt 4.6, Leading zero omitted, Abs format (unit mm)*
G04 Created by KiCad (PCBNEW 4.0.7) date 12/08/17 11:15:19*
%MOMM*%
%LPD*%
G01*
G04 APERTURE LIST*
%ADD10C,0.100000*%
%ADD11R,0.900000X0.500000*%
%ADD12R,0.800000X0.750000*%
%ADD13R,0.750000X0.800000*%
%ADD14R,0.500000X0.900000*%
%ADD15R,1.300000X1.550000*%
%ADD16R,0.800000X0.500000*%
%ADD17R,0.800000X0.400000*%
%ADD18R,1.250000X1.000000*%
%ADD19R,0.800000X0.250000*%
%ADD20R,0.250000X0.800000*%
%ADD21R,1.200000X1.200000*%
%ADD22O,0.500000X0.250000*%
%ADD23R,0.650000X1.350000*%
%ADD24C,0.300000*%
%ADD25R,0.600000X0.400000*%
%ADD26R,1.500000X2.400000*%
%ADD27C,1.524000*%
%ADD28O,1.998980X1.998980*%
%ADD29R,1.998980X1.998980*%
%ADD30R,1.300000X0.800000*%
%ADD31R,0.400000X3.000000*%
%ADD32R,0.300000X1.600000*%
%ADD33C,0.400000*%
%ADD34C,0.600000*%
%ADD35C,0.250000*%
%ADD36C,0.500000*%
%ADD37C,0.160000*%
%ADD38C,0.254000*%
G04 APERTURE END LIST*
D10*
D11*
X5600000Y38900000D03*
X5600000Y37400000D03*
D12*
X4850000Y30350000D03*
X6350000Y30350000D03*
D13*
X16000000Y38650000D03*
X16000000Y37150000D03*
X18350000Y38650000D03*
X18350000Y37150000D03*
X38000000Y28750000D03*
X38000000Y27250000D03*
D12*
X4750000Y28050000D03*
X6250000Y28050000D03*
D11*
X35400000Y14050000D03*
X35400000Y12550000D03*
X32500000Y8300000D03*
X32500000Y6800000D03*
X8350000Y8950000D03*
X8350000Y7450000D03*
D14*
X21450000Y3450000D03*
X19950000Y3450000D03*
D11*
X7750000Y38900000D03*
X7750000Y37400000D03*
X36000000Y27250000D03*
X36000000Y28750000D03*
X22650000Y38650000D03*
X22650000Y37150000D03*
D15*
X1250000Y2025000D03*
X1250000Y9975000D03*
X5750000Y2025000D03*
X5750000Y9975000D03*
X39750000Y9975000D03*
X39750000Y2025000D03*
X35250000Y9975000D03*
X35250000Y2025000D03*
D13*
X22250200Y7048000D03*
X22250200Y8548000D03*
X30850000Y7850000D03*
X30850000Y6350000D03*
X8500000Y3450000D03*
X8500000Y1950000D03*
X32550000Y3550000D03*
X32550000Y2050000D03*
D12*
X38150000Y34700000D03*
X39650000Y34700000D03*
X3150000Y34850000D03*
X1650000Y34850000D03*
D14*
X3900000Y13350000D03*
X2400000Y13350000D03*
D16*
X20850000Y7950000D03*
D17*
X20850000Y9550000D03*
X20850000Y8750000D03*
D16*
X20850000Y10350000D03*
D17*
X19050000Y8750000D03*
D16*
X19050000Y7950000D03*
D17*
X19050000Y9550000D03*
D16*
X19050000Y10350000D03*
D18*
X10200000Y37200000D03*
X10200000Y39200000D03*
D13*
X12550000Y37150000D03*
X12550000Y38650000D03*
D18*
X40000000Y29000000D03*
X40000000Y27000000D03*
D19*
X24600000Y8850000D03*
X24600000Y8400000D03*
X24600000Y7950000D03*
X24600000Y7500000D03*
X24600000Y7050000D03*
X24600000Y6600000D03*
X24600000Y6150000D03*
D20*
X25250000Y5500000D03*
X25700000Y5500000D03*
X26150000Y5500000D03*
X26600000Y5500000D03*
X27050000Y5500000D03*
X27500000Y5500000D03*
X27950000Y5500000D03*
D19*
X28600000Y6150000D03*
X28600000Y6600000D03*
X28600000Y7050000D03*
X28600000Y7500000D03*
X28600000Y7950000D03*
X28600000Y8400000D03*
X28600000Y8850000D03*
D20*
X27950000Y9500000D03*
X27500000Y9500000D03*
X27050000Y9500000D03*
X26600000Y9500000D03*
X26150000Y9500000D03*
X25700000Y9500000D03*
X25250000Y9500000D03*
D21*
X27200000Y6900000D03*
X27200000Y8100000D03*
X26000000Y6900000D03*
X26000000Y8100000D03*
D22*
X1400000Y38375000D03*
X1400000Y37700000D03*
X1400000Y37025000D03*
X3300000Y37025000D03*
X3300000Y37700000D03*
X3300000Y38375000D03*
D23*
X2350000Y37700000D03*
D24*
X2350000Y38100000D03*
X2350000Y37300000D03*
D25*
X37450000Y38650000D03*
X37450000Y37700000D03*
X37450000Y36750000D03*
X40250000Y36750000D03*
X40250000Y37700000D03*
X40250000Y38650000D03*
D26*
X38850000Y37700000D03*
D25*
X38900000Y38650000D03*
D24*
X38350000Y37700000D03*
X38850000Y38650000D03*
X39350000Y37700000D03*
X38850000Y36750000D03*
D27*
X8550000Y34750000D03*
X11090000Y34750000D03*
X13630000Y34750000D03*
D28*
X32350000Y17950000D03*
D29*
X32350000Y12870000D03*
D28*
X32350000Y15410000D03*
X33800000Y30410000D03*
D29*
X33800000Y35490000D03*
D28*
X33800000Y32950000D03*
X27050000Y35490000D03*
D29*
X27050000Y30410000D03*
D28*
X27050000Y32950000D03*
D30*
X17000000Y2600000D03*
X17000000Y3880000D03*
X17000000Y5140000D03*
X17000000Y6410000D03*
X17000000Y7690000D03*
X17000000Y8960000D03*
X17000000Y10220000D03*
X17000000Y11500000D03*
X10700000Y11500000D03*
X10700000Y10220000D03*
X10700000Y8960000D03*
X10700000Y7690000D03*
X10700000Y6410000D03*
X10700000Y5140000D03*
X10700000Y3880000D03*
X10700000Y2600000D03*
D31*
X10450000Y19970512D03*
X11150000Y19970512D03*
X11850000Y19970512D03*
X12550000Y19970512D03*
X13250000Y19970512D03*
X13950000Y19970512D03*
X14650000Y19970512D03*
X15350000Y19970512D03*
X16050000Y19970512D03*
X16750000Y19970512D03*
X17450000Y19970512D03*
X18150000Y19970512D03*
X18850000Y19970512D03*
X19550000Y19970512D03*
X20250000Y19970512D03*
X20950000Y19970512D03*
X21650000Y19970512D03*
X22350000Y19970512D03*
X23050000Y19970512D03*
X23750000Y19970512D03*
X24450000Y19970512D03*
X25150000Y19970512D03*
X25850000Y19970512D03*
X26550000Y19970512D03*
X27250000Y19970512D03*
X27950000Y19970512D03*
X28650000Y19970512D03*
X29350000Y19970512D03*
X30050000Y19970512D03*
X30750000Y19970512D03*
D32*
X27518200Y2743400D03*
X26568200Y2743400D03*
X25618200Y2743400D03*
D33*
X19293197Y839999D03*
D34*
X23698000Y37897000D03*
X13200000Y17220512D03*
X39500000Y33500000D03*
D33*
X22250000Y8550000D03*
X27866143Y10569143D03*
X21125576Y15576340D03*
X16753998Y19974510D03*
X15342690Y19963202D03*
X10700000Y3939610D03*
X26568200Y1905200D03*
X19481596Y12446200D03*
X30000000Y10000000D03*
X27500000Y12500000D03*
X30000000Y12500000D03*
X30000000Y15000000D03*
X27500000Y15000000D03*
X25000000Y15000000D03*
X25000000Y17500000D03*
X27500000Y17500000D03*
X30000000Y17500000D03*
X15000000Y7500000D03*
X12500000Y5000000D03*
X15000000Y5000000D03*
X15000000Y2500000D03*
X12500000Y2500000D03*
X2500000Y5000000D03*
X5000000Y5000000D03*
X7500000Y5000000D03*
X2500000Y7500000D03*
X5000000Y7500000D03*
X2500000Y10000000D03*
X7500000Y10000000D03*
X5000000Y12500000D03*
X7500000Y12500000D03*
X10000000Y12500000D03*
X12500000Y12500000D03*
X15000000Y15000000D03*
X2500000Y40000000D03*
X5000000Y40000000D03*
X7500000Y40000000D03*
X5000000Y25000000D03*
X2500000Y27500000D03*
X2500000Y30000000D03*
X2500000Y32500000D03*
X5000000Y32500000D03*
X7500000Y32500000D03*
X10000000Y30000000D03*
X10000000Y32500000D03*
X20000000Y22500000D03*
X20000000Y25000000D03*
X20000000Y27500000D03*
X20000000Y30000000D03*
X20000000Y32500000D03*
X15000000Y25000000D03*
X15000000Y27500000D03*
X15000000Y30000000D03*
X15000000Y32500000D03*
X15000000Y35000000D03*
X17500000Y35000000D03*
X17500000Y32500000D03*
X17500000Y30000000D03*
X17500000Y27500000D03*
X17500000Y25000000D03*
X27500000Y27500000D03*
X25000000Y25000000D03*
X25000000Y27500000D03*
X25000000Y30000000D03*
X25000000Y32500000D03*
X25000000Y37500000D03*
X25000000Y35000000D03*
X27500000Y37509503D03*
X32500000Y37500000D03*
X30000000Y37500000D03*
X30000000Y37500000D03*
X40000000Y30000000D03*
X37500000Y30000000D03*
X37500000Y25000000D03*
X35000000Y25000000D03*
X32500000Y22500000D03*
X35000000Y22500000D03*
X35000000Y20000000D03*
X32500000Y20000000D03*
X40000000Y15000000D03*
X40000000Y12500000D03*
X37500000Y15000000D03*
X37500000Y15000000D03*
X35000000Y15000000D03*
X35000000Y17500000D03*
X37500000Y10000000D03*
X37500000Y7500000D03*
X35000000Y7500000D03*
X35000000Y5000000D03*
X37500000Y5000000D03*
X37500000Y2500000D03*
X27254000Y19736000D03*
X26568200Y19736000D03*
X25857000Y19736000D03*
X24485400Y19736000D03*
X25145800Y19736000D03*
X18846600Y19304200D03*
X17024617Y11475383D03*
X20929400Y19990000D03*
X10200000Y39200000D03*
X18350000Y38650000D03*
X16000000Y38650000D03*
X12550000Y38650000D03*
X36000000Y28750000D03*
X38000000Y28750000D03*
X40000000Y29000000D03*
D34*
X40400000Y31100000D03*
D33*
X22250000Y7050000D03*
X32500000Y8300000D03*
X30850000Y7850000D03*
X30750000Y19970512D03*
X30050000Y19970512D03*
X20250000Y19970512D03*
X18150000Y19970512D03*
X10450000Y19970512D03*
X8350000Y8950000D03*
X10700000Y11500000D03*
X10700000Y8960000D03*
X10700000Y6410000D03*
X17000000Y6410000D03*
X17000000Y8960000D03*
X26486138Y4370388D03*
X31876800Y4318200D03*
X21861998Y6150000D03*
X23926600Y6020000D03*
X25280928Y4739988D03*
X18262400Y4089600D03*
X19629296Y4252993D03*
X25780800Y4369000D03*
X9245400Y3454600D03*
X27658996Y4751514D03*
X20188861Y14790033D03*
X16001800Y16713400D03*
X13119557Y13982243D03*
X21043754Y14109954D03*
X29108200Y5029400D03*
X21841676Y13891876D03*
X29667000Y6070800D03*
X13792000Y14656000D03*
X29616200Y9220400D03*
X23266200Y14478200D03*
X21132600Y18008800D03*
X4648000Y36068200D03*
X22504200Y40335400D03*
X3748336Y36690756D03*
X22100000Y36100000D03*
X4500000Y39000000D03*
X14147600Y13157400D03*
X14554000Y12598600D03*
X23240800Y23800000D03*
X13411000Y10338000D03*
X13817400Y8737800D03*
X13055400Y9118800D03*
X16771029Y2893390D03*
D35*
X24600000Y7950000D02*
X22850000Y7950000D01*
X22850000Y7950000D02*
X22250000Y8550000D01*
D36*
X20163199Y1710001D02*
X21049998Y1710001D01*
X6900000Y839999D02*
X19293197Y839999D01*
X21049998Y1710001D02*
X21920000Y839999D01*
X21920000Y839999D02*
X33735001Y839999D01*
X19293197Y839999D02*
X20163199Y1710001D01*
X23273736Y37897000D02*
X23698000Y37897000D01*
X22103000Y37897000D02*
X23273736Y37897000D01*
X21900000Y38100000D02*
X22103000Y37897000D01*
X12550000Y37150000D02*
X12550000Y35830000D01*
X12550000Y35830000D02*
X13630000Y34750000D01*
X32550000Y2075000D02*
X31500600Y3124400D01*
X31500600Y3124400D02*
X30850000Y3775000D01*
D35*
X28600000Y6600000D02*
X30600000Y6600000D01*
X30600000Y6600000D02*
X30850000Y6350000D01*
X1650000Y34850000D02*
X1650000Y35475000D01*
X1650000Y35475000D02*
X864990Y36260010D01*
X864990Y36260010D02*
X864990Y37964990D01*
X864990Y37964990D02*
X1275000Y38375000D01*
X1275000Y38375000D02*
X1400000Y38375000D01*
X40250000Y37700000D02*
X40350000Y37700000D01*
X40350000Y37700000D02*
X40835001Y37214999D01*
X40835001Y37214999D02*
X40835001Y35860001D01*
X40835001Y35860001D02*
X39675000Y34700000D01*
X39675000Y34700000D02*
X39650000Y34700000D01*
D36*
X3585001Y839999D02*
X6900000Y839999D01*
X6900000Y839999D02*
X7414999Y839999D01*
X1250000Y2025000D02*
X2400000Y2025000D01*
X2400000Y2025000D02*
X3585001Y839999D01*
X7414999Y839999D02*
X8500000Y1925000D01*
X8500000Y1925000D02*
X8500000Y1950000D01*
X32550000Y2050000D02*
X32550000Y2075000D01*
X30850000Y3775000D02*
X30850000Y5450000D01*
X30850000Y5450000D02*
X30850000Y6350000D01*
X39750000Y2025000D02*
X38600000Y2025000D01*
X38600000Y2025000D02*
X37414999Y839999D01*
X37414999Y839999D02*
X33735001Y839999D01*
X33735001Y839999D02*
X32550000Y2025000D01*
X32550000Y2025000D02*
X32550000Y2050000D01*
X39750000Y9975000D02*
X39750000Y2025000D01*
X35400000Y12550000D02*
X37300000Y12550000D01*
X37300000Y12550000D02*
X39750000Y10100000D01*
X39750000Y10100000D02*
X39750000Y9975000D01*
X35400000Y12550000D02*
X32670000Y12550000D01*
X32670000Y12550000D02*
X32350000Y12870000D01*
X13950000Y17970512D02*
X13200000Y17220512D01*
X13200000Y17220512D02*
X12289489Y16310001D01*
X1250000Y2025000D02*
X1250000Y9975000D01*
X2400000Y13350000D02*
X2400000Y11125000D01*
X2400000Y11125000D02*
X1250000Y9975000D01*
X13950000Y19970512D02*
X13950000Y17970512D01*
X12289489Y16310001D02*
X5160001Y16310001D01*
X5160001Y16310001D02*
X2400000Y13550000D01*
X2400000Y13550000D02*
X2400000Y13350000D01*
X12457999Y33577999D02*
X12457999Y23942001D01*
X12457999Y23942001D02*
X14200000Y22200000D01*
X14200000Y22200000D02*
X16000000Y22200000D01*
X16000000Y22200000D02*
X17220512Y22200000D01*
X16050000Y19970512D02*
X16050000Y21970512D01*
X16050000Y21970512D02*
X16000000Y22020512D01*
X16000000Y22020512D02*
X16000000Y22200000D01*
X13950000Y19970512D02*
X13950000Y21950000D01*
X13950000Y21950000D02*
X14200000Y22200000D01*
X17220512Y22200000D02*
X17450000Y21970512D01*
X17450000Y21970512D02*
X17450000Y19970512D01*
X21700000Y37900000D02*
X21900000Y38100000D01*
X21900000Y38100000D02*
X22450000Y38650000D01*
X39650000Y34700000D02*
X39650000Y33650000D01*
X39650000Y33650000D02*
X39500000Y33500000D01*
X5600000Y37400000D02*
X5600000Y35900000D01*
X5600000Y35900000D02*
X3675000Y33975000D01*
X3675000Y33975000D02*
X2550000Y33975000D01*
X2550000Y33975000D02*
X1675000Y34850000D01*
X1675000Y34850000D02*
X1650000Y34850000D01*
X7750000Y37400000D02*
X5600000Y37400000D01*
X13630000Y34750000D02*
X12457999Y33577999D01*
X12457999Y33577999D02*
X7987439Y33577999D01*
X7987439Y33577999D02*
X7377999Y34187439D01*
X7377999Y34187439D02*
X7377999Y36277999D01*
X7377999Y36277999D02*
X7750000Y36650000D01*
X7750000Y36650000D02*
X7750000Y37400000D01*
X18350000Y37150000D02*
X21150000Y37150000D01*
X21150000Y37150000D02*
X21700000Y37700000D01*
X21700000Y37700000D02*
X21700000Y37900000D01*
X22450000Y38650000D02*
X22650000Y38650000D01*
X16000000Y37150000D02*
X18350000Y37150000D01*
X13630000Y34750000D02*
X13630000Y34780000D01*
X13630000Y34780000D02*
X16000000Y37150000D01*
X22050000Y8750000D02*
X22250000Y8550000D01*
D35*
X29400000Y40000000D02*
X23496206Y40000000D01*
X23346602Y39850396D02*
X21661800Y39850396D01*
X21317184Y40195012D02*
X9245012Y40195012D01*
X23496206Y40000000D02*
X23346602Y39850396D01*
X7950000Y38900000D02*
X7750000Y38900000D01*
X9245012Y40195012D02*
X7950000Y38900000D01*
X21661800Y39850396D02*
X21317184Y40195012D01*
X29400000Y40000000D02*
X29500000Y40000000D01*
X29500000Y40000000D02*
X29700000Y40200000D01*
X29500000Y39900000D02*
X29400000Y40000000D01*
X29700000Y40200000D02*
X29700000Y40100000D01*
X29700000Y40100000D02*
X29500000Y39900000D01*
X27500000Y10217484D02*
X27500000Y10150000D01*
X27381142Y10466546D02*
X27381142Y10336342D01*
X24161213Y13686475D02*
X27381142Y10466546D01*
X24161213Y16139872D02*
X24161213Y13686475D01*
X23750000Y19970512D02*
X23750000Y16551085D01*
X27500000Y10150000D02*
X27500000Y9500000D01*
X27381142Y10336342D02*
X27500000Y10217484D01*
X23750000Y16551085D02*
X24161213Y16139872D01*
X23750000Y22000000D02*
X29500000Y27750000D01*
X29500000Y27750000D02*
X29500000Y39900000D01*
X29700000Y40200000D02*
X35900000Y40200000D01*
X35900000Y40200000D02*
X37450000Y38650000D01*
X23750000Y22000000D02*
X23750000Y21720512D01*
X23050000Y19970512D02*
X23050000Y21720512D01*
X23050000Y21720512D02*
X23329488Y22000000D01*
X23329488Y22000000D02*
X23750000Y22000000D01*
X23750000Y21720512D02*
X23750000Y19970512D01*
X3300000Y38375000D02*
X3800000Y38375000D01*
X3800000Y38375000D02*
X3810001Y38364999D01*
X3810001Y38364999D02*
X6514999Y38364999D01*
X6514999Y38364999D02*
X7050000Y38900000D01*
X7050000Y38900000D02*
X7750000Y38900000D01*
X6669687Y29689999D02*
X5535001Y29689999D01*
X4875000Y30350000D02*
X4850000Y30350000D01*
X10105023Y26254663D02*
X6669687Y29689999D01*
X10105023Y24274820D02*
X10105023Y26254663D01*
X12550000Y19970512D02*
X12550000Y21829843D01*
X12550000Y21829843D02*
X10105023Y24274820D01*
X5535001Y29689999D02*
X4875000Y30350000D01*
X10515034Y26834966D02*
X10515034Y24455478D01*
X10515034Y24455478D02*
X13250000Y21720512D01*
X13250000Y21720512D02*
X13250000Y19970512D01*
X7000000Y30350000D02*
X10515034Y26834966D01*
X6350000Y30350000D02*
X7000000Y30350000D01*
X9285001Y23585511D02*
X9285001Y25716801D01*
X11150000Y19970512D02*
X11150000Y21720512D01*
X11150000Y21720512D02*
X9285001Y23585511D01*
X9285001Y25716801D02*
X7611803Y27389999D01*
X7611803Y27389999D02*
X5435001Y27389999D01*
X5435001Y27389999D02*
X4775000Y28050000D01*
X4775000Y28050000D02*
X4750000Y28050000D01*
X7729843Y28050000D02*
X6900000Y28050000D01*
X6900000Y28050000D02*
X6250000Y28050000D01*
X9695012Y26084831D02*
X7729843Y28050000D01*
X9695012Y24083029D02*
X9695012Y26084831D01*
X11850000Y19970512D02*
X11850000Y21928041D01*
X11850000Y21928041D02*
X9695012Y24083029D01*
X22450000Y37150000D02*
X22650000Y37150000D01*
X19464989Y34164989D02*
X22450000Y37150000D01*
X19464989Y21805523D02*
X19464989Y34164989D01*
X19550000Y21720512D02*
X19464989Y21805523D01*
X19550000Y19970512D02*
X19550000Y21720512D01*
X27950000Y10485286D02*
X27866143Y10569143D01*
X27950000Y9500000D02*
X27950000Y10485286D01*
X19550000Y17151916D02*
X20925577Y15776339D01*
X19550000Y19970512D02*
X19550000Y17151916D01*
X20925577Y15776339D02*
X21125576Y15576340D01*
X19500000Y19920512D02*
X19550000Y19970512D01*
D36*
X15000000Y15000000D02*
X15342690Y15342690D01*
X15342690Y15342690D02*
X15342690Y19680360D01*
X15342690Y19680360D02*
X15342690Y19963202D01*
D35*
X22875000Y7050000D02*
X22252200Y7050000D01*
X22252200Y7050000D02*
X22250200Y7048000D01*
X24600000Y7500000D02*
X23325000Y7500000D01*
X23325000Y7500000D02*
X22875000Y7050000D01*
D36*
X10982842Y3939610D02*
X10700000Y3939610D01*
X11060390Y3939610D02*
X10982842Y3939610D01*
X12500000Y2500000D02*
X11060390Y3939610D01*
D35*
X26568200Y2743400D02*
X26568200Y1905200D01*
D36*
X30000000Y12500000D02*
X27500000Y12500000D01*
X27500000Y15000000D02*
X30000000Y15000000D01*
X25000000Y17500000D02*
X25000000Y15000000D01*
X30000000Y17500000D02*
X27500000Y17500000D01*
X12500000Y5000000D02*
X15000000Y7500000D01*
X15000000Y2500000D02*
X15000000Y5000000D01*
X7500000Y5000000D02*
X5000000Y5000000D01*
X5000000Y7500000D02*
X2500000Y7500000D01*
X5000000Y12500000D02*
X2500000Y10000000D01*
X7500000Y10000000D02*
X7500000Y12500000D01*
X7500000Y12500000D02*
X5000000Y12500000D01*
X12500000Y12500000D02*
X10000000Y12500000D01*
X7500000Y40000000D02*
X5000000Y40000000D01*
X2500000Y27500000D02*
X5000000Y25000000D01*
X2500000Y32500000D02*
X2500000Y30000000D01*
X7500000Y32500000D02*
X5000000Y32500000D01*
X10000000Y32500000D02*
X10000000Y30000000D01*
X20000000Y27500000D02*
X20000000Y25000000D01*
X20000000Y32500000D02*
X20000000Y30000000D01*
X15000000Y30000000D02*
X15000000Y27500000D01*
X15000000Y35000000D02*
X15000000Y32500000D01*
X17500000Y32500000D02*
X17500000Y35000000D01*
X17500000Y27500000D02*
X17500000Y30000000D01*
X18850000Y19970512D02*
X18850000Y23650000D01*
X18850000Y23650000D02*
X17500000Y25000000D01*
X25000000Y27500000D02*
X25000000Y25000000D01*
X25000000Y32500000D02*
X25000000Y30000000D01*
X25000000Y35000000D02*
X25000000Y37500000D01*
X40000000Y30000000D02*
X40000000Y29000000D01*
X38000000Y28750000D02*
X38000000Y29500000D01*
X38000000Y29500000D02*
X37500000Y30000000D01*
X32500000Y22500000D02*
X35000000Y25000000D01*
X35000000Y20000000D02*
X35000000Y22500000D01*
X32350000Y17950000D02*
X32350000Y19850000D01*
X32350000Y19850000D02*
X32500000Y20000000D01*
X37500000Y15000000D02*
X40000000Y12500000D01*
X35000000Y15000000D02*
X37500000Y15000000D01*
X32350000Y17950000D02*
X34550000Y17950000D01*
X34550000Y17950000D02*
X35000000Y17500000D01*
X35000000Y5000000D02*
X35000000Y7500000D01*
X35000000Y5000000D02*
X37500000Y5000000D01*
X37500000Y5000000D02*
X37500000Y2500000D01*
X37500000Y7823400D02*
X37500000Y7500000D01*
X37500000Y10000000D02*
X37500000Y7823400D01*
X37500000Y7823400D02*
X37500000Y5000000D01*
X32500000Y8300000D02*
X32500000Y9388002D01*
X32500000Y9388002D02*
X34271999Y11160001D01*
X34271999Y11160001D02*
X36339999Y11160001D01*
X36339999Y11160001D02*
X37300001Y10199999D01*
X37300001Y10199999D02*
X37500000Y10000000D01*
X1400000Y37700000D02*
X1950000Y37700000D01*
X1950000Y37700000D02*
X2350000Y37300000D01*
X38150000Y34700000D02*
X38125000Y34700000D01*
X38125000Y34700000D02*
X36739999Y36085001D01*
X36739999Y36085001D02*
X36739999Y37278001D01*
X36739999Y37278001D02*
X37161998Y37700000D01*
X37161998Y37700000D02*
X37450000Y37700000D01*
X39910001Y32789999D02*
X40400000Y32300000D01*
X40400000Y32300000D02*
X40400000Y31100000D01*
X39889999Y32789999D02*
X39910001Y32789999D01*
X38150000Y34700000D02*
X38150000Y33799198D01*
X38150000Y33799198D02*
X39159199Y32789999D01*
X39159199Y32789999D02*
X39889999Y32789999D01*
D35*
X22250000Y7050000D02*
X22875000Y7050000D01*
X30850000Y7850000D02*
X30500000Y7500000D01*
X30500000Y7500000D02*
X28600000Y7500000D01*
D36*
X30850000Y7850000D02*
X32050000Y7850000D01*
X32050000Y7850000D02*
X32500000Y8300000D01*
D35*
X28650000Y19970512D02*
X28650000Y21720512D01*
X28650000Y21720512D02*
X33644487Y26714999D01*
X33644487Y26714999D02*
X36839999Y26714999D01*
X36839999Y26714999D02*
X37375000Y27250000D01*
X37375000Y27250000D02*
X38000000Y27250000D01*
X26600000Y4484250D02*
X26486138Y4370388D01*
X26600000Y5500000D02*
X26600000Y4484250D01*
X31876800Y4318200D02*
X31876800Y4223200D01*
X31876800Y4223200D02*
X32550000Y3550000D01*
X32550000Y3550000D02*
X32550000Y3525000D01*
X32550000Y3525000D02*
X34050000Y2025000D01*
X34050000Y2025000D02*
X34350000Y2025000D01*
X34350000Y2025000D02*
X35250000Y2025000D01*
X32500000Y6800000D02*
X32500000Y3600000D01*
X32500000Y3600000D02*
X32550000Y3550000D01*
X35250000Y9975000D02*
X35250000Y9350000D01*
X35250000Y9350000D02*
X32700000Y6800000D01*
X32700000Y6800000D02*
X32500000Y6800000D01*
X22825000Y10350000D02*
X21500000Y10350000D01*
X24325000Y8850000D02*
X22825000Y10350000D01*
X21500000Y10350000D02*
X20850000Y10350000D01*
X24600000Y8850000D02*
X24325000Y8850000D01*
X24600000Y8400000D02*
X23950000Y8400000D01*
X23950000Y8400000D02*
X22800000Y9550000D01*
X22800000Y9550000D02*
X20850000Y9550000D01*
X24600000Y6150000D02*
X24056600Y6150000D01*
X24056600Y6150000D02*
X23926600Y6020000D01*
X20850000Y8750000D02*
X21213002Y8750000D01*
X21213002Y8750000D02*
X21589999Y8373003D01*
X21589999Y8373003D02*
X21589999Y6421999D01*
X21589999Y6421999D02*
X21861998Y6150000D01*
X10700000Y2600000D02*
X11600000Y2600000D01*
X27953201Y1715399D02*
X27953201Y3771401D01*
X27953201Y3771401D02*
X27050000Y4674602D01*
X24653586Y2245012D02*
X25478400Y1420198D01*
X25478400Y1420198D02*
X27658000Y1420198D01*
X27050000Y4850000D02*
X27050000Y5500000D01*
X19383010Y2245012D02*
X24653586Y2245012D01*
X12730211Y1469789D02*
X18607787Y1469789D01*
X18607787Y1469789D02*
X19383010Y2245012D01*
X11600000Y2600000D02*
X12730211Y1469789D01*
X27050000Y4674602D02*
X27050000Y4850000D01*
X27658000Y1420198D02*
X27953201Y1715399D01*
X25700000Y5006004D02*
X25433984Y4739988D01*
X25433984Y4739988D02*
X25280928Y4739988D01*
X25700000Y5500000D02*
X25700000Y5006004D01*
X32350000Y15410000D02*
X33710000Y14050000D01*
X33710000Y14050000D02*
X35400000Y14050000D01*
X19629296Y4252993D02*
X18425793Y4252993D01*
X18425793Y4252993D02*
X18262400Y4089600D01*
X26150000Y5500000D02*
X26150000Y4738200D01*
X26150000Y4738200D02*
X25780800Y4369000D01*
X8500000Y3450000D02*
X9240800Y3450000D01*
X9240800Y3450000D02*
X9245400Y3454600D01*
D37*
X8500000Y3425000D02*
X8685000Y3240000D01*
D35*
X8500000Y3450000D02*
X8500000Y3425000D01*
X8500000Y3425000D02*
X7100000Y2025000D01*
X7100000Y2025000D02*
X6650000Y2025000D01*
X6650000Y2025000D02*
X5750000Y2025000D01*
X8350000Y7450000D02*
X8350000Y3600000D01*
X8350000Y3600000D02*
X8500000Y3450000D01*
X5750000Y9975000D02*
X5750000Y9850000D01*
X5750000Y9850000D02*
X8150000Y7450000D01*
X8150000Y7450000D02*
X8350000Y7450000D01*
X27598486Y4751514D02*
X27658996Y4751514D01*
X27500000Y4850000D02*
X27598486Y4751514D01*
X27500000Y5500000D02*
X27500000Y4850000D01*
X16001800Y16713400D02*
X17925167Y14790033D01*
X19906019Y14790033D02*
X20188861Y14790033D01*
X17925167Y14790033D02*
X19906019Y14790033D01*
X13402399Y13982243D02*
X13119557Y13982243D01*
X20828812Y13895012D02*
X13489630Y13895012D01*
X21043754Y14109954D02*
X20828812Y13895012D01*
X13489630Y13895012D02*
X13402399Y13982243D01*
X29108200Y5029400D02*
X28420600Y5029400D01*
X28420600Y5029400D02*
X27950000Y5500000D01*
X21841676Y14174718D02*
X21841676Y13891876D01*
X13792000Y14656000D02*
X14142977Y14305023D01*
X14142977Y14305023D02*
X20495861Y14305023D01*
X20495861Y14305023D02*
X20846838Y14656000D01*
X20846838Y14656000D02*
X21360394Y14656000D01*
X21360394Y14656000D02*
X21841676Y14174718D01*
X29667000Y6070800D02*
X28679200Y6070800D01*
X28679200Y6070800D02*
X28600000Y6150000D01*
X29416201Y9020401D02*
X29416201Y9016201D01*
X29416201Y9016201D02*
X29250000Y8850000D01*
X29250000Y8850000D02*
X28600000Y8850000D01*
X29616200Y9220400D02*
X29416201Y9020401D01*
X21132600Y18008800D02*
X23266200Y15875200D01*
X23266200Y15875200D02*
X23266200Y14478200D01*
X4648000Y36477000D02*
X4648000Y36068200D01*
X3300000Y37700000D02*
X3425000Y37700000D01*
X3425000Y37700000D02*
X4648000Y36477000D01*
X22304201Y40535399D02*
X22504200Y40335400D01*
X22234577Y40605023D02*
X22304201Y40535399D01*
X20726200Y40605023D02*
X22234577Y40605023D01*
X20726200Y40605023D02*
X29080172Y40605023D01*
X9075181Y40605023D02*
X20726200Y40605023D01*
X5600000Y38900000D02*
X6300000Y38900000D01*
X6300000Y38900000D02*
X6864989Y39464989D01*
X6864989Y39464989D02*
X7935147Y39464989D01*
X7935147Y39464989D02*
X9075181Y40605023D01*
X29080172Y40605023D02*
X29175149Y40700000D01*
X29175149Y40700000D02*
X36179840Y40700000D01*
X36179840Y40700000D02*
X37279840Y39600000D01*
X37279840Y39600000D02*
X39750000Y39600000D01*
X39750000Y39600000D02*
X40250000Y39100000D01*
X40250000Y39100000D02*
X40250000Y38650000D01*
X27050000Y10087641D02*
X27050000Y9500000D01*
X23751202Y15970040D02*
X23751202Y13516643D01*
X26971131Y10296714D02*
X26971131Y10166510D01*
X22350000Y19970512D02*
X22350000Y17371242D01*
X26971131Y10166510D02*
X27050000Y10087641D01*
X23751202Y13516643D02*
X26971131Y10296714D01*
X22350000Y17371242D02*
X23751202Y15970040D01*
X3548337Y36890755D02*
X3748336Y36690756D01*
X3414092Y37025000D02*
X3548337Y36890755D01*
X3300000Y37025000D02*
X3414092Y37025000D01*
X22350000Y35850000D02*
X22100000Y36100000D01*
X22350000Y19970512D02*
X22350000Y35850000D01*
X4500000Y39000000D02*
X5500000Y39000000D01*
X5500000Y39000000D02*
X5600000Y38900000D01*
X19895598Y13157400D02*
X14147600Y13157400D01*
X14147600Y13157400D02*
X12667798Y13157400D01*
X12475198Y13350000D02*
X5689400Y13350000D01*
X26600000Y9500000D02*
X26561120Y9538880D01*
X23530602Y13157400D02*
X21304402Y13157400D01*
X20976801Y13485001D02*
X20223199Y13485001D01*
X26561120Y9538880D02*
X26561120Y10126882D01*
X26561120Y10126882D02*
X23530602Y13157400D01*
X21304402Y13157400D02*
X20976801Y13485001D01*
X20223199Y13485001D02*
X19895598Y13157400D01*
X12667798Y13157400D02*
X12475198Y13350000D01*
X5689400Y13350000D02*
X4400000Y13350000D01*
X4400000Y13350000D02*
X3900000Y13350000D01*
X20950000Y4150000D02*
X21450000Y3650000D01*
X21450000Y3650000D02*
X21450000Y3450000D01*
X20418198Y4150000D02*
X20950000Y4150000D01*
X19564999Y5996801D02*
X19564999Y5003199D01*
X20040400Y10414200D02*
X20040400Y6472202D01*
X20040400Y6472202D02*
X19564999Y5996801D01*
X14554000Y12598600D02*
X17856000Y12598600D01*
X17856000Y12598600D02*
X20040400Y10414200D01*
X19564999Y5003199D02*
X20418198Y4150000D01*
X27050000Y35490000D02*
X23240800Y31680800D01*
X23240800Y31680800D02*
X23240800Y23800000D01*
D36*
X28459491Y32273443D02*
X28459491Y36166557D01*
X27726557Y36899491D02*
X27197707Y36899491D01*
X27197707Y36899491D02*
X24781813Y39315385D01*
X28459491Y36166557D02*
X27726557Y36899491D01*
X11895012Y39660001D02*
X11325000Y39089989D01*
X10325000Y37200000D02*
X10200000Y37200000D01*
X11325000Y39089989D02*
X11325000Y38200000D01*
X27050000Y30410000D02*
X27050000Y30863952D01*
X11325000Y38200000D02*
X10325000Y37200000D01*
X21440192Y39315385D02*
X21095576Y39660001D01*
X24781813Y39315385D02*
X21440192Y39315385D01*
X21095576Y39660001D02*
X11895012Y39660001D01*
X27050000Y30863952D02*
X28459491Y32273443D01*
X8550000Y34750000D02*
X8550000Y35550000D01*
X8550000Y35550000D02*
X10200000Y37200000D01*
D35*
X13411000Y10338000D02*
X10818000Y10338000D01*
X10818000Y10338000D02*
X10700000Y10220000D01*
X10700000Y5140000D02*
X10950000Y5140000D01*
X10950000Y5140000D02*
X13817400Y8007400D01*
X13817400Y8007400D02*
X13817400Y8737800D01*
X13055400Y9118800D02*
X11626600Y7690000D01*
X11626600Y7690000D02*
X10700000Y7690000D01*
X17250000Y2600000D02*
X18100000Y3450000D01*
X19450000Y3450000D02*
X19950000Y3450000D01*
X18100000Y3450000D02*
X19450000Y3450000D01*
X17000000Y2600000D02*
X17250000Y2600000D01*
X27950000Y19970512D02*
X27950000Y21600352D01*
X27950000Y21600352D02*
X33599648Y27250000D01*
X33599648Y27250000D02*
X35300000Y27250000D01*
X35300000Y27250000D02*
X36000000Y27250000D01*
X29350000Y19970512D02*
X29350000Y21483514D01*
X29350000Y21483514D02*
X34116486Y26250000D01*
X34116486Y26250000D02*
X39125000Y26250000D01*
X39125000Y26250000D02*
X39875000Y27000000D01*
X39875000Y27000000D02*
X40000000Y27000000D01*
X19050000Y8750000D02*
X18400000Y8750000D01*
X18400000Y8750000D02*
X18364999Y8714999D01*
X18364999Y8714999D02*
X18364999Y6254999D01*
X18364999Y6254999D02*
X17250000Y5140000D01*
X17250000Y5140000D02*
X17000000Y5140000D01*
X19050000Y9550000D02*
X18400000Y9550000D01*
X18400000Y9550000D02*
X17935001Y9085001D01*
X17935001Y9085001D02*
X17935001Y8375001D01*
X17935001Y8375001D02*
X17250000Y7690000D01*
X17250000Y7690000D02*
X17000000Y7690000D01*
X19050000Y10350000D02*
X17130000Y10350000D01*
X17130000Y10350000D02*
X17000000Y10220000D01*
X25218200Y2743400D02*
X25618200Y2743400D01*
X23031587Y6422634D02*
X23031587Y4930013D01*
X23031587Y4930013D02*
X25218200Y2743400D01*
X23658953Y7050000D02*
X23031587Y6422634D01*
X24600000Y7050000D02*
X23658953Y7050000D01*
X23441598Y5235002D02*
X24848199Y3828401D01*
X23441598Y6252802D02*
X23441598Y5235002D01*
X23788796Y6600000D02*
X23441598Y6252802D01*
X27518200Y3393400D02*
X27518200Y2743400D01*
X27083199Y3828401D02*
X27518200Y3393400D01*
X24848199Y3828401D02*
X27083199Y3828401D01*
X24600000Y6600000D02*
X23788796Y6600000D01*
D38*
G36*
X3308437Y12900000D02*
X3331796Y12775856D01*
X3405165Y12661838D01*
X3517113Y12585347D01*
X3650000Y12558437D01*
X4150000Y12558437D01*
X4274144Y12581796D01*
X4388162Y12655165D01*
X4464653Y12767113D01*
X4489538Y12890000D01*
X12284660Y12890000D01*
X12342529Y12832131D01*
X12491763Y12732415D01*
X12667798Y12697400D01*
X13860320Y12697400D01*
X14019029Y12631498D01*
X14018908Y12492649D01*
X14100185Y12295943D01*
X14250551Y12145314D01*
X14447115Y12063693D01*
X14659951Y12063508D01*
X14841688Y12138600D01*
X15986650Y12138600D01*
X15923000Y11984936D01*
X15923000Y11733750D01*
X16029750Y11627000D01*
X16873000Y11627000D01*
X16873000Y11647000D01*
X17127000Y11647000D01*
X17127000Y11627000D01*
X17970250Y11627000D01*
X18073656Y11730406D01*
X18862499Y10941563D01*
X18650000Y10941563D01*
X18525856Y10918204D01*
X18411838Y10844835D01*
X18388036Y10810000D01*
X17963869Y10810000D01*
X18011993Y10858124D01*
X18077000Y11015064D01*
X18077000Y11266250D01*
X17970250Y11373000D01*
X17127000Y11373000D01*
X17127000Y11353000D01*
X16873000Y11353000D01*
X16873000Y11373000D01*
X16029750Y11373000D01*
X15923000Y11266250D01*
X15923000Y11015064D01*
X15988007Y10858124D01*
X16058849Y10787282D01*
X16035347Y10752887D01*
X16008437Y10620000D01*
X16008437Y9820000D01*
X16031796Y9695856D01*
X16051448Y9665317D01*
X15988007Y9601876D01*
X15923000Y9444936D01*
X15923000Y9193750D01*
X16029750Y9087000D01*
X16873000Y9087000D01*
X16873000Y9107000D01*
X17127000Y9107000D01*
X17127000Y9087000D01*
X17147000Y9087000D01*
X17147000Y8833000D01*
X17127000Y8833000D01*
X17127000Y8813000D01*
X16873000Y8813000D01*
X16873000Y8833000D01*
X16029750Y8833000D01*
X15923000Y8726250D01*
X15923000Y8475064D01*
X15988007Y8318124D01*
X16054789Y8251342D01*
X16035347Y8222887D01*
X16008437Y8090000D01*
X16008437Y7290000D01*
X16031796Y7165856D01*
X16059278Y7123147D01*
X15988007Y7051876D01*
X15923000Y6894936D01*
X15923000Y6643750D01*
X16029750Y6537000D01*
X16873000Y6537000D01*
X16873000Y6557000D01*
X17127000Y6557000D01*
X17127000Y6537000D01*
X17147000Y6537000D01*
X17147000Y6283000D01*
X17127000Y6283000D01*
X17127000Y6263000D01*
X16873000Y6263000D01*
X16873000Y6283000D01*
X16029750Y6283000D01*
X15923000Y6176250D01*
X15923000Y5925064D01*
X15988007Y5768124D01*
X16054789Y5701342D01*
X16035347Y5672887D01*
X16008437Y5540000D01*
X16008437Y4740000D01*
X16031796Y4615856D01*
X16051448Y4585317D01*
X15988007Y4521876D01*
X15923000Y4364936D01*
X15923000Y4113750D01*
X16029750Y4007000D01*
X16873000Y4007000D01*
X16873000Y4027000D01*
X17127000Y4027000D01*
X17127000Y4007000D01*
X17147000Y4007000D01*
X17147000Y3753000D01*
X17127000Y3753000D01*
X17127000Y3733000D01*
X16873000Y3733000D01*
X16873000Y3753000D01*
X16029750Y3753000D01*
X15923000Y3646250D01*
X15923000Y3395064D01*
X15988007Y3238124D01*
X16058849Y3167282D01*
X16035347Y3132887D01*
X16008437Y3000000D01*
X16008437Y2200000D01*
X16031796Y2075856D01*
X16105165Y1961838D01*
X16152070Y1929789D01*
X12920749Y1929789D01*
X11925269Y2925269D01*
X11776035Y3024985D01*
X11683395Y3043412D01*
X11668204Y3124144D01*
X11640722Y3166853D01*
X11711993Y3238124D01*
X11777000Y3395064D01*
X11777000Y3646250D01*
X11670250Y3753000D01*
X10827000Y3753000D01*
X10827000Y3733000D01*
X10573000Y3733000D01*
X10573000Y3753000D01*
X9729750Y3753000D01*
X9709388Y3732638D01*
X9699215Y3757257D01*
X9548849Y3907886D01*
X9352285Y3989507D01*
X9183224Y3989654D01*
X9119835Y4088162D01*
X9007887Y4164653D01*
X8875000Y4191563D01*
X8810000Y4191563D01*
X8810000Y6860319D01*
X8924144Y6881796D01*
X9038162Y6955165D01*
X9114653Y7067113D01*
X9141563Y7200000D01*
X9141563Y7700000D01*
X9118204Y7824144D01*
X9044835Y7938162D01*
X8932887Y8014653D01*
X8800000Y8041563D01*
X8208975Y8041563D01*
X7977538Y8273000D01*
X8116250Y8273000D01*
X8223000Y8379750D01*
X8223000Y8825000D01*
X8477000Y8825000D01*
X8477000Y8379750D01*
X8583750Y8273000D01*
X8884936Y8273000D01*
X9041876Y8338007D01*
X9161993Y8458124D01*
X9227000Y8615065D01*
X9227000Y8718250D01*
X9219000Y8726250D01*
X9623000Y8726250D01*
X9623000Y8475064D01*
X9688007Y8318124D01*
X9754789Y8251342D01*
X9735347Y8222887D01*
X9708437Y8090000D01*
X9708437Y7290000D01*
X9731796Y7165856D01*
X9759278Y7123147D01*
X9688007Y7051876D01*
X9623000Y6894936D01*
X9623000Y6643750D01*
X9729750Y6537000D01*
X10573000Y6537000D01*
X10573000Y6557000D01*
X10827000Y6557000D01*
X10827000Y6537000D01*
X10847000Y6537000D01*
X10847000Y6283000D01*
X10827000Y6283000D01*
X10827000Y6263000D01*
X10573000Y6263000D01*
X10573000Y6283000D01*
X9729750Y6283000D01*
X9623000Y6176250D01*
X9623000Y5925064D01*
X9688007Y5768124D01*
X9754789Y5701342D01*
X9735347Y5672887D01*
X9708437Y5540000D01*
X9708437Y4740000D01*
X9731796Y4615856D01*
X9751448Y4585317D01*
X9688007Y4521876D01*
X9623000Y4364936D01*
X9623000Y4113750D01*
X9729750Y4007000D01*
X10573000Y4007000D01*
X10573000Y4027000D01*
X10827000Y4027000D01*
X10827000Y4007000D01*
X11670250Y4007000D01*
X11777000Y4113750D01*
X11777000Y4364936D01*
X11711993Y4521876D01*
X11649270Y4584599D01*
X11664653Y4607113D01*
X11691563Y4740000D01*
X11691563Y5231025D01*
X14142669Y7682131D01*
X14242385Y7831365D01*
X14277400Y8007400D01*
X14277400Y8450520D01*
X14352307Y8630915D01*
X14352492Y8843751D01*
X14271215Y9040457D01*
X14120849Y9191086D01*
X13924285Y9272707D01*
X13711449Y9272892D01*
X13590490Y9222913D01*
X13590492Y9224751D01*
X13509215Y9421457D01*
X13358849Y9572086D01*
X13162285Y9653707D01*
X12949449Y9653892D01*
X12752743Y9572615D01*
X12602114Y9422249D01*
X12526704Y9240642D01*
X11777000Y8490938D01*
X11777000Y8726250D01*
X11670250Y8833000D01*
X10827000Y8833000D01*
X10827000Y8813000D01*
X10573000Y8813000D01*
X10573000Y8833000D01*
X9729750Y8833000D01*
X9623000Y8726250D01*
X9219000Y8726250D01*
X9120250Y8825000D01*
X8477000Y8825000D01*
X8223000Y8825000D01*
X7579750Y8825000D01*
X7502644Y8747894D01*
X6965603Y9284935D01*
X7473000Y9284935D01*
X7473000Y9181750D01*
X7579750Y9075000D01*
X8223000Y9075000D01*
X8223000Y9520250D01*
X8477000Y9520250D01*
X8477000Y9075000D01*
X9120250Y9075000D01*
X9227000Y9181750D01*
X9227000Y9284935D01*
X9161993Y9441876D01*
X9041876Y9561993D01*
X8884936Y9627000D01*
X8583750Y9627000D01*
X8477000Y9520250D01*
X8223000Y9520250D01*
X8116250Y9627000D01*
X7815064Y9627000D01*
X7658124Y9561993D01*
X7538007Y9441876D01*
X7473000Y9284935D01*
X6965603Y9284935D01*
X6741563Y9508975D01*
X6741563Y10750000D01*
X6718204Y10874144D01*
X6644835Y10988162D01*
X6532887Y11064653D01*
X6400000Y11091563D01*
X5100000Y11091563D01*
X4975856Y11068204D01*
X4861838Y10994835D01*
X4785347Y10882887D01*
X4758437Y10750000D01*
X4758437Y9200000D01*
X4781796Y9075856D01*
X4855165Y8961838D01*
X4967113Y8885347D01*
X5100000Y8858437D01*
X6091025Y8858437D01*
X7558437Y7391025D01*
X7558437Y7200000D01*
X7581796Y7075856D01*
X7655165Y6961838D01*
X7767113Y6885347D01*
X7890000Y6860462D01*
X7890000Y4096870D01*
X7886838Y4094835D01*
X7810347Y3982887D01*
X7783437Y3850000D01*
X7783437Y3358975D01*
X6909462Y2485000D01*
X6741563Y2485000D01*
X6741563Y2800000D01*
X6718204Y2924144D01*
X6644835Y3038162D01*
X6532887Y3114653D01*
X6400000Y3141563D01*
X5100000Y3141563D01*
X4975856Y3118204D01*
X4861838Y3044835D01*
X4785347Y2932887D01*
X4758437Y2800000D01*
X4758437Y1424999D01*
X3827316Y1424999D01*
X2813657Y2438657D01*
X2623870Y2565470D01*
X2599683Y2570281D01*
X2400000Y2610000D01*
X2241563Y2610000D01*
X2241563Y2800000D01*
X2218204Y2924144D01*
X2144835Y3038162D01*
X2032887Y3114653D01*
X1900000Y3141563D01*
X1835000Y3141563D01*
X1835000Y8858437D01*
X1900000Y8858437D01*
X2024144Y8881796D01*
X2138162Y8955165D01*
X2214653Y9067113D01*
X2241563Y9200000D01*
X2241563Y10139248D01*
X2813658Y10711343D01*
X2940470Y10901130D01*
X2985000Y11125000D01*
X2985000Y11266250D01*
X9623000Y11266250D01*
X9623000Y11015064D01*
X9688007Y10858124D01*
X9758849Y10787282D01*
X9735347Y10752887D01*
X9708437Y10620000D01*
X9708437Y9820000D01*
X9731796Y9695856D01*
X9751448Y9665317D01*
X9688007Y9601876D01*
X9623000Y9444936D01*
X9623000Y9193750D01*
X9729750Y9087000D01*
X10573000Y9087000D01*
X10573000Y9107000D01*
X10827000Y9107000D01*
X10827000Y9087000D01*
X11670250Y9087000D01*
X11777000Y9193750D01*
X11777000Y9444936D01*
X11711993Y9601876D01*
X11649270Y9664599D01*
X11664653Y9687113D01*
X11691563Y9820000D01*
X11691563Y9878000D01*
X13123720Y9878000D01*
X13304115Y9803093D01*
X13516951Y9802908D01*
X13713657Y9884185D01*
X13864286Y10034551D01*
X13945907Y10231115D01*
X13946092Y10443951D01*
X13864815Y10640657D01*
X13714449Y10791286D01*
X13517885Y10872907D01*
X13305049Y10873092D01*
X13123312Y10798000D01*
X11651869Y10798000D01*
X11711993Y10858124D01*
X11777000Y11015064D01*
X11777000Y11266250D01*
X11670250Y11373000D01*
X10827000Y11373000D01*
X10827000Y11353000D01*
X10573000Y11353000D01*
X10573000Y11373000D01*
X9729750Y11373000D01*
X9623000Y11266250D01*
X2985000Y11266250D01*
X2985000Y11984936D01*
X9623000Y11984936D01*
X9623000Y11733750D01*
X9729750Y11627000D01*
X10573000Y11627000D01*
X10573000Y12220250D01*
X10827000Y12220250D01*
X10827000Y11627000D01*
X11670250Y11627000D01*
X11777000Y11733750D01*
X11777000Y11984936D01*
X11711993Y12141876D01*
X11591876Y12261993D01*
X11434935Y12327000D01*
X10933750Y12327000D01*
X10827000Y12220250D01*
X10573000Y12220250D01*
X10466250Y12327000D01*
X9965065Y12327000D01*
X9808124Y12261993D01*
X9688007Y12141876D01*
X9623000Y11984936D01*
X2985000Y11984936D01*
X2985000Y12867591D01*
X2991563Y12900000D01*
X2991563Y13314249D01*
X3308437Y13631123D01*
X3308437Y12900000D01*
X3308437Y12900000D01*
G37*
X3308437Y12900000D02*
X3331796Y12775856D01*
X3405165Y12661838D01*
X3517113Y12585347D01*
X3650000Y12558437D01*
X4150000Y12558437D01*
X4274144Y12581796D01*
X4388162Y12655165D01*
X4464653Y12767113D01*
X4489538Y12890000D01*
X12284660Y12890000D01*
X12342529Y12832131D01*
X12491763Y12732415D01*
X12667798Y12697400D01*
X13860320Y12697400D01*
X14019029Y12631498D01*
X14018908Y12492649D01*
X14100185Y12295943D01*
X14250551Y12145314D01*
X14447115Y12063693D01*
X14659951Y12063508D01*
X14841688Y12138600D01*
X15986650Y12138600D01*
X15923000Y11984936D01*
X15923000Y11733750D01*
X16029750Y11627000D01*
X16873000Y11627000D01*
X16873000Y11647000D01*
X17127000Y11647000D01*
X17127000Y11627000D01*
X17970250Y11627000D01*
X18073656Y11730406D01*
X18862499Y10941563D01*
X18650000Y10941563D01*
X18525856Y10918204D01*
X18411838Y10844835D01*
X18388036Y10810000D01*
X17963869Y10810000D01*
X18011993Y10858124D01*
X18077000Y11015064D01*
X18077000Y11266250D01*
X17970250Y11373000D01*
X17127000Y11373000D01*
X17127000Y11353000D01*
X16873000Y11353000D01*
X16873000Y11373000D01*
X16029750Y11373000D01*
X15923000Y11266250D01*
X15923000Y11015064D01*
X15988007Y10858124D01*
X16058849Y10787282D01*
X16035347Y10752887D01*
X16008437Y10620000D01*
X16008437Y9820000D01*
X16031796Y9695856D01*
X16051448Y9665317D01*
X15988007Y9601876D01*
X15923000Y9444936D01*
X15923000Y9193750D01*
X16029750Y9087000D01*
X16873000Y9087000D01*
X16873000Y9107000D01*
X17127000Y9107000D01*
X17127000Y9087000D01*
X17147000Y9087000D01*
X17147000Y8833000D01*
X17127000Y8833000D01*
X17127000Y8813000D01*
X16873000Y8813000D01*
X16873000Y8833000D01*
X16029750Y8833000D01*
X15923000Y8726250D01*
X15923000Y8475064D01*
X15988007Y8318124D01*
X16054789Y8251342D01*
X16035347Y8222887D01*
X16008437Y8090000D01*
X16008437Y7290000D01*
X16031796Y7165856D01*
X16059278Y7123147D01*
X15988007Y7051876D01*
X15923000Y6894936D01*
X15923000Y6643750D01*
X16029750Y6537000D01*
X16873000Y6537000D01*
X16873000Y6557000D01*
X17127000Y6557000D01*
X17127000Y6537000D01*
X17147000Y6537000D01*
X17147000Y6283000D01*
X17127000Y6283000D01*
X17127000Y6263000D01*
X16873000Y6263000D01*
X16873000Y6283000D01*
X16029750Y6283000D01*
X15923000Y6176250D01*
X15923000Y5925064D01*
X15988007Y5768124D01*
X16054789Y5701342D01*
X16035347Y5672887D01*
X16008437Y5540000D01*
X16008437Y4740000D01*
X16031796Y4615856D01*
X16051448Y4585317D01*
X15988007Y4521876D01*
X15923000Y4364936D01*
X15923000Y4113750D01*
X16029750Y4007000D01*
X16873000Y4007000D01*
X16873000Y4027000D01*
X17127000Y4027000D01*
X17127000Y4007000D01*
X17147000Y4007000D01*
X17147000Y3753000D01*
X17127000Y3753000D01*
X17127000Y3733000D01*
X16873000Y3733000D01*
X16873000Y3753000D01*
X16029750Y3753000D01*
X15923000Y3646250D01*
X15923000Y3395064D01*
X15988007Y3238124D01*
X16058849Y3167282D01*
X16035347Y3132887D01*
X16008437Y3000000D01*
X16008437Y2200000D01*
X16031796Y2075856D01*
X16105165Y1961838D01*
X16152070Y1929789D01*
X12920749Y1929789D01*
X11925269Y2925269D01*
X11776035Y3024985D01*
X11683395Y3043412D01*
X11668204Y3124144D01*
X11640722Y3166853D01*
X11711993Y3238124D01*
X11777000Y3395064D01*
X11777000Y3646250D01*
X11670250Y3753000D01*
X10827000Y3753000D01*
X10827000Y3733000D01*
X10573000Y3733000D01*
X10573000Y3753000D01*
X9729750Y3753000D01*
X9709388Y3732638D01*
X9699215Y3757257D01*
X9548849Y3907886D01*
X9352285Y3989507D01*
X9183224Y3989654D01*
X9119835Y4088162D01*
X9007887Y4164653D01*
X8875000Y4191563D01*
X8810000Y4191563D01*
X8810000Y6860319D01*
X8924144Y6881796D01*
X9038162Y6955165D01*
X9114653Y7067113D01*
X9141563Y7200000D01*
X9141563Y7700000D01*
X9118204Y7824144D01*
X9044835Y7938162D01*
X8932887Y8014653D01*
X8800000Y8041563D01*
X8208975Y8041563D01*
X7977538Y8273000D01*
X8116250Y8273000D01*
X8223000Y8379750D01*
X8223000Y8825000D01*
X8477000Y8825000D01*
X8477000Y8379750D01*
X8583750Y8273000D01*
X8884936Y8273000D01*
X9041876Y8338007D01*
X9161993Y8458124D01*
X9227000Y8615065D01*
X9227000Y8718250D01*
X9219000Y8726250D01*
X9623000Y8726250D01*
X9623000Y8475064D01*
X9688007Y8318124D01*
X9754789Y8251342D01*
X9735347Y8222887D01*
X9708437Y8090000D01*
X9708437Y7290000D01*
X9731796Y7165856D01*
X9759278Y7123147D01*
X9688007Y7051876D01*
X9623000Y6894936D01*
X9623000Y6643750D01*
X9729750Y6537000D01*
X10573000Y6537000D01*
X10573000Y6557000D01*
X10827000Y6557000D01*
X10827000Y6537000D01*
X10847000Y6537000D01*
X10847000Y6283000D01*
X10827000Y6283000D01*
X10827000Y6263000D01*
X10573000Y6263000D01*
X10573000Y6283000D01*
X9729750Y6283000D01*
X9623000Y6176250D01*
X9623000Y5925064D01*
X9688007Y5768124D01*
X9754789Y5701342D01*
X9735347Y5672887D01*
X9708437Y5540000D01*
X9708437Y4740000D01*
X9731796Y4615856D01*
X9751448Y4585317D01*
X9688007Y4521876D01*
X9623000Y4364936D01*
X9623000Y4113750D01*
X9729750Y4007000D01*
X10573000Y4007000D01*
X10573000Y4027000D01*
X10827000Y4027000D01*
X10827000Y4007000D01*
X11670250Y4007000D01*
X11777000Y4113750D01*
X11777000Y4364936D01*
X11711993Y4521876D01*
X11649270Y4584599D01*
X11664653Y4607113D01*
X11691563Y4740000D01*
X11691563Y5231025D01*
X14142669Y7682131D01*
X14242385Y7831365D01*
X14277400Y8007400D01*
X14277400Y8450520D01*
X14352307Y8630915D01*
X14352492Y8843751D01*
X14271215Y9040457D01*
X14120849Y9191086D01*
X13924285Y9272707D01*
X13711449Y9272892D01*
X13590490Y9222913D01*
X13590492Y9224751D01*
X13509215Y9421457D01*
X13358849Y9572086D01*
X13162285Y9653707D01*
X12949449Y9653892D01*
X12752743Y9572615D01*
X12602114Y9422249D01*
X12526704Y9240642D01*
X11777000Y8490938D01*
X11777000Y8726250D01*
X11670250Y8833000D01*
X10827000Y8833000D01*
X10827000Y8813000D01*
X10573000Y8813000D01*
X10573000Y8833000D01*
X9729750Y8833000D01*
X9623000Y8726250D01*
X9219000Y8726250D01*
X9120250Y8825000D01*
X8477000Y8825000D01*
X8223000Y8825000D01*
X7579750Y8825000D01*
X7502644Y8747894D01*
X6965603Y9284935D01*
X7473000Y9284935D01*
X7473000Y9181750D01*
X7579750Y9075000D01*
X8223000Y9075000D01*
X8223000Y9520250D01*
X8477000Y9520250D01*
X8477000Y9075000D01*
X9120250Y9075000D01*
X9227000Y9181750D01*
X9227000Y9284935D01*
X9161993Y9441876D01*
X9041876Y9561993D01*
X8884936Y9627000D01*
X8583750Y9627000D01*
X8477000Y9520250D01*
X8223000Y9520250D01*
X8116250Y9627000D01*
X7815064Y9627000D01*
X7658124Y9561993D01*
X7538007Y9441876D01*
X7473000Y9284935D01*
X6965603Y9284935D01*
X6741563Y9508975D01*
X6741563Y10750000D01*
X6718204Y10874144D01*
X6644835Y10988162D01*
X6532887Y11064653D01*
X6400000Y11091563D01*
X5100000Y11091563D01*
X4975856Y11068204D01*
X4861838Y10994835D01*
X4785347Y10882887D01*
X4758437Y10750000D01*
X4758437Y9200000D01*
X4781796Y9075856D01*
X4855165Y8961838D01*
X4967113Y8885347D01*
X5100000Y8858437D01*
X6091025Y8858437D01*
X7558437Y7391025D01*
X7558437Y7200000D01*
X7581796Y7075856D01*
X7655165Y6961838D01*
X7767113Y6885347D01*
X7890000Y6860462D01*
X7890000Y4096870D01*
X7886838Y4094835D01*
X7810347Y3982887D01*
X7783437Y3850000D01*
X7783437Y3358975D01*
X6909462Y2485000D01*
X6741563Y2485000D01*
X6741563Y2800000D01*
X6718204Y2924144D01*
X6644835Y3038162D01*
X6532887Y3114653D01*
X6400000Y3141563D01*
X5100000Y3141563D01*
X4975856Y3118204D01*
X4861838Y3044835D01*
X4785347Y2932887D01*
X4758437Y2800000D01*
X4758437Y1424999D01*
X3827316Y1424999D01*
X2813657Y2438657D01*
X2623870Y2565470D01*
X2599683Y2570281D01*
X2400000Y2610000D01*
X2241563Y2610000D01*
X2241563Y2800000D01*
X2218204Y2924144D01*
X2144835Y3038162D01*
X2032887Y3114653D01*
X1900000Y3141563D01*
X1835000Y3141563D01*
X1835000Y8858437D01*
X1900000Y8858437D01*
X2024144Y8881796D01*
X2138162Y8955165D01*
X2214653Y9067113D01*
X2241563Y9200000D01*
X2241563Y10139248D01*
X2813658Y10711343D01*
X2940470Y10901130D01*
X2985000Y11125000D01*
X2985000Y11266250D01*
X9623000Y11266250D01*
X9623000Y11015064D01*
X9688007Y10858124D01*
X9758849Y10787282D01*
X9735347Y10752887D01*
X9708437Y10620000D01*
X9708437Y9820000D01*
X9731796Y9695856D01*
X9751448Y9665317D01*
X9688007Y9601876D01*
X9623000Y9444936D01*
X9623000Y9193750D01*
X9729750Y9087000D01*
X10573000Y9087000D01*
X10573000Y9107000D01*
X10827000Y9107000D01*
X10827000Y9087000D01*
X11670250Y9087000D01*
X11777000Y9193750D01*
X11777000Y9444936D01*
X11711993Y9601876D01*
X11649270Y9664599D01*
X11664653Y9687113D01*
X11691563Y9820000D01*
X11691563Y9878000D01*
X13123720Y9878000D01*
X13304115Y9803093D01*
X13516951Y9802908D01*
X13713657Y9884185D01*
X13864286Y10034551D01*
X13945907Y10231115D01*
X13946092Y10443951D01*
X13864815Y10640657D01*
X13714449Y10791286D01*
X13517885Y10872907D01*
X13305049Y10873092D01*
X13123312Y10798000D01*
X11651869Y10798000D01*
X11711993Y10858124D01*
X11777000Y11015064D01*
X11777000Y11266250D01*
X11670250Y11373000D01*
X10827000Y11373000D01*
X10827000Y11353000D01*
X10573000Y11353000D01*
X10573000Y11373000D01*
X9729750Y11373000D01*
X9623000Y11266250D01*
X2985000Y11266250D01*
X2985000Y11984936D01*
X9623000Y11984936D01*
X9623000Y11733750D01*
X9729750Y11627000D01*
X10573000Y11627000D01*
X10573000Y12220250D01*
X10827000Y12220250D01*
X10827000Y11627000D01*
X11670250Y11627000D01*
X11777000Y11733750D01*
X11777000Y11984936D01*
X11711993Y12141876D01*
X11591876Y12261993D01*
X11434935Y12327000D01*
X10933750Y12327000D01*
X10827000Y12220250D01*
X10573000Y12220250D01*
X10466250Y12327000D01*
X9965065Y12327000D01*
X9808124Y12261993D01*
X9688007Y12141876D01*
X9623000Y11984936D01*
X2985000Y11984936D01*
X2985000Y12867591D01*
X2991563Y12900000D01*
X2991563Y13314249D01*
X3308437Y13631123D01*
X3308437Y12900000D01*
G36*
X34847878Y39729986D02*
X34847878Y39664719D01*
X34845000Y39650306D01*
X34842890Y36822264D01*
X34799490Y36831053D01*
X32800510Y36831053D01*
X32676366Y36807694D01*
X32562348Y36734325D01*
X32485857Y36622377D01*
X32458947Y36489490D01*
X32458947Y34490510D01*
X32482306Y34366366D01*
X32555675Y34252348D01*
X32667623Y34175857D01*
X32800510Y34148947D01*
X33199359Y34148947D01*
X32856373Y33919771D01*
X32567092Y33486831D01*
X32465510Y32976144D01*
X32465510Y32923856D01*
X32567092Y32413169D01*
X32856373Y31980229D01*
X33289313Y31690948D01*
X33344352Y31680000D01*
X33289313Y31669052D01*
X32856373Y31379771D01*
X32567092Y30946831D01*
X32465510Y30436144D01*
X32465510Y30383856D01*
X32567092Y29873169D01*
X32856373Y29440229D01*
X33289313Y29150948D01*
X33800000Y29049366D01*
X33978817Y29084935D01*
X35123000Y29084935D01*
X35123000Y28981750D01*
X35229750Y28875000D01*
X35873000Y28875000D01*
X35873000Y29320250D01*
X36127000Y29320250D01*
X36127000Y28875000D01*
X36770250Y28875000D01*
X36877000Y28981750D01*
X36877000Y29084935D01*
X36814869Y29234935D01*
X37198000Y29234935D01*
X37198000Y28983750D01*
X37304750Y28877000D01*
X37873000Y28877000D01*
X37873000Y29470250D01*
X38127000Y29470250D01*
X38127000Y28877000D01*
X38695250Y28877000D01*
X38802000Y28983750D01*
X38802000Y29234935D01*
X38736993Y29391876D01*
X38616876Y29511993D01*
X38459936Y29577000D01*
X38233750Y29577000D01*
X38127000Y29470250D01*
X37873000Y29470250D01*
X37766250Y29577000D01*
X37540064Y29577000D01*
X37383124Y29511993D01*
X37263007Y29391876D01*
X37198000Y29234935D01*
X36814869Y29234935D01*
X36811993Y29241876D01*
X36691876Y29361993D01*
X36534936Y29427000D01*
X36233750Y29427000D01*
X36127000Y29320250D01*
X35873000Y29320250D01*
X35766250Y29427000D01*
X35465064Y29427000D01*
X35308124Y29361993D01*
X35188007Y29241876D01*
X35123000Y29084935D01*
X33978817Y29084935D01*
X34310687Y29150948D01*
X34743627Y29440229D01*
X34840316Y29584935D01*
X38948000Y29584935D01*
X38948000Y29233750D01*
X39054750Y29127000D01*
X39873000Y29127000D01*
X39873000Y29820250D01*
X39766250Y29927000D01*
X39290064Y29927000D01*
X39133124Y29861993D01*
X39013007Y29741876D01*
X38948000Y29584935D01*
X34840316Y29584935D01*
X35032908Y29873169D01*
X35134490Y30383856D01*
X35134490Y30436144D01*
X35032908Y30946831D01*
X34743627Y31379771D01*
X34310687Y31669052D01*
X34255648Y31680000D01*
X34310687Y31690948D01*
X34743627Y31980229D01*
X34873000Y32173850D01*
X34873000Y31500000D01*
X34883006Y31450590D01*
X34911447Y31408965D01*
X34953841Y31381685D01*
X35000000Y31373000D01*
X40690000Y31373000D01*
X40690000Y29927000D01*
X40233750Y29927000D01*
X40127000Y29820250D01*
X40127000Y29127000D01*
X40147000Y29127000D01*
X40147000Y28873000D01*
X40127000Y28873000D01*
X40127000Y28179750D01*
X40233750Y28073000D01*
X40690000Y28073000D01*
X40690000Y27828400D01*
X40625000Y27841563D01*
X39375000Y27841563D01*
X39250856Y27818204D01*
X39136838Y27744835D01*
X39060347Y27632887D01*
X39033437Y27500000D01*
X39033437Y26808975D01*
X38934462Y26710000D01*
X38684793Y26710000D01*
X38689653Y26717113D01*
X38716563Y26850000D01*
X38716563Y27650000D01*
X38693204Y27774144D01*
X38619835Y27888162D01*
X38527742Y27951086D01*
X38616876Y27988007D01*
X38736993Y28108124D01*
X38802000Y28265065D01*
X38802000Y28516250D01*
X38695250Y28623000D01*
X38127000Y28623000D01*
X38127000Y28603000D01*
X37873000Y28603000D01*
X37873000Y28623000D01*
X37304750Y28623000D01*
X37198000Y28516250D01*
X37198000Y28265065D01*
X37263007Y28108124D01*
X37383124Y27988007D01*
X37473473Y27950583D01*
X37386838Y27894835D01*
X37310347Y27782887D01*
X37292254Y27693541D01*
X37198965Y27674985D01*
X37049731Y27575269D01*
X36791563Y27317101D01*
X36791563Y27500000D01*
X36768204Y27624144D01*
X36694835Y27738162D01*
X36582887Y27814653D01*
X36450000Y27841563D01*
X35550000Y27841563D01*
X35425856Y27818204D01*
X35311838Y27744835D01*
X35288036Y27710000D01*
X33599648Y27710000D01*
X33423613Y27674985D01*
X33274379Y27575269D01*
X27624731Y21925621D01*
X27590555Y21874473D01*
X27534935Y21897512D01*
X27456750Y21897512D01*
X27350000Y21790762D01*
X27350000Y20097512D01*
X27397000Y20097512D01*
X27397000Y19843512D01*
X27350000Y19843512D01*
X27350000Y18150262D01*
X27456750Y18043512D01*
X27534935Y18043512D01*
X27691876Y18108519D01*
X27718654Y18135297D01*
X27750000Y18128949D01*
X28150000Y18128949D01*
X28274144Y18152308D01*
X28298949Y18168270D01*
X28317113Y18155859D01*
X28450000Y18128949D01*
X28850000Y18128949D01*
X28974144Y18152308D01*
X28998949Y18168270D01*
X29017113Y18155859D01*
X29150000Y18128949D01*
X29550000Y18128949D01*
X29581725Y18134918D01*
X29608124Y18108519D01*
X29765065Y18043512D01*
X29843250Y18043512D01*
X29950000Y18150262D01*
X29950000Y19736762D01*
X30123000Y19736762D01*
X30123000Y18385576D01*
X30150000Y18320393D01*
X30150000Y18150262D01*
X30256750Y18043512D01*
X30334935Y18043512D01*
X30400000Y18070463D01*
X30465065Y18043512D01*
X30543250Y18043512D01*
X30650000Y18150262D01*
X30650000Y18320393D01*
X30677000Y18385576D01*
X30677000Y19736762D01*
X30650000Y19763762D01*
X30650000Y19843512D01*
X30850000Y19843512D01*
X30850000Y18150262D01*
X30956750Y18043512D01*
X31034935Y18043512D01*
X31115782Y18077000D01*
X32223000Y18077000D01*
X32223000Y19263615D01*
X32477000Y19263615D01*
X32477000Y18077000D01*
X33664085Y18077000D01*
X33733475Y18297704D01*
X33495104Y18800670D01*
X33082401Y19174129D01*
X32697702Y19333465D01*
X32477000Y19263615D01*
X32223000Y19263615D01*
X32002298Y19333465D01*
X31617599Y19174129D01*
X31377000Y18956409D01*
X31377000Y19736762D01*
X31270250Y19843512D01*
X30850000Y19843512D01*
X30650000Y19843512D01*
X30150000Y19843512D01*
X30150000Y19763762D01*
X30123000Y19736762D01*
X29950000Y19736762D01*
X29950000Y19843512D01*
X29903000Y19843512D01*
X29903000Y20097512D01*
X29950000Y20097512D01*
X29950000Y20117512D01*
X30150000Y20117512D01*
X30150000Y20097512D01*
X30650000Y20097512D01*
X30650000Y20177262D01*
X30677000Y20204262D01*
X30677000Y21555448D01*
X30650000Y21620631D01*
X30650000Y21790762D01*
X30850000Y21790762D01*
X30850000Y20097512D01*
X31270250Y20097512D01*
X31377000Y20204262D01*
X31377000Y21555448D01*
X31311993Y21712388D01*
X31191876Y21832505D01*
X31034935Y21897512D01*
X30956750Y21897512D01*
X30850000Y21790762D01*
X30650000Y21790762D01*
X30543250Y21897512D01*
X30465065Y21897512D01*
X30400000Y21870561D01*
X30391221Y21874197D01*
X34307024Y25790000D01*
X38840171Y25790000D01*
X38824860Y25783658D01*
X38824857Y25783655D01*
X37089195Y24623924D01*
X36976076Y24510805D01*
X36976076Y24510804D01*
X35816342Y22775140D01*
X35755123Y22627343D01*
X35347878Y20579987D01*
X35347878Y20420013D01*
X35755123Y18372658D01*
X35755123Y18372657D01*
X35816342Y18224860D01*
X36976075Y16489198D01*
X36976076Y16489195D01*
X37089195Y16376076D01*
X38824857Y15216345D01*
X38824860Y15216342D01*
X38929368Y15173054D01*
X38972656Y15155123D01*
X38972657Y15155123D01*
X40690000Y14813522D01*
X40690000Y10917974D01*
X40644835Y10988162D01*
X40532887Y11064653D01*
X40400000Y11091563D01*
X39585752Y11091563D01*
X37713657Y12963657D01*
X37523870Y13090470D01*
X37517897Y13091658D01*
X37300000Y13135000D01*
X35882409Y13135000D01*
X35850000Y13141563D01*
X34950000Y13141563D01*
X34915120Y13135000D01*
X33691053Y13135000D01*
X33691053Y13593769D01*
X33710000Y13590000D01*
X34687043Y13590000D01*
X34705165Y13561838D01*
X34817113Y13485347D01*
X34950000Y13458437D01*
X35850000Y13458437D01*
X35974144Y13481796D01*
X36088162Y13555165D01*
X36164653Y13667113D01*
X36191563Y13800000D01*
X36191563Y14300000D01*
X36168204Y14424144D01*
X36094835Y14538162D01*
X35982887Y14614653D01*
X35850000Y14641563D01*
X34950000Y14641563D01*
X34825856Y14618204D01*
X34711838Y14544835D01*
X34688036Y14510000D01*
X33900538Y14510000D01*
X33564668Y14845870D01*
X33582908Y14873169D01*
X33684490Y15383856D01*
X33684490Y15436144D01*
X33582908Y15946831D01*
X33293627Y16379771D01*
X32893034Y16647438D01*
X33082401Y16725871D01*
X33495104Y17099330D01*
X33733475Y17602296D01*
X33664085Y17823000D01*
X32477000Y17823000D01*
X32477000Y17803000D01*
X32223000Y17803000D01*
X32223000Y17823000D01*
X31035915Y17823000D01*
X30966525Y17602296D01*
X31204896Y17099330D01*
X31617599Y16725871D01*
X31806966Y16647438D01*
X31406373Y16379771D01*
X31117092Y15946831D01*
X31015510Y15436144D01*
X31015510Y15383856D01*
X31117092Y14873169D01*
X31406373Y14440229D01*
X31749359Y14211053D01*
X31350510Y14211053D01*
X31226366Y14187694D01*
X31112348Y14114325D01*
X31035857Y14002377D01*
X31008947Y13869490D01*
X31008947Y11870510D01*
X31032306Y11746366D01*
X31105675Y11632348D01*
X31217623Y11555857D01*
X31350510Y11528947D01*
X33349490Y11528947D01*
X33473634Y11552306D01*
X33587652Y11625675D01*
X33664143Y11737623D01*
X33691053Y11870510D01*
X33691053Y11965000D01*
X34917591Y11965000D01*
X34950000Y11958437D01*
X35850000Y11958437D01*
X35884880Y11965000D01*
X37057686Y11965000D01*
X38758437Y10264248D01*
X38758437Y9200000D01*
X38781796Y9075856D01*
X38855165Y8961838D01*
X38967113Y8885347D01*
X39100000Y8858437D01*
X39165000Y8858437D01*
X39165000Y3141563D01*
X39100000Y3141563D01*
X38975856Y3118204D01*
X38861838Y3044835D01*
X38785347Y2932887D01*
X38758437Y2800000D01*
X38758437Y2610000D01*
X38600000Y2610000D01*
X38400317Y2570281D01*
X38376130Y2565470D01*
X38186342Y2438657D01*
X37172685Y1424999D01*
X36241563Y1424999D01*
X36241563Y2800000D01*
X36218204Y2924144D01*
X36144835Y3038162D01*
X36032887Y3114653D01*
X35900000Y3141563D01*
X34600000Y3141563D01*
X34475856Y3118204D01*
X34361838Y3044835D01*
X34285347Y2932887D01*
X34258437Y2800000D01*
X34258437Y2485000D01*
X34240538Y2485000D01*
X33266563Y3458975D01*
X33266563Y3950000D01*
X33243204Y4074144D01*
X33169835Y4188162D01*
X33057887Y4264653D01*
X32960000Y4284475D01*
X32960000Y6210319D01*
X33074144Y6231796D01*
X33188162Y6305165D01*
X33264653Y6417113D01*
X33291563Y6550000D01*
X33291563Y6741025D01*
X35408975Y8858437D01*
X35900000Y8858437D01*
X36024144Y8881796D01*
X36138162Y8955165D01*
X36214653Y9067113D01*
X36241563Y9200000D01*
X36241563Y10750000D01*
X36218204Y10874144D01*
X36144835Y10988162D01*
X36032887Y11064653D01*
X35900000Y11091563D01*
X34600000Y11091563D01*
X34475856Y11068204D01*
X34361838Y10994835D01*
X34285347Y10882887D01*
X34258437Y10750000D01*
X34258437Y9200000D01*
X34281796Y9075856D01*
X34298836Y9049374D01*
X33347356Y8097894D01*
X33270250Y8175000D01*
X32627000Y8175000D01*
X32627000Y7729750D01*
X32733750Y7623000D01*
X32872462Y7623000D01*
X32641025Y7391563D01*
X32050000Y7391563D01*
X31925856Y7368204D01*
X31811838Y7294835D01*
X31735347Y7182887D01*
X31708437Y7050000D01*
X31708437Y6550000D01*
X31731796Y6425856D01*
X31805165Y6311838D01*
X31917113Y6235347D01*
X32040000Y6210462D01*
X32040000Y4829723D01*
X31983685Y4853107D01*
X31770849Y4853292D01*
X31574143Y4772015D01*
X31435000Y4633115D01*
X31435000Y5687043D01*
X31463162Y5705165D01*
X31539653Y5817113D01*
X31566563Y5950000D01*
X31566563Y6750000D01*
X31543204Y6874144D01*
X31469835Y6988162D01*
X31377742Y7051086D01*
X31466876Y7088007D01*
X31586993Y7208124D01*
X31652000Y7365065D01*
X31652000Y7616250D01*
X31545250Y7723000D01*
X30977000Y7723000D01*
X30977000Y7703000D01*
X30723000Y7703000D01*
X30723000Y7723000D01*
X30154750Y7723000D01*
X30048000Y7616250D01*
X30048000Y7365065D01*
X30113007Y7208124D01*
X30233124Y7088007D01*
X30300739Y7060000D01*
X29341563Y7060000D01*
X29341563Y7112694D01*
X29361993Y7133124D01*
X29427000Y7290064D01*
X29427000Y7330750D01*
X29320250Y7437500D01*
X29209215Y7437500D01*
X29132887Y7489653D01*
X29084794Y7499392D01*
X29124144Y7506796D01*
X29210710Y7562500D01*
X29320250Y7562500D01*
X29427000Y7669250D01*
X29427000Y7709936D01*
X29361993Y7866876D01*
X29341563Y7887306D01*
X29341563Y8075000D01*
X29322056Y8178671D01*
X29341563Y8275000D01*
X29341563Y8334935D01*
X30048000Y8334935D01*
X30048000Y8083750D01*
X30154750Y7977000D01*
X30723000Y7977000D01*
X30723000Y8570250D01*
X30977000Y8570250D01*
X30977000Y7977000D01*
X31545250Y7977000D01*
X31623000Y8054750D01*
X31623000Y7965065D01*
X31688007Y7808124D01*
X31808124Y7688007D01*
X31965064Y7623000D01*
X32266250Y7623000D01*
X32373000Y7729750D01*
X32373000Y8175000D01*
X32353000Y8175000D01*
X32353000Y8425000D01*
X32373000Y8425000D01*
X32373000Y8870250D01*
X32627000Y8870250D01*
X32627000Y8425000D01*
X33270250Y8425000D01*
X33377000Y8531750D01*
X33377000Y8634935D01*
X33311993Y8791876D01*
X33191876Y8911993D01*
X33034936Y8977000D01*
X32733750Y8977000D01*
X32627000Y8870250D01*
X32373000Y8870250D01*
X32266250Y8977000D01*
X31965064Y8977000D01*
X31808124Y8911993D01*
X31688007Y8791876D01*
X31623000Y8634935D01*
X31623000Y8531750D01*
X31727748Y8427002D01*
X31623000Y8427002D01*
X31623000Y8404947D01*
X31586993Y8491876D01*
X31466876Y8611993D01*
X31309936Y8677000D01*
X31083750Y8677000D01*
X30977000Y8570250D01*
X30723000Y8570250D01*
X30616250Y8677000D01*
X30390064Y8677000D01*
X30233124Y8611993D01*
X30113007Y8491876D01*
X30048000Y8334935D01*
X29341563Y8334935D01*
X29341563Y8408213D01*
X29426035Y8425015D01*
X29575269Y8524731D01*
X29741470Y8690932D01*
X29743647Y8694190D01*
X29918857Y8766585D01*
X30069486Y8916951D01*
X30151107Y9113515D01*
X30151292Y9326351D01*
X30070015Y9523057D01*
X29919649Y9673686D01*
X29723085Y9755307D01*
X29510249Y9755492D01*
X29313543Y9674215D01*
X29162914Y9523849D01*
X29085636Y9337744D01*
X29082474Y9333012D01*
X29059462Y9310000D01*
X29032409Y9310000D01*
X29000000Y9316563D01*
X28416563Y9316563D01*
X28416563Y9900000D01*
X28410000Y9934880D01*
X28410000Y10485286D01*
X28401109Y10529985D01*
X28401235Y10675094D01*
X28319958Y10871800D01*
X28169592Y11022429D01*
X27973028Y11104050D01*
X27760192Y11104235D01*
X27563486Y11022958D01*
X27519338Y10978888D01*
X24621213Y13877013D01*
X24621213Y16139872D01*
X24586198Y16315906D01*
X24586198Y16315907D01*
X24486482Y16465141D01*
X24210000Y16741623D01*
X24210000Y18043512D01*
X24243250Y18043512D01*
X24350000Y18150262D01*
X24350000Y19736762D01*
X24523000Y19736762D01*
X24523000Y18385576D01*
X24550000Y18320393D01*
X24550000Y18150262D01*
X24656750Y18043512D01*
X24734935Y18043512D01*
X24800000Y18070463D01*
X24865065Y18043512D01*
X24943250Y18043512D01*
X25050000Y18150262D01*
X25050000Y18320393D01*
X25077000Y18385576D01*
X25077000Y19736762D01*
X25223000Y19736762D01*
X25223000Y18385576D01*
X25250000Y18320393D01*
X25250000Y18150262D01*
X25356750Y18043512D01*
X25434935Y18043512D01*
X25500000Y18070463D01*
X25565065Y18043512D01*
X25643250Y18043512D01*
X25750000Y18150262D01*
X25750000Y18320393D01*
X25777000Y18385576D01*
X25777000Y19736762D01*
X25923000Y19736762D01*
X25923000Y18385576D01*
X25950000Y18320393D01*
X25950000Y18150262D01*
X26056750Y18043512D01*
X26134935Y18043512D01*
X26200000Y18070463D01*
X26265065Y18043512D01*
X26343250Y18043512D01*
X26450000Y18150262D01*
X26450000Y18320393D01*
X26477000Y18385576D01*
X26477000Y19736762D01*
X26623000Y19736762D01*
X26623000Y18385576D01*
X26650000Y18320393D01*
X26650000Y18150262D01*
X26756750Y18043512D01*
X26834935Y18043512D01*
X26900000Y18070463D01*
X26965065Y18043512D01*
X27043250Y18043512D01*
X27150000Y18150262D01*
X27150000Y18320393D01*
X27177000Y18385576D01*
X27177000Y19736762D01*
X27150000Y19763762D01*
X27150000Y19843512D01*
X26650000Y19843512D01*
X26650000Y19763762D01*
X26623000Y19736762D01*
X26477000Y19736762D01*
X26450000Y19763762D01*
X26450000Y19843512D01*
X25950000Y19843512D01*
X25950000Y19763762D01*
X25923000Y19736762D01*
X25777000Y19736762D01*
X25750000Y19763762D01*
X25750000Y19843512D01*
X25250000Y19843512D01*
X25250000Y19763762D01*
X25223000Y19736762D01*
X25077000Y19736762D01*
X25050000Y19763762D01*
X25050000Y19843512D01*
X24550000Y19843512D01*
X24550000Y19763762D01*
X24523000Y19736762D01*
X24350000Y19736762D01*
X24350000Y19843512D01*
X24303000Y19843512D01*
X24303000Y20097512D01*
X24350000Y20097512D01*
X24350000Y21555448D01*
X24523000Y21555448D01*
X24523000Y20204262D01*
X24550000Y20177262D01*
X24550000Y20097512D01*
X25050000Y20097512D01*
X25050000Y20177262D01*
X25077000Y20204262D01*
X25077000Y21555448D01*
X25223000Y21555448D01*
X25223000Y20204262D01*
X25250000Y20177262D01*
X25250000Y20097512D01*
X25750000Y20097512D01*
X25750000Y20177262D01*
X25777000Y20204262D01*
X25777000Y21555448D01*
X25923000Y21555448D01*
X25923000Y20204262D01*
X25950000Y20177262D01*
X25950000Y20097512D01*
X26450000Y20097512D01*
X26450000Y20177262D01*
X26477000Y20204262D01*
X26477000Y21555448D01*
X26623000Y21555448D01*
X26623000Y20204262D01*
X26650000Y20177262D01*
X26650000Y20097512D01*
X27150000Y20097512D01*
X27150000Y20177262D01*
X27177000Y20204262D01*
X27177000Y21555448D01*
X27150000Y21620631D01*
X27150000Y21790762D01*
X27043250Y21897512D01*
X26965065Y21897512D01*
X26900000Y21870561D01*
X26834935Y21897512D01*
X26756750Y21897512D01*
X26650000Y21790762D01*
X26650000Y21620631D01*
X26623000Y21555448D01*
X26477000Y21555448D01*
X26450000Y21620631D01*
X26450000Y21790762D01*
X26343250Y21897512D01*
X26265065Y21897512D01*
X26200000Y21870561D01*
X26134935Y21897512D01*
X26056750Y21897512D01*
X25950000Y21790762D01*
X25950000Y21620631D01*
X25923000Y21555448D01*
X25777000Y21555448D01*
X25750000Y21620631D01*
X25750000Y21790762D01*
X25643250Y21897512D01*
X25565065Y21897512D01*
X25500000Y21870561D01*
X25434935Y21897512D01*
X25356750Y21897512D01*
X25250000Y21790762D01*
X25250000Y21620631D01*
X25223000Y21555448D01*
X25077000Y21555448D01*
X25050000Y21620631D01*
X25050000Y21790762D01*
X24943250Y21897512D01*
X24865065Y21897512D01*
X24800000Y21870561D01*
X24734935Y21897512D01*
X24656750Y21897512D01*
X24550000Y21790762D01*
X24550000Y21620631D01*
X24523000Y21555448D01*
X24350000Y21555448D01*
X24350000Y21790762D01*
X24270650Y21870112D01*
X29825269Y27424731D01*
X29924985Y27573965D01*
X29960000Y27750000D01*
X29960000Y28518250D01*
X35123000Y28518250D01*
X35123000Y28415065D01*
X35188007Y28258124D01*
X35308124Y28138007D01*
X35465064Y28073000D01*
X35766250Y28073000D01*
X35873000Y28179750D01*
X35873000Y28625000D01*
X36127000Y28625000D01*
X36127000Y28179750D01*
X36233750Y28073000D01*
X36534936Y28073000D01*
X36691876Y28138007D01*
X36811993Y28258124D01*
X36877000Y28415065D01*
X36877000Y28518250D01*
X36770250Y28625000D01*
X36127000Y28625000D01*
X35873000Y28625000D01*
X35229750Y28625000D01*
X35123000Y28518250D01*
X29960000Y28518250D01*
X29960000Y28766250D01*
X38948000Y28766250D01*
X38948000Y28415065D01*
X39013007Y28258124D01*
X39133124Y28138007D01*
X39290064Y28073000D01*
X39766250Y28073000D01*
X39873000Y28179750D01*
X39873000Y28873000D01*
X39054750Y28873000D01*
X38948000Y28766250D01*
X29960000Y28766250D01*
X29960000Y39709462D01*
X29990538Y39740000D01*
X34849870Y39740000D01*
X34847878Y39729986D01*
X34847878Y39729986D01*
G37*
X34847878Y39729986D02*
X34847878Y39664719D01*
X34845000Y39650306D01*
X34842890Y36822264D01*
X34799490Y36831053D01*
X32800510Y36831053D01*
X32676366Y36807694D01*
X32562348Y36734325D01*
X32485857Y36622377D01*
X32458947Y36489490D01*
X32458947Y34490510D01*
X32482306Y34366366D01*
X32555675Y34252348D01*
X32667623Y34175857D01*
X32800510Y34148947D01*
X33199359Y34148947D01*
X32856373Y33919771D01*
X32567092Y33486831D01*
X32465510Y32976144D01*
X32465510Y32923856D01*
X32567092Y32413169D01*
X32856373Y31980229D01*
X33289313Y31690948D01*
X33344352Y31680000D01*
X33289313Y31669052D01*
X32856373Y31379771D01*
X32567092Y30946831D01*
X32465510Y30436144D01*
X32465510Y30383856D01*
X32567092Y29873169D01*
X32856373Y29440229D01*
X33289313Y29150948D01*
X33800000Y29049366D01*
X33978817Y29084935D01*
X35123000Y29084935D01*
X35123000Y28981750D01*
X35229750Y28875000D01*
X35873000Y28875000D01*
X35873000Y29320250D01*
X36127000Y29320250D01*
X36127000Y28875000D01*
X36770250Y28875000D01*
X36877000Y28981750D01*
X36877000Y29084935D01*
X36814869Y29234935D01*
X37198000Y29234935D01*
X37198000Y28983750D01*
X37304750Y28877000D01*
X37873000Y28877000D01*
X37873000Y29470250D01*
X38127000Y29470250D01*
X38127000Y28877000D01*
X38695250Y28877000D01*
X38802000Y28983750D01*
X38802000Y29234935D01*
X38736993Y29391876D01*
X38616876Y29511993D01*
X38459936Y29577000D01*
X38233750Y29577000D01*
X38127000Y29470250D01*
X37873000Y29470250D01*
X37766250Y29577000D01*
X37540064Y29577000D01*
X37383124Y29511993D01*
X37263007Y29391876D01*
X37198000Y29234935D01*
X36814869Y29234935D01*
X36811993Y29241876D01*
X36691876Y29361993D01*
X36534936Y29427000D01*
X36233750Y29427000D01*
X36127000Y29320250D01*
X35873000Y29320250D01*
X35766250Y29427000D01*
X35465064Y29427000D01*
X35308124Y29361993D01*
X35188007Y29241876D01*
X35123000Y29084935D01*
X33978817Y29084935D01*
X34310687Y29150948D01*
X34743627Y29440229D01*
X34840316Y29584935D01*
X38948000Y29584935D01*
X38948000Y29233750D01*
X39054750Y29127000D01*
X39873000Y29127000D01*
X39873000Y29820250D01*
X39766250Y29927000D01*
X39290064Y29927000D01*
X39133124Y29861993D01*
X39013007Y29741876D01*
X38948000Y29584935D01*
X34840316Y29584935D01*
X35032908Y29873169D01*
X35134490Y30383856D01*
X35134490Y30436144D01*
X35032908Y30946831D01*
X34743627Y31379771D01*
X34310687Y31669052D01*
X34255648Y31680000D01*
X34310687Y31690948D01*
X34743627Y31980229D01*
X34873000Y32173850D01*
X34873000Y31500000D01*
X34883006Y31450590D01*
X34911447Y31408965D01*
X34953841Y31381685D01*
X35000000Y31373000D01*
X40690000Y31373000D01*
X40690000Y29927000D01*
X40233750Y29927000D01*
X40127000Y29820250D01*
X40127000Y29127000D01*
X40147000Y29127000D01*
X40147000Y28873000D01*
X40127000Y28873000D01*
X40127000Y28179750D01*
X40233750Y28073000D01*
X40690000Y28073000D01*
X40690000Y27828400D01*
X40625000Y27841563D01*
X39375000Y27841563D01*
X39250856Y27818204D01*
X39136838Y27744835D01*
X39060347Y27632887D01*
X39033437Y27500000D01*
X39033437Y26808975D01*
X38934462Y26710000D01*
X38684793Y26710000D01*
X38689653Y26717113D01*
X38716563Y26850000D01*
X38716563Y27650000D01*
X38693204Y27774144D01*
X38619835Y27888162D01*
X38527742Y27951086D01*
X38616876Y27988007D01*
X38736993Y28108124D01*
X38802000Y28265065D01*
X38802000Y28516250D01*
X38695250Y28623000D01*
X38127000Y28623000D01*
X38127000Y28603000D01*
X37873000Y28603000D01*
X37873000Y28623000D01*
X37304750Y28623000D01*
X37198000Y28516250D01*
X37198000Y28265065D01*
X37263007Y28108124D01*
X37383124Y27988007D01*
X37473473Y27950583D01*
X37386838Y27894835D01*
X37310347Y27782887D01*
X37292254Y27693541D01*
X37198965Y27674985D01*
X37049731Y27575269D01*
X36791563Y27317101D01*
X36791563Y27500000D01*
X36768204Y27624144D01*
X36694835Y27738162D01*
X36582887Y27814653D01*
X36450000Y27841563D01*
X35550000Y27841563D01*
X35425856Y27818204D01*
X35311838Y27744835D01*
X35288036Y27710000D01*
X33599648Y27710000D01*
X33423613Y27674985D01*
X33274379Y27575269D01*
X27624731Y21925621D01*
X27590555Y21874473D01*
X27534935Y21897512D01*
X27456750Y21897512D01*
X27350000Y21790762D01*
X27350000Y20097512D01*
X27397000Y20097512D01*
X27397000Y19843512D01*
X27350000Y19843512D01*
X27350000Y18150262D01*
X27456750Y18043512D01*
X27534935Y18043512D01*
X27691876Y18108519D01*
X27718654Y18135297D01*
X27750000Y18128949D01*
X28150000Y18128949D01*
X28274144Y18152308D01*
X28298949Y18168270D01*
X28317113Y18155859D01*
X28450000Y18128949D01*
X28850000Y18128949D01*
X28974144Y18152308D01*
X28998949Y18168270D01*
X29017113Y18155859D01*
X29150000Y18128949D01*
X29550000Y18128949D01*
X29581725Y18134918D01*
X29608124Y18108519D01*
X29765065Y18043512D01*
X29843250Y18043512D01*
X29950000Y18150262D01*
X29950000Y19736762D01*
X30123000Y19736762D01*
X30123000Y18385576D01*
X30150000Y18320393D01*
X30150000Y18150262D01*
X30256750Y18043512D01*
X30334935Y18043512D01*
X30400000Y18070463D01*
X30465065Y18043512D01*
X30543250Y18043512D01*
X30650000Y18150262D01*
X30650000Y18320393D01*
X30677000Y18385576D01*
X30677000Y19736762D01*
X30650000Y19763762D01*
X30650000Y19843512D01*
X30850000Y19843512D01*
X30850000Y18150262D01*
X30956750Y18043512D01*
X31034935Y18043512D01*
X31115782Y18077000D01*
X32223000Y18077000D01*
X32223000Y19263615D01*
X32477000Y19263615D01*
X32477000Y18077000D01*
X33664085Y18077000D01*
X33733475Y18297704D01*
X33495104Y18800670D01*
X33082401Y19174129D01*
X32697702Y19333465D01*
X32477000Y19263615D01*
X32223000Y19263615D01*
X32002298Y19333465D01*
X31617599Y19174129D01*
X31377000Y18956409D01*
X31377000Y19736762D01*
X31270250Y19843512D01*
X30850000Y19843512D01*
X30650000Y19843512D01*
X30150000Y19843512D01*
X30150000Y19763762D01*
X30123000Y19736762D01*
X29950000Y19736762D01*
X29950000Y19843512D01*
X29903000Y19843512D01*
X29903000Y20097512D01*
X29950000Y20097512D01*
X29950000Y20117512D01*
X30150000Y20117512D01*
X30150000Y20097512D01*
X30650000Y20097512D01*
X30650000Y20177262D01*
X30677000Y20204262D01*
X30677000Y21555448D01*
X30650000Y21620631D01*
X30650000Y21790762D01*
X30850000Y21790762D01*
X30850000Y20097512D01*
X31270250Y20097512D01*
X31377000Y20204262D01*
X31377000Y21555448D01*
X31311993Y21712388D01*
X31191876Y21832505D01*
X31034935Y21897512D01*
X30956750Y21897512D01*
X30850000Y21790762D01*
X30650000Y21790762D01*
X30543250Y21897512D01*
X30465065Y21897512D01*
X30400000Y21870561D01*
X30391221Y21874197D01*
X34307024Y25790000D01*
X38840171Y25790000D01*
X38824860Y25783658D01*
X38824857Y25783655D01*
X37089195Y24623924D01*
X36976076Y24510805D01*
X36976076Y24510804D01*
X35816342Y22775140D01*
X35755123Y22627343D01*
X35347878Y20579987D01*
X35347878Y20420013D01*
X35755123Y18372658D01*
X35755123Y18372657D01*
X35816342Y18224860D01*
X36976075Y16489198D01*
X36976076Y16489195D01*
X37089195Y16376076D01*
X38824857Y15216345D01*
X38824860Y15216342D01*
X38929368Y15173054D01*
X38972656Y15155123D01*
X38972657Y15155123D01*
X40690000Y14813522D01*
X40690000Y10917974D01*
X40644835Y10988162D01*
X40532887Y11064653D01*
X40400000Y11091563D01*
X39585752Y11091563D01*
X37713657Y12963657D01*
X37523870Y13090470D01*
X37517897Y13091658D01*
X37300000Y13135000D01*
X35882409Y13135000D01*
X35850000Y13141563D01*
X34950000Y13141563D01*
X34915120Y13135000D01*
X33691053Y13135000D01*
X33691053Y13593769D01*
X33710000Y13590000D01*
X34687043Y13590000D01*
X34705165Y13561838D01*
X34817113Y13485347D01*
X34950000Y13458437D01*
X35850000Y13458437D01*
X35974144Y13481796D01*
X36088162Y13555165D01*
X36164653Y13667113D01*
X36191563Y13800000D01*
X36191563Y14300000D01*
X36168204Y14424144D01*
X36094835Y14538162D01*
X35982887Y14614653D01*
X35850000Y14641563D01*
X34950000Y14641563D01*
X34825856Y14618204D01*
X34711838Y14544835D01*
X34688036Y14510000D01*
X33900538Y14510000D01*
X33564668Y14845870D01*
X33582908Y14873169D01*
X33684490Y15383856D01*
X33684490Y15436144D01*
X33582908Y15946831D01*
X33293627Y16379771D01*
X32893034Y16647438D01*
X33082401Y16725871D01*
X33495104Y17099330D01*
X33733475Y17602296D01*
X33664085Y17823000D01*
X32477000Y17823000D01*
X32477000Y17803000D01*
X32223000Y17803000D01*
X32223000Y17823000D01*
X31035915Y17823000D01*
X30966525Y17602296D01*
X31204896Y17099330D01*
X31617599Y16725871D01*
X31806966Y16647438D01*
X31406373Y16379771D01*
X31117092Y15946831D01*
X31015510Y15436144D01*
X31015510Y15383856D01*
X31117092Y14873169D01*
X31406373Y14440229D01*
X31749359Y14211053D01*
X31350510Y14211053D01*
X31226366Y14187694D01*
X31112348Y14114325D01*
X31035857Y14002377D01*
X31008947Y13869490D01*
X31008947Y11870510D01*
X31032306Y11746366D01*
X31105675Y11632348D01*
X31217623Y11555857D01*
X31350510Y11528947D01*
X33349490Y11528947D01*
X33473634Y11552306D01*
X33587652Y11625675D01*
X33664143Y11737623D01*
X33691053Y11870510D01*
X33691053Y11965000D01*
X34917591Y11965000D01*
X34950000Y11958437D01*
X35850000Y11958437D01*
X35884880Y11965000D01*
X37057686Y11965000D01*
X38758437Y10264248D01*
X38758437Y9200000D01*
X38781796Y9075856D01*
X38855165Y8961838D01*
X38967113Y8885347D01*
X39100000Y8858437D01*
X39165000Y8858437D01*
X39165000Y3141563D01*
X39100000Y3141563D01*
X38975856Y3118204D01*
X38861838Y3044835D01*
X38785347Y2932887D01*
X38758437Y2800000D01*
X38758437Y2610000D01*
X38600000Y2610000D01*
X38400317Y2570281D01*
X38376130Y2565470D01*
X38186342Y2438657D01*
X37172685Y1424999D01*
X36241563Y1424999D01*
X36241563Y2800000D01*
X36218204Y2924144D01*
X36144835Y3038162D01*
X36032887Y3114653D01*
X35900000Y3141563D01*
X34600000Y3141563D01*
X34475856Y3118204D01*
X34361838Y3044835D01*
X34285347Y2932887D01*
X34258437Y2800000D01*
X34258437Y2485000D01*
X34240538Y2485000D01*
X33266563Y3458975D01*
X33266563Y3950000D01*
X33243204Y4074144D01*
X33169835Y4188162D01*
X33057887Y4264653D01*
X32960000Y4284475D01*
X32960000Y6210319D01*
X33074144Y6231796D01*
X33188162Y6305165D01*
X33264653Y6417113D01*
X33291563Y6550000D01*
X33291563Y6741025D01*
X35408975Y8858437D01*
X35900000Y8858437D01*
X36024144Y8881796D01*
X36138162Y8955165D01*
X36214653Y9067113D01*
X36241563Y9200000D01*
X36241563Y10750000D01*
X36218204Y10874144D01*
X36144835Y10988162D01*
X36032887Y11064653D01*
X35900000Y11091563D01*
X34600000Y11091563D01*
X34475856Y11068204D01*
X34361838Y10994835D01*
X34285347Y10882887D01*
X34258437Y10750000D01*
X34258437Y9200000D01*
X34281796Y9075856D01*
X34298836Y9049374D01*
X33347356Y8097894D01*
X33270250Y8175000D01*
X32627000Y8175000D01*
X32627000Y7729750D01*
X32733750Y7623000D01*
X32872462Y7623000D01*
X32641025Y7391563D01*
X32050000Y7391563D01*
X31925856Y7368204D01*
X31811838Y7294835D01*
X31735347Y7182887D01*
X31708437Y7050000D01*
X31708437Y6550000D01*
X31731796Y6425856D01*
X31805165Y6311838D01*
X31917113Y6235347D01*
X32040000Y6210462D01*
X32040000Y4829723D01*
X31983685Y4853107D01*
X31770849Y4853292D01*
X31574143Y4772015D01*
X31435000Y4633115D01*
X31435000Y5687043D01*
X31463162Y5705165D01*
X31539653Y5817113D01*
X31566563Y5950000D01*
X31566563Y6750000D01*
X31543204Y6874144D01*
X31469835Y6988162D01*
X31377742Y7051086D01*
X31466876Y7088007D01*
X31586993Y7208124D01*
X31652000Y7365065D01*
X31652000Y7616250D01*
X31545250Y7723000D01*
X30977000Y7723000D01*
X30977000Y7703000D01*
X30723000Y7703000D01*
X30723000Y7723000D01*
X30154750Y7723000D01*
X30048000Y7616250D01*
X30048000Y7365065D01*
X30113007Y7208124D01*
X30233124Y7088007D01*
X30300739Y7060000D01*
X29341563Y7060000D01*
X29341563Y7112694D01*
X29361993Y7133124D01*
X29427000Y7290064D01*
X29427000Y7330750D01*
X29320250Y7437500D01*
X29209215Y7437500D01*
X29132887Y7489653D01*
X29084794Y7499392D01*
X29124144Y7506796D01*
X29210710Y7562500D01*
X29320250Y7562500D01*
X29427000Y7669250D01*
X29427000Y7709936D01*
X29361993Y7866876D01*
X29341563Y7887306D01*
X29341563Y8075000D01*
X29322056Y8178671D01*
X29341563Y8275000D01*
X29341563Y8334935D01*
X30048000Y8334935D01*
X30048000Y8083750D01*
X30154750Y7977000D01*
X30723000Y7977000D01*
X30723000Y8570250D01*
X30977000Y8570250D01*
X30977000Y7977000D01*
X31545250Y7977000D01*
X31623000Y8054750D01*
X31623000Y7965065D01*
X31688007Y7808124D01*
X31808124Y7688007D01*
X31965064Y7623000D01*
X32266250Y7623000D01*
X32373000Y7729750D01*
X32373000Y8175000D01*
X32353000Y8175000D01*
X32353000Y8425000D01*
X32373000Y8425000D01*
X32373000Y8870250D01*
X32627000Y8870250D01*
X32627000Y8425000D01*
X33270250Y8425000D01*
X33377000Y8531750D01*
X33377000Y8634935D01*
X33311993Y8791876D01*
X33191876Y8911993D01*
X33034936Y8977000D01*
X32733750Y8977000D01*
X32627000Y8870250D01*
X32373000Y8870250D01*
X32266250Y8977000D01*
X31965064Y8977000D01*
X31808124Y8911993D01*
X31688007Y8791876D01*
X31623000Y8634935D01*
X31623000Y8531750D01*
X31727748Y8427002D01*
X31623000Y8427002D01*
X31623000Y8404947D01*
X31586993Y8491876D01*
X31466876Y8611993D01*
X31309936Y8677000D01*
X31083750Y8677000D01*
X30977000Y8570250D01*
X30723000Y8570250D01*
X30616250Y8677000D01*
X30390064Y8677000D01*
X30233124Y8611993D01*
X30113007Y8491876D01*
X30048000Y8334935D01*
X29341563Y8334935D01*
X29341563Y8408213D01*
X29426035Y8425015D01*
X29575269Y8524731D01*
X29741470Y8690932D01*
X29743647Y8694190D01*
X29918857Y8766585D01*
X30069486Y8916951D01*
X30151107Y9113515D01*
X30151292Y9326351D01*
X30070015Y9523057D01*
X29919649Y9673686D01*
X29723085Y9755307D01*
X29510249Y9755492D01*
X29313543Y9674215D01*
X29162914Y9523849D01*
X29085636Y9337744D01*
X29082474Y9333012D01*
X29059462Y9310000D01*
X29032409Y9310000D01*
X29000000Y9316563D01*
X28416563Y9316563D01*
X28416563Y9900000D01*
X28410000Y9934880D01*
X28410000Y10485286D01*
X28401109Y10529985D01*
X28401235Y10675094D01*
X28319958Y10871800D01*
X28169592Y11022429D01*
X27973028Y11104050D01*
X27760192Y11104235D01*
X27563486Y11022958D01*
X27519338Y10978888D01*
X24621213Y13877013D01*
X24621213Y16139872D01*
X24586198Y16315906D01*
X24586198Y16315907D01*
X24486482Y16465141D01*
X24210000Y16741623D01*
X24210000Y18043512D01*
X24243250Y18043512D01*
X24350000Y18150262D01*
X24350000Y19736762D01*
X24523000Y19736762D01*
X24523000Y18385576D01*
X24550000Y18320393D01*
X24550000Y18150262D01*
X24656750Y18043512D01*
X24734935Y18043512D01*
X24800000Y18070463D01*
X24865065Y18043512D01*
X24943250Y18043512D01*
X25050000Y18150262D01*
X25050000Y18320393D01*
X25077000Y18385576D01*
X25077000Y19736762D01*
X25223000Y19736762D01*
X25223000Y18385576D01*
X25250000Y18320393D01*
X25250000Y18150262D01*
X25356750Y18043512D01*
X25434935Y18043512D01*
X25500000Y18070463D01*
X25565065Y18043512D01*
X25643250Y18043512D01*
X25750000Y18150262D01*
X25750000Y18320393D01*
X25777000Y18385576D01*
X25777000Y19736762D01*
X25923000Y19736762D01*
X25923000Y18385576D01*
X25950000Y18320393D01*
X25950000Y18150262D01*
X26056750Y18043512D01*
X26134935Y18043512D01*
X26200000Y18070463D01*
X26265065Y18043512D01*
X26343250Y18043512D01*
X26450000Y18150262D01*
X26450000Y18320393D01*
X26477000Y18385576D01*
X26477000Y19736762D01*
X26623000Y19736762D01*
X26623000Y18385576D01*
X26650000Y18320393D01*
X26650000Y18150262D01*
X26756750Y18043512D01*
X26834935Y18043512D01*
X26900000Y18070463D01*
X26965065Y18043512D01*
X27043250Y18043512D01*
X27150000Y18150262D01*
X27150000Y18320393D01*
X27177000Y18385576D01*
X27177000Y19736762D01*
X27150000Y19763762D01*
X27150000Y19843512D01*
X26650000Y19843512D01*
X26650000Y19763762D01*
X26623000Y19736762D01*
X26477000Y19736762D01*
X26450000Y19763762D01*
X26450000Y19843512D01*
X25950000Y19843512D01*
X25950000Y19763762D01*
X25923000Y19736762D01*
X25777000Y19736762D01*
X25750000Y19763762D01*
X25750000Y19843512D01*
X25250000Y19843512D01*
X25250000Y19763762D01*
X25223000Y19736762D01*
X25077000Y19736762D01*
X25050000Y19763762D01*
X25050000Y19843512D01*
X24550000Y19843512D01*
X24550000Y19763762D01*
X24523000Y19736762D01*
X24350000Y19736762D01*
X24350000Y19843512D01*
X24303000Y19843512D01*
X24303000Y20097512D01*
X24350000Y20097512D01*
X24350000Y21555448D01*
X24523000Y21555448D01*
X24523000Y20204262D01*
X24550000Y20177262D01*
X24550000Y20097512D01*
X25050000Y20097512D01*
X25050000Y20177262D01*
X25077000Y20204262D01*
X25077000Y21555448D01*
X25223000Y21555448D01*
X25223000Y20204262D01*
X25250000Y20177262D01*
X25250000Y20097512D01*
X25750000Y20097512D01*
X25750000Y20177262D01*
X25777000Y20204262D01*
X25777000Y21555448D01*
X25923000Y21555448D01*
X25923000Y20204262D01*
X25950000Y20177262D01*
X25950000Y20097512D01*
X26450000Y20097512D01*
X26450000Y20177262D01*
X26477000Y20204262D01*
X26477000Y21555448D01*
X26623000Y21555448D01*
X26623000Y20204262D01*
X26650000Y20177262D01*
X26650000Y20097512D01*
X27150000Y20097512D01*
X27150000Y20177262D01*
X27177000Y20204262D01*
X27177000Y21555448D01*
X27150000Y21620631D01*
X27150000Y21790762D01*
X27043250Y21897512D01*
X26965065Y21897512D01*
X26900000Y21870561D01*
X26834935Y21897512D01*
X26756750Y21897512D01*
X26650000Y21790762D01*
X26650000Y21620631D01*
X26623000Y21555448D01*
X26477000Y21555448D01*
X26450000Y21620631D01*
X26450000Y21790762D01*
X26343250Y21897512D01*
X26265065Y21897512D01*
X26200000Y21870561D01*
X26134935Y21897512D01*
X26056750Y21897512D01*
X25950000Y21790762D01*
X25950000Y21620631D01*
X25923000Y21555448D01*
X25777000Y21555448D01*
X25750000Y21620631D01*
X25750000Y21790762D01*
X25643250Y21897512D01*
X25565065Y21897512D01*
X25500000Y21870561D01*
X25434935Y21897512D01*
X25356750Y21897512D01*
X25250000Y21790762D01*
X25250000Y21620631D01*
X25223000Y21555448D01*
X25077000Y21555448D01*
X25050000Y21620631D01*
X25050000Y21790762D01*
X24943250Y21897512D01*
X24865065Y21897512D01*
X24800000Y21870561D01*
X24734935Y21897512D01*
X24656750Y21897512D01*
X24550000Y21790762D01*
X24550000Y21620631D01*
X24523000Y21555448D01*
X24350000Y21555448D01*
X24350000Y21790762D01*
X24270650Y21870112D01*
X29825269Y27424731D01*
X29924985Y27573965D01*
X29960000Y27750000D01*
X29960000Y28518250D01*
X35123000Y28518250D01*
X35123000Y28415065D01*
X35188007Y28258124D01*
X35308124Y28138007D01*
X35465064Y28073000D01*
X35766250Y28073000D01*
X35873000Y28179750D01*
X35873000Y28625000D01*
X36127000Y28625000D01*
X36127000Y28179750D01*
X36233750Y28073000D01*
X36534936Y28073000D01*
X36691876Y28138007D01*
X36811993Y28258124D01*
X36877000Y28415065D01*
X36877000Y28518250D01*
X36770250Y28625000D01*
X36127000Y28625000D01*
X35873000Y28625000D01*
X35229750Y28625000D01*
X35123000Y28518250D01*
X29960000Y28518250D01*
X29960000Y28766250D01*
X38948000Y28766250D01*
X38948000Y28415065D01*
X39013007Y28258124D01*
X39133124Y28138007D01*
X39290064Y28073000D01*
X39766250Y28073000D01*
X39873000Y28179750D01*
X39873000Y28873000D01*
X39054750Y28873000D01*
X38948000Y28766250D01*
X29960000Y28766250D01*
X29960000Y39709462D01*
X29990538Y39740000D01*
X34849870Y39740000D01*
X34847878Y39729986D01*
G36*
X26643200Y2870400D02*
X26715200Y2870400D01*
X26715200Y2616400D01*
X26643200Y2616400D01*
X26643200Y2596400D01*
X26493200Y2596400D01*
X26493200Y2616400D01*
X26421200Y2616400D01*
X26421200Y2870400D01*
X26493200Y2870400D01*
X26493200Y2890400D01*
X26643200Y2890400D01*
X26643200Y2870400D01*
X26643200Y2870400D01*
G37*
X26643200Y2870400D02*
X26715200Y2870400D01*
X26715200Y2616400D01*
X26643200Y2616400D01*
X26643200Y2596400D01*
X26493200Y2596400D01*
X26493200Y2616400D01*
X26421200Y2616400D01*
X26421200Y2870400D01*
X26493200Y2870400D01*
X26493200Y2890400D01*
X26643200Y2890400D01*
X26643200Y2870400D01*
G36*
X22377200Y7175000D02*
X22397200Y7175000D01*
X22397200Y6921000D01*
X22377200Y6921000D01*
X22377200Y6901000D01*
X22123200Y6901000D01*
X22123200Y6921000D01*
X22103200Y6921000D01*
X22103200Y7175000D01*
X22123200Y7175000D01*
X22123200Y7195000D01*
X22377200Y7195000D01*
X22377200Y7175000D01*
X22377200Y7175000D01*
G37*
X22377200Y7175000D02*
X22397200Y7175000D01*
X22397200Y6921000D01*
X22377200Y6921000D01*
X22377200Y6901000D01*
X22123200Y6901000D01*
X22123200Y6921000D01*
X22103200Y6921000D01*
X22103200Y7175000D01*
X22123200Y7175000D01*
X22123200Y7195000D01*
X22377200Y7195000D01*
X22377200Y7175000D01*
G36*
X19764855Y12534637D02*
X19891708Y12227628D01*
X20126393Y11992534D01*
X20433179Y11865145D01*
X20765363Y11864855D01*
X21072372Y11991708D01*
X21307466Y12226393D01*
X21434855Y12533179D01*
X21434998Y12697400D01*
X23340064Y12697400D01*
X25795901Y10241563D01*
X25575000Y10241563D01*
X25471329Y10222056D01*
X25375000Y10241563D01*
X25125000Y10241563D01*
X25000856Y10218204D01*
X24886838Y10144835D01*
X24810347Y10032887D01*
X24783437Y9900000D01*
X24783437Y9316563D01*
X24508975Y9316563D01*
X23150269Y10675269D01*
X23001035Y10774985D01*
X22825000Y10810000D01*
X21512957Y10810000D01*
X21494835Y10838162D01*
X21382887Y10914653D01*
X21250000Y10941563D01*
X20450000Y10941563D01*
X20325856Y10918204D01*
X20241327Y10863811D01*
X18407738Y12697400D01*
X19764997Y12697400D01*
X19764855Y12534637D01*
X19764855Y12534637D01*
G37*
X19764855Y12534637D02*
X19891708Y12227628D01*
X20126393Y11992534D01*
X20433179Y11865145D01*
X20765363Y11864855D01*
X21072372Y11991708D01*
X21307466Y12226393D01*
X21434855Y12533179D01*
X21434998Y12697400D01*
X23340064Y12697400D01*
X25795901Y10241563D01*
X25575000Y10241563D01*
X25471329Y10222056D01*
X25375000Y10241563D01*
X25125000Y10241563D01*
X25000856Y10218204D01*
X24886838Y10144835D01*
X24810347Y10032887D01*
X24783437Y9900000D01*
X24783437Y9316563D01*
X24508975Y9316563D01*
X23150269Y10675269D01*
X23001035Y10774985D01*
X22825000Y10810000D01*
X21512957Y10810000D01*
X21494835Y10838162D01*
X21382887Y10914653D01*
X21250000Y10941563D01*
X20450000Y10941563D01*
X20325856Y10918204D01*
X20241327Y10863811D01*
X18407738Y12697400D01*
X19764997Y12697400D01*
X19764855Y12534637D01*
G36*
X6964342Y36691656D02*
X6837529Y36501869D01*
X6792999Y36277999D01*
X6792999Y34187439D01*
X6828931Y34006796D01*
X6837529Y33963569D01*
X6964342Y33773782D01*
X7573781Y33164342D01*
X7763569Y33037529D01*
X7987439Y32992999D01*
X11872999Y32992999D01*
X11872999Y23942001D01*
X11917529Y23718131D01*
X11946950Y23674100D01*
X10975034Y24646016D01*
X10975034Y26834966D01*
X10963882Y26891033D01*
X10940019Y27011001D01*
X10840303Y27160235D01*
X7325269Y30675269D01*
X7176035Y30774985D01*
X7078508Y30794384D01*
X7068204Y30849144D01*
X6994835Y30963162D01*
X6882887Y31039653D01*
X6750000Y31066563D01*
X5950000Y31066563D01*
X5825856Y31043204D01*
X5711838Y30969835D01*
X5635347Y30857887D01*
X5608437Y30725000D01*
X5608437Y30267101D01*
X5591563Y30283975D01*
X5591563Y30725000D01*
X5568204Y30849144D01*
X5494835Y30963162D01*
X5382887Y31039653D01*
X5250000Y31066563D01*
X4450000Y31066563D01*
X4325856Y31043204D01*
X4211838Y30969835D01*
X4135347Y30857887D01*
X4108437Y30725000D01*
X4108437Y29975000D01*
X4131796Y29850856D01*
X4205165Y29736838D01*
X4317113Y29660347D01*
X4450000Y29633437D01*
X4941025Y29633437D01*
X5209732Y29364730D01*
X5358967Y29265014D01*
X5535001Y29229999D01*
X6479149Y29229999D01*
X7199148Y28510000D01*
X6975569Y28510000D01*
X6968204Y28549144D01*
X6894835Y28663162D01*
X6782887Y28739653D01*
X6650000Y28766563D01*
X5850000Y28766563D01*
X5725856Y28743204D01*
X5611838Y28669835D01*
X5535347Y28557887D01*
X5508437Y28425000D01*
X5508437Y27967101D01*
X5491563Y27983975D01*
X5491563Y28425000D01*
X5468204Y28549144D01*
X5394835Y28663162D01*
X5282887Y28739653D01*
X5150000Y28766563D01*
X4350000Y28766563D01*
X4225856Y28743204D01*
X4111838Y28669835D01*
X4035347Y28557887D01*
X4008437Y28425000D01*
X4008437Y27675000D01*
X4031796Y27550856D01*
X4105165Y27436838D01*
X4217113Y27360347D01*
X4350000Y27333437D01*
X4841025Y27333437D01*
X5109732Y27064730D01*
X5258967Y26965014D01*
X5435001Y26929999D01*
X7421265Y26929999D01*
X8825001Y25526263D01*
X8825001Y23585511D01*
X8860016Y23409476D01*
X8959732Y23260242D01*
X10322998Y21896976D01*
X10322998Y21817764D01*
X10243250Y21897512D01*
X10165065Y21897512D01*
X10008124Y21832505D01*
X9888007Y21712388D01*
X9823000Y21555448D01*
X9823000Y20204262D01*
X9929750Y20097512D01*
X10350000Y20097512D01*
X10350000Y20117512D01*
X10550000Y20117512D01*
X10550000Y20097512D01*
X10597000Y20097512D01*
X10597000Y19843512D01*
X10550000Y19843512D01*
X10550000Y18150262D01*
X10656750Y18043512D01*
X10734935Y18043512D01*
X10891876Y18108519D01*
X10918654Y18135297D01*
X10950000Y18128949D01*
X11350000Y18128949D01*
X11474144Y18152308D01*
X11498949Y18168270D01*
X11517113Y18155859D01*
X11650000Y18128949D01*
X12050000Y18128949D01*
X12174144Y18152308D01*
X12198949Y18168270D01*
X12217113Y18155859D01*
X12350000Y18128949D01*
X12750000Y18128949D01*
X12874144Y18152308D01*
X12898949Y18168270D01*
X12917113Y18155859D01*
X13050000Y18128949D01*
X13281122Y18128949D01*
X12961006Y17808832D01*
X12840772Y17759152D01*
X12661987Y17580680D01*
X12611666Y17459492D01*
X12047175Y16895001D01*
X5160001Y16895001D01*
X4936131Y16850471D01*
X4746344Y16723659D01*
X2164249Y14141563D01*
X2150000Y14141563D01*
X2025856Y14118204D01*
X1911838Y14044835D01*
X1835347Y13932887D01*
X1808437Y13800000D01*
X1808437Y12900000D01*
X1815000Y12865120D01*
X1815000Y11367315D01*
X1539248Y11091563D01*
X600000Y11091563D01*
X510000Y11074629D01*
X510000Y14813522D01*
X2227343Y15155123D01*
X2375140Y15216342D01*
X4110802Y16376075D01*
X4110805Y16376076D01*
X4223924Y16489195D01*
X5383655Y18224857D01*
X5383658Y18224860D01*
X5426946Y18329368D01*
X5444877Y18372656D01*
X5444877Y18372658D01*
X5716214Y19736762D01*
X9823000Y19736762D01*
X9823000Y18385576D01*
X9888007Y18228636D01*
X10008124Y18108519D01*
X10165065Y18043512D01*
X10243250Y18043512D01*
X10350000Y18150262D01*
X10350000Y19843512D01*
X9929750Y19843512D01*
X9823000Y19736762D01*
X5716214Y19736762D01*
X5852122Y20420013D01*
X5852122Y20579987D01*
X5444877Y22627343D01*
X5383658Y22775140D01*
X5383655Y22775143D01*
X4223924Y24510805D01*
X4110805Y24623924D01*
X4110802Y24623925D01*
X2375140Y25783658D01*
X2227343Y25844877D01*
X510000Y26186478D01*
X510000Y35979221D01*
X539721Y35934741D01*
X1008911Y35465551D01*
X935347Y35357887D01*
X908437Y35225000D01*
X908437Y34475000D01*
X931796Y34350856D01*
X1005165Y34236838D01*
X1117113Y34160347D01*
X1250000Y34133437D01*
X1564249Y34133437D01*
X2136343Y33561342D01*
X2326130Y33434530D01*
X2550000Y33390000D01*
X3675000Y33390000D01*
X3898870Y33434530D01*
X4088657Y33561343D01*
X6013657Y35486342D01*
X6140470Y35676130D01*
X6155740Y35752900D01*
X6185000Y35900000D01*
X6185000Y36815000D01*
X7087686Y36815000D01*
X6964342Y36691656D01*
X6964342Y36691656D01*
G37*
X6964342Y36691656D02*
X6837529Y36501869D01*
X6792999Y36277999D01*
X6792999Y34187439D01*
X6828931Y34006796D01*
X6837529Y33963569D01*
X6964342Y33773782D01*
X7573781Y33164342D01*
X7763569Y33037529D01*
X7987439Y32992999D01*
X11872999Y32992999D01*
X11872999Y23942001D01*
X11917529Y23718131D01*
X11946950Y23674100D01*
X10975034Y24646016D01*
X10975034Y26834966D01*
X10963882Y26891033D01*
X10940019Y27011001D01*
X10840303Y27160235D01*
X7325269Y30675269D01*
X7176035Y30774985D01*
X7078508Y30794384D01*
X7068204Y30849144D01*
X6994835Y30963162D01*
X6882887Y31039653D01*
X6750000Y31066563D01*
X5950000Y31066563D01*
X5825856Y31043204D01*
X5711838Y30969835D01*
X5635347Y30857887D01*
X5608437Y30725000D01*
X5608437Y30267101D01*
X5591563Y30283975D01*
X5591563Y30725000D01*
X5568204Y30849144D01*
X5494835Y30963162D01*
X5382887Y31039653D01*
X5250000Y31066563D01*
X4450000Y31066563D01*
X4325856Y31043204D01*
X4211838Y30969835D01*
X4135347Y30857887D01*
X4108437Y30725000D01*
X4108437Y29975000D01*
X4131796Y29850856D01*
X4205165Y29736838D01*
X4317113Y29660347D01*
X4450000Y29633437D01*
X4941025Y29633437D01*
X5209732Y29364730D01*
X5358967Y29265014D01*
X5535001Y29229999D01*
X6479149Y29229999D01*
X7199148Y28510000D01*
X6975569Y28510000D01*
X6968204Y28549144D01*
X6894835Y28663162D01*
X6782887Y28739653D01*
X6650000Y28766563D01*
X5850000Y28766563D01*
X5725856Y28743204D01*
X5611838Y28669835D01*
X5535347Y28557887D01*
X5508437Y28425000D01*
X5508437Y27967101D01*
X5491563Y27983975D01*
X5491563Y28425000D01*
X5468204Y28549144D01*
X5394835Y28663162D01*
X5282887Y28739653D01*
X5150000Y28766563D01*
X4350000Y28766563D01*
X4225856Y28743204D01*
X4111838Y28669835D01*
X4035347Y28557887D01*
X4008437Y28425000D01*
X4008437Y27675000D01*
X4031796Y27550856D01*
X4105165Y27436838D01*
X4217113Y27360347D01*
X4350000Y27333437D01*
X4841025Y27333437D01*
X5109732Y27064730D01*
X5258967Y26965014D01*
X5435001Y26929999D01*
X7421265Y26929999D01*
X8825001Y25526263D01*
X8825001Y23585511D01*
X8860016Y23409476D01*
X8959732Y23260242D01*
X10322998Y21896976D01*
X10322998Y21817764D01*
X10243250Y21897512D01*
X10165065Y21897512D01*
X10008124Y21832505D01*
X9888007Y21712388D01*
X9823000Y21555448D01*
X9823000Y20204262D01*
X9929750Y20097512D01*
X10350000Y20097512D01*
X10350000Y20117512D01*
X10550000Y20117512D01*
X10550000Y20097512D01*
X10597000Y20097512D01*
X10597000Y19843512D01*
X10550000Y19843512D01*
X10550000Y18150262D01*
X10656750Y18043512D01*
X10734935Y18043512D01*
X10891876Y18108519D01*
X10918654Y18135297D01*
X10950000Y18128949D01*
X11350000Y18128949D01*
X11474144Y18152308D01*
X11498949Y18168270D01*
X11517113Y18155859D01*
X11650000Y18128949D01*
X12050000Y18128949D01*
X12174144Y18152308D01*
X12198949Y18168270D01*
X12217113Y18155859D01*
X12350000Y18128949D01*
X12750000Y18128949D01*
X12874144Y18152308D01*
X12898949Y18168270D01*
X12917113Y18155859D01*
X13050000Y18128949D01*
X13281122Y18128949D01*
X12961006Y17808832D01*
X12840772Y17759152D01*
X12661987Y17580680D01*
X12611666Y17459492D01*
X12047175Y16895001D01*
X5160001Y16895001D01*
X4936131Y16850471D01*
X4746344Y16723659D01*
X2164249Y14141563D01*
X2150000Y14141563D01*
X2025856Y14118204D01*
X1911838Y14044835D01*
X1835347Y13932887D01*
X1808437Y13800000D01*
X1808437Y12900000D01*
X1815000Y12865120D01*
X1815000Y11367315D01*
X1539248Y11091563D01*
X600000Y11091563D01*
X510000Y11074629D01*
X510000Y14813522D01*
X2227343Y15155123D01*
X2375140Y15216342D01*
X4110802Y16376075D01*
X4110805Y16376076D01*
X4223924Y16489195D01*
X5383655Y18224857D01*
X5383658Y18224860D01*
X5426946Y18329368D01*
X5444877Y18372656D01*
X5444877Y18372658D01*
X5716214Y19736762D01*
X9823000Y19736762D01*
X9823000Y18385576D01*
X9888007Y18228636D01*
X10008124Y18108519D01*
X10165065Y18043512D01*
X10243250Y18043512D01*
X10350000Y18150262D01*
X10350000Y19843512D01*
X9929750Y19843512D01*
X9823000Y19736762D01*
X5716214Y19736762D01*
X5852122Y20420013D01*
X5852122Y20579987D01*
X5444877Y22627343D01*
X5383658Y22775140D01*
X5383655Y22775143D01*
X4223924Y24510805D01*
X4110805Y24623924D01*
X4110802Y24623925D01*
X2375140Y25783658D01*
X2227343Y25844877D01*
X510000Y26186478D01*
X510000Y35979221D01*
X539721Y35934741D01*
X1008911Y35465551D01*
X935347Y35357887D01*
X908437Y35225000D01*
X908437Y34475000D01*
X931796Y34350856D01*
X1005165Y34236838D01*
X1117113Y34160347D01*
X1250000Y34133437D01*
X1564249Y34133437D01*
X2136343Y33561342D01*
X2326130Y33434530D01*
X2550000Y33390000D01*
X3675000Y33390000D01*
X3898870Y33434530D01*
X4088657Y33561343D01*
X6013657Y35486342D01*
X6140470Y35676130D01*
X6155740Y35752900D01*
X6185000Y35900000D01*
X6185000Y36815000D01*
X7087686Y36815000D01*
X6964342Y36691656D01*
G36*
X21796551Y35646714D02*
X21890000Y35607910D01*
X21890000Y21897512D01*
X21856750Y21897512D01*
X21750000Y21790762D01*
X21750000Y20097512D01*
X21797000Y20097512D01*
X21797000Y19843512D01*
X21750000Y19843512D01*
X21750000Y19823512D01*
X21550000Y19823512D01*
X21550000Y19843512D01*
X21050000Y19843512D01*
X21050000Y19823512D01*
X20850000Y19823512D01*
X20850000Y19843512D01*
X20350000Y19843512D01*
X20350000Y19763762D01*
X20323000Y19736762D01*
X20323000Y18385576D01*
X20350000Y18320393D01*
X20350000Y18150262D01*
X20456750Y18043512D01*
X20534935Y18043512D01*
X20597653Y18069491D01*
X20597508Y17902849D01*
X20678785Y17706143D01*
X20829151Y17555514D01*
X21010758Y17480104D01*
X22806200Y15684662D01*
X22806200Y14765480D01*
X22731293Y14585085D01*
X22731108Y14372249D01*
X22812385Y14175543D01*
X22962751Y14024914D01*
X23159315Y13943293D01*
X23291202Y13943178D01*
X23291202Y13617400D01*
X22306993Y13617400D01*
X22376583Y13784991D01*
X22376768Y13997827D01*
X22299817Y14184063D01*
X22294449Y14211053D01*
X22266661Y14350753D01*
X22166945Y14499987D01*
X21685663Y14981269D01*
X21536429Y15080985D01*
X21395528Y15109012D01*
X21428233Y15122525D01*
X21578862Y15272891D01*
X21660483Y15469455D01*
X21660668Y15682291D01*
X21579391Y15878997D01*
X21429025Y16029626D01*
X21247418Y16105036D01*
X20010000Y17342454D01*
X20010000Y18043512D01*
X20043250Y18043512D01*
X20150000Y18150262D01*
X20150000Y19843512D01*
X20103000Y19843512D01*
X20103000Y20097512D01*
X20150000Y20097512D01*
X20150000Y21555448D01*
X20323000Y21555448D01*
X20323000Y20204262D01*
X20350000Y20177262D01*
X20350000Y20097512D01*
X20850000Y20097512D01*
X20850000Y20177262D01*
X20877000Y20204262D01*
X20877000Y21555448D01*
X21023000Y21555448D01*
X21023000Y20204262D01*
X21050000Y20177262D01*
X21050000Y20097512D01*
X21550000Y20097512D01*
X21550000Y20177262D01*
X21577000Y20204262D01*
X21577000Y21555448D01*
X21550000Y21620631D01*
X21550000Y21790762D01*
X21443250Y21897512D01*
X21365065Y21897512D01*
X21300000Y21870561D01*
X21234935Y21897512D01*
X21156750Y21897512D01*
X21050000Y21790762D01*
X21050000Y21620631D01*
X21023000Y21555448D01*
X20877000Y21555448D01*
X20850000Y21620631D01*
X20850000Y21790762D01*
X20743250Y21897512D01*
X20665065Y21897512D01*
X20600000Y21870561D01*
X20534935Y21897512D01*
X20456750Y21897512D01*
X20350000Y21790762D01*
X20350000Y21620631D01*
X20323000Y21555448D01*
X20150000Y21555448D01*
X20150000Y21790762D01*
X20043250Y21897512D01*
X19974340Y21897512D01*
X19924989Y21971371D01*
X19924989Y33974451D01*
X21696989Y35746451D01*
X21796551Y35646714D01*
X21796551Y35646714D01*
G37*
X21796551Y35646714D02*
X21890000Y35607910D01*
X21890000Y21897512D01*
X21856750Y21897512D01*
X21750000Y21790762D01*
X21750000Y20097512D01*
X21797000Y20097512D01*
X21797000Y19843512D01*
X21750000Y19843512D01*
X21750000Y19823512D01*
X21550000Y19823512D01*
X21550000Y19843512D01*
X21050000Y19843512D01*
X21050000Y19823512D01*
X20850000Y19823512D01*
X20850000Y19843512D01*
X20350000Y19843512D01*
X20350000Y19763762D01*
X20323000Y19736762D01*
X20323000Y18385576D01*
X20350000Y18320393D01*
X20350000Y18150262D01*
X20456750Y18043512D01*
X20534935Y18043512D01*
X20597653Y18069491D01*
X20597508Y17902849D01*
X20678785Y17706143D01*
X20829151Y17555514D01*
X21010758Y17480104D01*
X22806200Y15684662D01*
X22806200Y14765480D01*
X22731293Y14585085D01*
X22731108Y14372249D01*
X22812385Y14175543D01*
X22962751Y14024914D01*
X23159315Y13943293D01*
X23291202Y13943178D01*
X23291202Y13617400D01*
X22306993Y13617400D01*
X22376583Y13784991D01*
X22376768Y13997827D01*
X22299817Y14184063D01*
X22294449Y14211053D01*
X22266661Y14350753D01*
X22166945Y14499987D01*
X21685663Y14981269D01*
X21536429Y15080985D01*
X21395528Y15109012D01*
X21428233Y15122525D01*
X21578862Y15272891D01*
X21660483Y15469455D01*
X21660668Y15682291D01*
X21579391Y15878997D01*
X21429025Y16029626D01*
X21247418Y16105036D01*
X20010000Y17342454D01*
X20010000Y18043512D01*
X20043250Y18043512D01*
X20150000Y18150262D01*
X20150000Y19843512D01*
X20103000Y19843512D01*
X20103000Y20097512D01*
X20150000Y20097512D01*
X20150000Y21555448D01*
X20323000Y21555448D01*
X20323000Y20204262D01*
X20350000Y20177262D01*
X20350000Y20097512D01*
X20850000Y20097512D01*
X20850000Y20177262D01*
X20877000Y20204262D01*
X20877000Y21555448D01*
X21023000Y21555448D01*
X21023000Y20204262D01*
X21050000Y20177262D01*
X21050000Y20097512D01*
X21550000Y20097512D01*
X21550000Y20177262D01*
X21577000Y20204262D01*
X21577000Y21555448D01*
X21550000Y21620631D01*
X21550000Y21790762D01*
X21443250Y21897512D01*
X21365065Y21897512D01*
X21300000Y21870561D01*
X21234935Y21897512D01*
X21156750Y21897512D01*
X21050000Y21790762D01*
X21050000Y21620631D01*
X21023000Y21555448D01*
X20877000Y21555448D01*
X20850000Y21620631D01*
X20850000Y21790762D01*
X20743250Y21897512D01*
X20665065Y21897512D01*
X20600000Y21870561D01*
X20534935Y21897512D01*
X20456750Y21897512D01*
X20350000Y21790762D01*
X20350000Y21620631D01*
X20323000Y21555448D01*
X20150000Y21555448D01*
X20150000Y21790762D01*
X20043250Y21897512D01*
X19974340Y21897512D01*
X19924989Y21971371D01*
X19924989Y33974451D01*
X21696989Y35746451D01*
X21796551Y35646714D01*
G36*
X19139720Y34490258D02*
X19040004Y34341024D01*
X19018915Y34234999D01*
X19004989Y34164989D01*
X19004989Y21845751D01*
X18950000Y21790762D01*
X18950000Y20097512D01*
X18997000Y20097512D01*
X18997000Y19843512D01*
X18950000Y19843512D01*
X18950000Y18150262D01*
X19056750Y18043512D01*
X19090000Y18043512D01*
X19090000Y17151916D01*
X19125015Y16975881D01*
X19224731Y16826647D01*
X20597170Y15454208D01*
X20671761Y15273683D01*
X20822127Y15123054D01*
X20841616Y15114961D01*
X20670804Y15080985D01*
X20652552Y15068789D01*
X20642676Y15092690D01*
X20492310Y15243319D01*
X20295746Y15324940D01*
X20082910Y15325125D01*
X19901173Y15250033D01*
X18115705Y15250033D01*
X16530206Y16835532D01*
X16455615Y17016057D01*
X16305249Y17166686D01*
X16108685Y17248307D01*
X15895849Y17248492D01*
X15699143Y17167215D01*
X15548514Y17016849D01*
X15466893Y16820285D01*
X15466708Y16607449D01*
X15547985Y16410743D01*
X15698351Y16260114D01*
X15879958Y16184704D01*
X17299639Y14765023D01*
X14333515Y14765023D01*
X14320406Y14778132D01*
X14245815Y14958657D01*
X14095449Y15109286D01*
X13898885Y15190907D01*
X13686049Y15191092D01*
X13489343Y15109815D01*
X13338714Y14959449D01*
X13257093Y14762885D01*
X13256908Y14550049D01*
X13279627Y14495066D01*
X13226442Y14517150D01*
X13013606Y14517335D01*
X12816900Y14436058D01*
X12666271Y14285692D01*
X12584650Y14089128D01*
X12584465Y13876292D01*
X12624094Y13780383D01*
X12475198Y13810000D01*
X4489681Y13810000D01*
X4468204Y13924144D01*
X4394835Y14038162D01*
X4282887Y14114653D01*
X4150000Y14141563D01*
X3818877Y14141563D01*
X5402316Y15725001D01*
X12289489Y15725001D01*
X12513359Y15769531D01*
X12703146Y15896344D01*
X13438994Y16632192D01*
X13559228Y16681872D01*
X13738013Y16860344D01*
X13788334Y16981532D01*
X14363657Y17556854D01*
X14490470Y17746642D01*
X14500333Y17796227D01*
X14535000Y17970512D01*
X14535000Y18128949D01*
X14850000Y18128949D01*
X14881725Y18134918D01*
X14908124Y18108519D01*
X15065065Y18043512D01*
X15143250Y18043512D01*
X15250000Y18150262D01*
X15250000Y19843512D01*
X15203000Y19843512D01*
X15203000Y20097512D01*
X15250000Y20097512D01*
X15250000Y20117512D01*
X15450000Y20117512D01*
X15450000Y20097512D01*
X15465000Y20097512D01*
X15465000Y19970512D01*
X15490262Y19843512D01*
X15450000Y19843512D01*
X15450000Y18150262D01*
X15556750Y18043512D01*
X15634935Y18043512D01*
X15791876Y18108519D01*
X15818654Y18135297D01*
X15850000Y18128949D01*
X16250000Y18128949D01*
X16281725Y18134918D01*
X16308124Y18108519D01*
X16465065Y18043512D01*
X16543250Y18043512D01*
X16650000Y18150262D01*
X16650000Y19843512D01*
X16609738Y19843512D01*
X16635000Y19970512D01*
X16635000Y20097512D01*
X16650000Y20097512D01*
X16650000Y20117512D01*
X16850000Y20117512D01*
X16850000Y20097512D01*
X16865000Y20097512D01*
X16865000Y19970512D01*
X16890262Y19843512D01*
X16850000Y19843512D01*
X16850000Y18150262D01*
X16956750Y18043512D01*
X17034935Y18043512D01*
X17191876Y18108519D01*
X17218654Y18135297D01*
X17250000Y18128949D01*
X17650000Y18128949D01*
X17681725Y18134918D01*
X17708124Y18108519D01*
X17865065Y18043512D01*
X17943250Y18043512D01*
X18050000Y18150262D01*
X18050000Y19736762D01*
X18223000Y19736762D01*
X18223000Y18385576D01*
X18250000Y18320393D01*
X18250000Y18150262D01*
X18356750Y18043512D01*
X18434935Y18043512D01*
X18500000Y18070463D01*
X18565065Y18043512D01*
X18643250Y18043512D01*
X18750000Y18150262D01*
X18750000Y18320393D01*
X18777000Y18385576D01*
X18777000Y19736762D01*
X18750000Y19763762D01*
X18750000Y19843512D01*
X18250000Y19843512D01*
X18250000Y19763762D01*
X18223000Y19736762D01*
X18050000Y19736762D01*
X18050000Y19843512D01*
X18009738Y19843512D01*
X18035000Y19970512D01*
X18035000Y20097512D01*
X18050000Y20097512D01*
X18050000Y21555448D01*
X18223000Y21555448D01*
X18223000Y20204262D01*
X18250000Y20177262D01*
X18250000Y20097512D01*
X18750000Y20097512D01*
X18750000Y20177262D01*
X18777000Y20204262D01*
X18777000Y21555448D01*
X18750000Y21620631D01*
X18750000Y21790762D01*
X18643250Y21897512D01*
X18565065Y21897512D01*
X18500000Y21870561D01*
X18434935Y21897512D01*
X18356750Y21897512D01*
X18250000Y21790762D01*
X18250000Y21620631D01*
X18223000Y21555448D01*
X18050000Y21555448D01*
X18050000Y21790762D01*
X18035000Y21805762D01*
X18035000Y21970512D01*
X17990470Y22194382D01*
X17863657Y22384169D01*
X17634169Y22613657D01*
X17444382Y22740470D01*
X17220512Y22785000D01*
X14442315Y22785000D01*
X13042999Y24184315D01*
X13042999Y33335685D01*
X13375272Y33667958D01*
X13410836Y33653190D01*
X13847250Y33652810D01*
X14250589Y33819466D01*
X14559449Y34127788D01*
X14726810Y34530836D01*
X14727190Y34967250D01*
X14703032Y35025717D01*
X16085752Y36408437D01*
X16375000Y36408437D01*
X16499144Y36431796D01*
X16613162Y36505165D01*
X16654046Y36565000D01*
X17695956Y36565000D01*
X17730165Y36511838D01*
X17842113Y36435347D01*
X17975000Y36408437D01*
X18725000Y36408437D01*
X18849144Y36431796D01*
X18963162Y36505165D01*
X19004046Y36565000D01*
X21150000Y36565000D01*
X21230468Y36581006D01*
X19139720Y34490258D01*
X19139720Y34490258D01*
G37*
X19139720Y34490258D02*
X19040004Y34341024D01*
X19018915Y34234999D01*
X19004989Y34164989D01*
X19004989Y21845751D01*
X18950000Y21790762D01*
X18950000Y20097512D01*
X18997000Y20097512D01*
X18997000Y19843512D01*
X18950000Y19843512D01*
X18950000Y18150262D01*
X19056750Y18043512D01*
X19090000Y18043512D01*
X19090000Y17151916D01*
X19125015Y16975881D01*
X19224731Y16826647D01*
X20597170Y15454208D01*
X20671761Y15273683D01*
X20822127Y15123054D01*
X20841616Y15114961D01*
X20670804Y15080985D01*
X20652552Y15068789D01*
X20642676Y15092690D01*
X20492310Y15243319D01*
X20295746Y15324940D01*
X20082910Y15325125D01*
X19901173Y15250033D01*
X18115705Y15250033D01*
X16530206Y16835532D01*
X16455615Y17016057D01*
X16305249Y17166686D01*
X16108685Y17248307D01*
X15895849Y17248492D01*
X15699143Y17167215D01*
X15548514Y17016849D01*
X15466893Y16820285D01*
X15466708Y16607449D01*
X15547985Y16410743D01*
X15698351Y16260114D01*
X15879958Y16184704D01*
X17299639Y14765023D01*
X14333515Y14765023D01*
X14320406Y14778132D01*
X14245815Y14958657D01*
X14095449Y15109286D01*
X13898885Y15190907D01*
X13686049Y15191092D01*
X13489343Y15109815D01*
X13338714Y14959449D01*
X13257093Y14762885D01*
X13256908Y14550049D01*
X13279627Y14495066D01*
X13226442Y14517150D01*
X13013606Y14517335D01*
X12816900Y14436058D01*
X12666271Y14285692D01*
X12584650Y14089128D01*
X12584465Y13876292D01*
X12624094Y13780383D01*
X12475198Y13810000D01*
X4489681Y13810000D01*
X4468204Y13924144D01*
X4394835Y14038162D01*
X4282887Y14114653D01*
X4150000Y14141563D01*
X3818877Y14141563D01*
X5402316Y15725001D01*
X12289489Y15725001D01*
X12513359Y15769531D01*
X12703146Y15896344D01*
X13438994Y16632192D01*
X13559228Y16681872D01*
X13738013Y16860344D01*
X13788334Y16981532D01*
X14363657Y17556854D01*
X14490470Y17746642D01*
X14500333Y17796227D01*
X14535000Y17970512D01*
X14535000Y18128949D01*
X14850000Y18128949D01*
X14881725Y18134918D01*
X14908124Y18108519D01*
X15065065Y18043512D01*
X15143250Y18043512D01*
X15250000Y18150262D01*
X15250000Y19843512D01*
X15203000Y19843512D01*
X15203000Y20097512D01*
X15250000Y20097512D01*
X15250000Y20117512D01*
X15450000Y20117512D01*
X15450000Y20097512D01*
X15465000Y20097512D01*
X15465000Y19970512D01*
X15490262Y19843512D01*
X15450000Y19843512D01*
X15450000Y18150262D01*
X15556750Y18043512D01*
X15634935Y18043512D01*
X15791876Y18108519D01*
X15818654Y18135297D01*
X15850000Y18128949D01*
X16250000Y18128949D01*
X16281725Y18134918D01*
X16308124Y18108519D01*
X16465065Y18043512D01*
X16543250Y18043512D01*
X16650000Y18150262D01*
X16650000Y19843512D01*
X16609738Y19843512D01*
X16635000Y19970512D01*
X16635000Y20097512D01*
X16650000Y20097512D01*
X16650000Y20117512D01*
X16850000Y20117512D01*
X16850000Y20097512D01*
X16865000Y20097512D01*
X16865000Y19970512D01*
X16890262Y19843512D01*
X16850000Y19843512D01*
X16850000Y18150262D01*
X16956750Y18043512D01*
X17034935Y18043512D01*
X17191876Y18108519D01*
X17218654Y18135297D01*
X17250000Y18128949D01*
X17650000Y18128949D01*
X17681725Y18134918D01*
X17708124Y18108519D01*
X17865065Y18043512D01*
X17943250Y18043512D01*
X18050000Y18150262D01*
X18050000Y19736762D01*
X18223000Y19736762D01*
X18223000Y18385576D01*
X18250000Y18320393D01*
X18250000Y18150262D01*
X18356750Y18043512D01*
X18434935Y18043512D01*
X18500000Y18070463D01*
X18565065Y18043512D01*
X18643250Y18043512D01*
X18750000Y18150262D01*
X18750000Y18320393D01*
X18777000Y18385576D01*
X18777000Y19736762D01*
X18750000Y19763762D01*
X18750000Y19843512D01*
X18250000Y19843512D01*
X18250000Y19763762D01*
X18223000Y19736762D01*
X18050000Y19736762D01*
X18050000Y19843512D01*
X18009738Y19843512D01*
X18035000Y19970512D01*
X18035000Y20097512D01*
X18050000Y20097512D01*
X18050000Y21555448D01*
X18223000Y21555448D01*
X18223000Y20204262D01*
X18250000Y20177262D01*
X18250000Y20097512D01*
X18750000Y20097512D01*
X18750000Y20177262D01*
X18777000Y20204262D01*
X18777000Y21555448D01*
X18750000Y21620631D01*
X18750000Y21790762D01*
X18643250Y21897512D01*
X18565065Y21897512D01*
X18500000Y21870561D01*
X18434935Y21897512D01*
X18356750Y21897512D01*
X18250000Y21790762D01*
X18250000Y21620631D01*
X18223000Y21555448D01*
X18050000Y21555448D01*
X18050000Y21790762D01*
X18035000Y21805762D01*
X18035000Y21970512D01*
X17990470Y22194382D01*
X17863657Y22384169D01*
X17634169Y22613657D01*
X17444382Y22740470D01*
X17220512Y22785000D01*
X14442315Y22785000D01*
X13042999Y24184315D01*
X13042999Y33335685D01*
X13375272Y33667958D01*
X13410836Y33653190D01*
X13847250Y33652810D01*
X14250589Y33819466D01*
X14559449Y34127788D01*
X14726810Y34530836D01*
X14727190Y34967250D01*
X14703032Y35025717D01*
X16085752Y36408437D01*
X16375000Y36408437D01*
X16499144Y36431796D01*
X16613162Y36505165D01*
X16654046Y36565000D01*
X17695956Y36565000D01*
X17730165Y36511838D01*
X17842113Y36435347D01*
X17975000Y36408437D01*
X18725000Y36408437D01*
X18849144Y36431796D01*
X18963162Y36505165D01*
X19004046Y36565000D01*
X21150000Y36565000D01*
X21230468Y36581006D01*
X19139720Y34490258D01*
G36*
X25666525Y33297704D02*
X25735915Y33077000D01*
X26923000Y33077000D01*
X26923000Y33097000D01*
X27177000Y33097000D01*
X27177000Y33077000D01*
X27197000Y33077000D01*
X27197000Y32823000D01*
X27177000Y32823000D01*
X27177000Y32803000D01*
X26923000Y32803000D01*
X26923000Y32823000D01*
X25735915Y32823000D01*
X25666525Y32602296D01*
X25904896Y32099330D01*
X26289771Y31751053D01*
X26050510Y31751053D01*
X25926366Y31727694D01*
X25812348Y31654325D01*
X25735857Y31542377D01*
X25708947Y31409490D01*
X25708947Y29410510D01*
X25732306Y29286366D01*
X25805675Y29172348D01*
X25917623Y29095857D01*
X26050510Y29068947D01*
X28049490Y29068947D01*
X28173634Y29092306D01*
X28287652Y29165675D01*
X28364143Y29277623D01*
X28391053Y29410510D01*
X28391053Y31377690D01*
X28873148Y31859785D01*
X28999961Y32049573D01*
X29006011Y32079987D01*
X29040000Y32250865D01*
X29040000Y27940538D01*
X23559462Y22460000D01*
X23329488Y22460000D01*
X23153453Y22424985D01*
X23004219Y22325269D01*
X22810000Y22131050D01*
X22810000Y23474288D01*
X22937351Y23346714D01*
X23133915Y23265093D01*
X23346751Y23264908D01*
X23543457Y23346185D01*
X23694086Y23496551D01*
X23775707Y23693115D01*
X23775892Y23905951D01*
X23700800Y24087688D01*
X23700800Y31490262D01*
X25809121Y33598583D01*
X25666525Y33297704D01*
X25666525Y33297704D01*
G37*
X25666525Y33297704D02*
X25735915Y33077000D01*
X26923000Y33077000D01*
X26923000Y33097000D01*
X27177000Y33097000D01*
X27177000Y33077000D01*
X27197000Y33077000D01*
X27197000Y32823000D01*
X27177000Y32823000D01*
X27177000Y32803000D01*
X26923000Y32803000D01*
X26923000Y32823000D01*
X25735915Y32823000D01*
X25666525Y32602296D01*
X25904896Y32099330D01*
X26289771Y31751053D01*
X26050510Y31751053D01*
X25926366Y31727694D01*
X25812348Y31654325D01*
X25735857Y31542377D01*
X25708947Y31409490D01*
X25708947Y29410510D01*
X25732306Y29286366D01*
X25805675Y29172348D01*
X25917623Y29095857D01*
X26050510Y29068947D01*
X28049490Y29068947D01*
X28173634Y29092306D01*
X28287652Y29165675D01*
X28364143Y29277623D01*
X28391053Y29410510D01*
X28391053Y31377690D01*
X28873148Y31859785D01*
X28999961Y32049573D01*
X29006011Y32079987D01*
X29040000Y32250865D01*
X29040000Y27940538D01*
X23559462Y22460000D01*
X23329488Y22460000D01*
X23153453Y22424985D01*
X23004219Y22325269D01*
X22810000Y22131050D01*
X22810000Y23474288D01*
X22937351Y23346714D01*
X23133915Y23265093D01*
X23346751Y23264908D01*
X23543457Y23346185D01*
X23694086Y23496551D01*
X23775707Y23693115D01*
X23775892Y23905951D01*
X23700800Y24087688D01*
X23700800Y31490262D01*
X25809121Y33598583D01*
X25666525Y33297704D01*
G36*
X26528234Y36741649D02*
X26106373Y36459771D01*
X25817092Y36026831D01*
X25715510Y35516144D01*
X25715510Y35463856D01*
X25817092Y34953169D01*
X25835332Y34925870D01*
X22915531Y32006069D01*
X22815815Y31856835D01*
X22813548Y31845438D01*
X22810000Y31827600D01*
X22810000Y35850000D01*
X22774985Y36026034D01*
X22675269Y36175269D01*
X22628406Y36222132D01*
X22553815Y36402657D01*
X22453593Y36503055D01*
X22508975Y36558437D01*
X23100000Y36558437D01*
X23224144Y36581796D01*
X23338162Y36655165D01*
X23414653Y36767113D01*
X23441563Y36900000D01*
X23441563Y37312000D01*
X23450990Y37312000D01*
X23571137Y37262111D01*
X23823755Y37261890D01*
X24057228Y37358360D01*
X24236013Y37536832D01*
X24332889Y37770137D01*
X24333110Y38022755D01*
X24236640Y38256228D01*
X24058168Y38435013D01*
X23824863Y38531889D01*
X23572245Y38532110D01*
X23450971Y38482000D01*
X23441563Y38482000D01*
X23441563Y38730385D01*
X24539499Y38730385D01*
X26528234Y36741649D01*
X26528234Y36741649D01*
G37*
X26528234Y36741649D02*
X26106373Y36459771D01*
X25817092Y36026831D01*
X25715510Y35516144D01*
X25715510Y35463856D01*
X25817092Y34953169D01*
X25835332Y34925870D01*
X22915531Y32006069D01*
X22815815Y31856835D01*
X22813548Y31845438D01*
X22810000Y31827600D01*
X22810000Y35850000D01*
X22774985Y36026034D01*
X22675269Y36175269D01*
X22628406Y36222132D01*
X22553815Y36402657D01*
X22453593Y36503055D01*
X22508975Y36558437D01*
X23100000Y36558437D01*
X23224144Y36581796D01*
X23338162Y36655165D01*
X23414653Y36767113D01*
X23441563Y36900000D01*
X23441563Y37312000D01*
X23450990Y37312000D01*
X23571137Y37262111D01*
X23823755Y37261890D01*
X24057228Y37358360D01*
X24236013Y37536832D01*
X24332889Y37770137D01*
X24333110Y38022755D01*
X24236640Y38256228D01*
X24058168Y38435013D01*
X23824863Y38531889D01*
X23572245Y38532110D01*
X23450971Y38482000D01*
X23441563Y38482000D01*
X23441563Y38730385D01*
X24539499Y38730385D01*
X26528234Y36741649D01*
G36*
X11933124Y37888007D02*
X12023473Y37850583D01*
X11936838Y37794835D01*
X11860347Y37682887D01*
X11833437Y37550000D01*
X11833437Y36750000D01*
X11856796Y36625856D01*
X11930165Y36511838D01*
X11965000Y36488036D01*
X11965000Y35830000D01*
X12005560Y35626087D01*
X12009530Y35606130D01*
X12136343Y35416343D01*
X12547958Y35004728D01*
X12533190Y34969164D01*
X12532810Y34532750D01*
X12548197Y34495511D01*
X12215685Y34162999D01*
X12146429Y34162999D01*
X12291959Y34592043D01*
X12260913Y35064037D01*
X12140018Y35355903D01*
X11956365Y35436760D01*
X11269605Y34750000D01*
X11283748Y34735857D01*
X11104143Y34556252D01*
X11090000Y34570395D01*
X11075858Y34556252D01*
X10896253Y34735857D01*
X10910395Y34750000D01*
X10223635Y35436760D01*
X10039982Y35355903D01*
X9888041Y34907957D01*
X9919087Y34435963D01*
X10032153Y34162999D01*
X9494070Y34162999D01*
X9646810Y34530836D01*
X9647190Y34967250D01*
X9480534Y35370589D01*
X9339342Y35512028D01*
X9443679Y35616365D01*
X10403240Y35616365D01*
X11090000Y34929605D01*
X11776760Y35616365D01*
X11695903Y35800018D01*
X11247957Y35951959D01*
X10775963Y35920913D01*
X10484097Y35800018D01*
X10403240Y35616365D01*
X9443679Y35616365D01*
X10185752Y36358437D01*
X10825000Y36358437D01*
X10949144Y36381796D01*
X11063162Y36455165D01*
X11139653Y36567113D01*
X11166563Y36700000D01*
X11166563Y37214249D01*
X11738658Y37786343D01*
X11857271Y37963860D01*
X11933124Y37888007D01*
X11933124Y37888007D01*
G37*
X11933124Y37888007D02*
X12023473Y37850583D01*
X11936838Y37794835D01*
X11860347Y37682887D01*
X11833437Y37550000D01*
X11833437Y36750000D01*
X11856796Y36625856D01*
X11930165Y36511838D01*
X11965000Y36488036D01*
X11965000Y35830000D01*
X12005560Y35626087D01*
X12009530Y35606130D01*
X12136343Y35416343D01*
X12547958Y35004728D01*
X12533190Y34969164D01*
X12532810Y34532750D01*
X12548197Y34495511D01*
X12215685Y34162999D01*
X12146429Y34162999D01*
X12291959Y34592043D01*
X12260913Y35064037D01*
X12140018Y35355903D01*
X11956365Y35436760D01*
X11269605Y34750000D01*
X11283748Y34735857D01*
X11104143Y34556252D01*
X11090000Y34570395D01*
X11075858Y34556252D01*
X10896253Y34735857D01*
X10910395Y34750000D01*
X10223635Y35436760D01*
X10039982Y35355903D01*
X9888041Y34907957D01*
X9919087Y34435963D01*
X10032153Y34162999D01*
X9494070Y34162999D01*
X9646810Y34530836D01*
X9647190Y34967250D01*
X9480534Y35370589D01*
X9339342Y35512028D01*
X9443679Y35616365D01*
X10403240Y35616365D01*
X11090000Y34929605D01*
X11776760Y35616365D01*
X11695903Y35800018D01*
X11247957Y35951959D01*
X10775963Y35920913D01*
X10484097Y35800018D01*
X10403240Y35616365D01*
X9443679Y35616365D01*
X10185752Y36358437D01*
X10825000Y36358437D01*
X10949144Y36381796D01*
X11063162Y36455165D01*
X11139653Y36567113D01*
X11166563Y36700000D01*
X11166563Y37214249D01*
X11738658Y37786343D01*
X11857271Y37963860D01*
X11933124Y37888007D01*
G36*
X1525000Y37762500D02*
X1547000Y37762500D01*
X1547000Y37637500D01*
X1525000Y37637500D01*
X1525000Y37087500D01*
X1547000Y37087500D01*
X1547000Y36962500D01*
X1525000Y36962500D01*
X1525000Y36579750D01*
X1611352Y36479796D01*
X1813419Y36554343D01*
X1885222Y36620717D01*
X1940065Y36598000D01*
X2116250Y36598000D01*
X2223000Y36704750D01*
X2223000Y36735107D01*
X2286711Y36715110D01*
X2477000Y36732006D01*
X2477000Y36704750D01*
X2583750Y36598000D01*
X2759935Y36598000D01*
X2902280Y36656961D01*
X2987505Y36600015D01*
X3163539Y36565000D01*
X3221427Y36565000D01*
X3294521Y36388099D01*
X3444887Y36237470D01*
X3641451Y36155849D01*
X3854287Y36155664D01*
X4050993Y36236941D01*
X4144338Y36330124D01*
X4167750Y36306712D01*
X4113093Y36175085D01*
X4112908Y35962249D01*
X4194185Y35765543D01*
X4344551Y35614914D01*
X4445628Y35572943D01*
X3977000Y35104314D01*
X3977000Y35309936D01*
X3911993Y35466876D01*
X3791876Y35586993D01*
X3634935Y35652000D01*
X3383750Y35652000D01*
X3277000Y35545250D01*
X3277000Y34977000D01*
X3297000Y34977000D01*
X3297000Y34723000D01*
X3277000Y34723000D01*
X3277000Y34703000D01*
X3023000Y34703000D01*
X3023000Y34723000D01*
X3003000Y34723000D01*
X3003000Y34977000D01*
X3023000Y34977000D01*
X3023000Y35545250D01*
X2916250Y35652000D01*
X2665065Y35652000D01*
X2508124Y35586993D01*
X2388007Y35466876D01*
X2350583Y35376527D01*
X2294835Y35463162D01*
X2182887Y35539653D01*
X2093541Y35557746D01*
X2088805Y35581558D01*
X2074985Y35651035D01*
X1975269Y35800269D01*
X1324990Y36450548D01*
X1324990Y37774452D01*
X1375538Y37825000D01*
X1525000Y37825000D01*
X1525000Y37762500D01*
X1525000Y37762500D01*
G37*
X1525000Y37762500D02*
X1547000Y37762500D01*
X1547000Y37637500D01*
X1525000Y37637500D01*
X1525000Y37087500D01*
X1547000Y37087500D01*
X1547000Y36962500D01*
X1525000Y36962500D01*
X1525000Y36579750D01*
X1611352Y36479796D01*
X1813419Y36554343D01*
X1885222Y36620717D01*
X1940065Y36598000D01*
X2116250Y36598000D01*
X2223000Y36704750D01*
X2223000Y36735107D01*
X2286711Y36715110D01*
X2477000Y36732006D01*
X2477000Y36704750D01*
X2583750Y36598000D01*
X2759935Y36598000D01*
X2902280Y36656961D01*
X2987505Y36600015D01*
X3163539Y36565000D01*
X3221427Y36565000D01*
X3294521Y36388099D01*
X3444887Y36237470D01*
X3641451Y36155849D01*
X3854287Y36155664D01*
X4050993Y36236941D01*
X4144338Y36330124D01*
X4167750Y36306712D01*
X4113093Y36175085D01*
X4112908Y35962249D01*
X4194185Y35765543D01*
X4344551Y35614914D01*
X4445628Y35572943D01*
X3977000Y35104314D01*
X3977000Y35309936D01*
X3911993Y35466876D01*
X3791876Y35586993D01*
X3634935Y35652000D01*
X3383750Y35652000D01*
X3277000Y35545250D01*
X3277000Y34977000D01*
X3297000Y34977000D01*
X3297000Y34723000D01*
X3277000Y34723000D01*
X3277000Y34703000D01*
X3023000Y34703000D01*
X3023000Y34723000D01*
X3003000Y34723000D01*
X3003000Y34977000D01*
X3023000Y34977000D01*
X3023000Y35545250D01*
X2916250Y35652000D01*
X2665065Y35652000D01*
X2508124Y35586993D01*
X2388007Y35466876D01*
X2350583Y35376527D01*
X2294835Y35463162D01*
X2182887Y35539653D01*
X2093541Y35557746D01*
X2088805Y35581558D01*
X2074985Y35651035D01*
X1975269Y35800269D01*
X1324990Y36450548D01*
X1324990Y37774452D01*
X1375538Y37825000D01*
X1525000Y37825000D01*
X1525000Y37762500D01*
G36*
X9148000Y39433750D02*
X9254750Y39327000D01*
X10073000Y39327000D01*
X10073000Y39347000D01*
X10327000Y39347000D01*
X10327000Y39327000D01*
X10347000Y39327000D01*
X10347000Y39073000D01*
X10327000Y39073000D01*
X10327000Y38379750D01*
X10433750Y38273000D01*
X10570685Y38273000D01*
X10339249Y38041563D01*
X9575000Y38041563D01*
X9450856Y38018204D01*
X9336838Y37944835D01*
X9260347Y37832887D01*
X9233437Y37700000D01*
X9233437Y37060752D01*
X8136343Y35963657D01*
X8009530Y35773870D01*
X7996476Y35708245D01*
X7962999Y35694412D01*
X7962999Y36035685D01*
X8163658Y36236343D01*
X8290470Y36426130D01*
X8296245Y36455165D01*
X8335000Y36650000D01*
X8335000Y36838782D01*
X8438162Y36905165D01*
X8514653Y37017113D01*
X8541563Y37150000D01*
X8541563Y37650000D01*
X8518204Y37774144D01*
X8444835Y37888162D01*
X8332887Y37964653D01*
X8200000Y37991563D01*
X7300000Y37991563D01*
X7265120Y37985000D01*
X6758360Y37985000D01*
X6840268Y38039730D01*
X7148561Y38348023D01*
X7167113Y38335347D01*
X7300000Y38308437D01*
X8200000Y38308437D01*
X8324144Y38331796D01*
X8438162Y38405165D01*
X8514653Y38517113D01*
X8541563Y38650000D01*
X8541563Y38841025D01*
X8666788Y38966250D01*
X9148000Y38966250D01*
X9148000Y38615065D01*
X9213007Y38458124D01*
X9333124Y38338007D01*
X9490064Y38273000D01*
X9966250Y38273000D01*
X10073000Y38379750D01*
X10073000Y39073000D01*
X9254750Y39073000D01*
X9148000Y38966250D01*
X8666788Y38966250D01*
X9148000Y39447462D01*
X9148000Y39433750D01*
X9148000Y39433750D01*
G37*
X9148000Y39433750D02*
X9254750Y39327000D01*
X10073000Y39327000D01*
X10073000Y39347000D01*
X10327000Y39347000D01*
X10327000Y39327000D01*
X10347000Y39327000D01*
X10347000Y39073000D01*
X10327000Y39073000D01*
X10327000Y38379750D01*
X10433750Y38273000D01*
X10570685Y38273000D01*
X10339249Y38041563D01*
X9575000Y38041563D01*
X9450856Y38018204D01*
X9336838Y37944835D01*
X9260347Y37832887D01*
X9233437Y37700000D01*
X9233437Y37060752D01*
X8136343Y35963657D01*
X8009530Y35773870D01*
X7996476Y35708245D01*
X7962999Y35694412D01*
X7962999Y36035685D01*
X8163658Y36236343D01*
X8290470Y36426130D01*
X8296245Y36455165D01*
X8335000Y36650000D01*
X8335000Y36838782D01*
X8438162Y36905165D01*
X8514653Y37017113D01*
X8541563Y37150000D01*
X8541563Y37650000D01*
X8518204Y37774144D01*
X8444835Y37888162D01*
X8332887Y37964653D01*
X8200000Y37991563D01*
X7300000Y37991563D01*
X7265120Y37985000D01*
X6758360Y37985000D01*
X6840268Y38039730D01*
X7148561Y38348023D01*
X7167113Y38335347D01*
X7300000Y38308437D01*
X8200000Y38308437D01*
X8324144Y38331796D01*
X8438162Y38405165D01*
X8514653Y38517113D01*
X8541563Y38650000D01*
X8541563Y38841025D01*
X8666788Y38966250D01*
X9148000Y38966250D01*
X9148000Y38615065D01*
X9213007Y38458124D01*
X9333124Y38338007D01*
X9490064Y38273000D01*
X9966250Y38273000D01*
X10073000Y38379750D01*
X10073000Y39073000D01*
X9254750Y39073000D01*
X9148000Y38966250D01*
X8666788Y38966250D01*
X9148000Y39447462D01*
X9148000Y39433750D01*
G36*
X15198000Y38883750D02*
X15304750Y38777000D01*
X15873000Y38777000D01*
X15873000Y38797000D01*
X16127000Y38797000D01*
X16127000Y38777000D01*
X16695250Y38777000D01*
X16802000Y38883750D01*
X16802000Y39075001D01*
X17548000Y39075001D01*
X17548000Y38883750D01*
X17654750Y38777000D01*
X18223000Y38777000D01*
X18223000Y38797000D01*
X18477000Y38797000D01*
X18477000Y38777000D01*
X19045250Y38777000D01*
X19152000Y38883750D01*
X19152000Y39075001D01*
X19663941Y39075001D01*
X19515189Y38716767D01*
X19514812Y38285127D01*
X19679646Y37886200D01*
X19830582Y37735000D01*
X19004044Y37735000D01*
X18969835Y37788162D01*
X18877742Y37851086D01*
X18966876Y37888007D01*
X19086993Y38008124D01*
X19152000Y38165065D01*
X19152000Y38416250D01*
X19045250Y38523000D01*
X18477000Y38523000D01*
X18477000Y38503000D01*
X18223000Y38503000D01*
X18223000Y38523000D01*
X17654750Y38523000D01*
X17548000Y38416250D01*
X17548000Y38165065D01*
X17613007Y38008124D01*
X17733124Y37888007D01*
X17823473Y37850583D01*
X17736838Y37794835D01*
X17695954Y37735000D01*
X16654044Y37735000D01*
X16619835Y37788162D01*
X16527742Y37851086D01*
X16616876Y37888007D01*
X16736993Y38008124D01*
X16802000Y38165065D01*
X16802000Y38416250D01*
X16695250Y38523000D01*
X16127000Y38523000D01*
X16127000Y38503000D01*
X15873000Y38503000D01*
X15873000Y38523000D01*
X15304750Y38523000D01*
X15198000Y38416250D01*
X15198000Y38165065D01*
X15263007Y38008124D01*
X15383124Y37888007D01*
X15473473Y37850583D01*
X15386838Y37794835D01*
X15310347Y37682887D01*
X15283437Y37550000D01*
X15283437Y37260752D01*
X13863530Y35840845D01*
X13849164Y35846810D01*
X13412750Y35847190D01*
X13375511Y35831803D01*
X13135000Y36072314D01*
X13135000Y36487043D01*
X13163162Y36505165D01*
X13239653Y36617113D01*
X13266563Y36750000D01*
X13266563Y37550000D01*
X13243204Y37674144D01*
X13169835Y37788162D01*
X13077742Y37851086D01*
X13166876Y37888007D01*
X13286993Y38008124D01*
X13352000Y38165065D01*
X13352000Y38416250D01*
X13245250Y38523000D01*
X12677000Y38523000D01*
X12677000Y38503000D01*
X12423000Y38503000D01*
X12423000Y38523000D01*
X12403000Y38523000D01*
X12403000Y38777000D01*
X12423000Y38777000D01*
X12423000Y38797000D01*
X12677000Y38797000D01*
X12677000Y38777000D01*
X13245250Y38777000D01*
X13352000Y38883750D01*
X13352000Y39075001D01*
X15198000Y39075001D01*
X15198000Y38883750D01*
X15198000Y38883750D01*
G37*
X15198000Y38883750D02*
X15304750Y38777000D01*
X15873000Y38777000D01*
X15873000Y38797000D01*
X16127000Y38797000D01*
X16127000Y38777000D01*
X16695250Y38777000D01*
X16802000Y38883750D01*
X16802000Y39075001D01*
X17548000Y39075001D01*
X17548000Y38883750D01*
X17654750Y38777000D01*
X18223000Y38777000D01*
X18223000Y38797000D01*
X18477000Y38797000D01*
X18477000Y38777000D01*
X19045250Y38777000D01*
X19152000Y38883750D01*
X19152000Y39075001D01*
X19663941Y39075001D01*
X19515189Y38716767D01*
X19514812Y38285127D01*
X19679646Y37886200D01*
X19830582Y37735000D01*
X19004044Y37735000D01*
X18969835Y37788162D01*
X18877742Y37851086D01*
X18966876Y37888007D01*
X19086993Y38008124D01*
X19152000Y38165065D01*
X19152000Y38416250D01*
X19045250Y38523000D01*
X18477000Y38523000D01*
X18477000Y38503000D01*
X18223000Y38503000D01*
X18223000Y38523000D01*
X17654750Y38523000D01*
X17548000Y38416250D01*
X17548000Y38165065D01*
X17613007Y38008124D01*
X17733124Y37888007D01*
X17823473Y37850583D01*
X17736838Y37794835D01*
X17695954Y37735000D01*
X16654044Y37735000D01*
X16619835Y37788162D01*
X16527742Y37851086D01*
X16616876Y37888007D01*
X16736993Y38008124D01*
X16802000Y38165065D01*
X16802000Y38416250D01*
X16695250Y38523000D01*
X16127000Y38523000D01*
X16127000Y38503000D01*
X15873000Y38503000D01*
X15873000Y38523000D01*
X15304750Y38523000D01*
X15198000Y38416250D01*
X15198000Y38165065D01*
X15263007Y38008124D01*
X15383124Y37888007D01*
X15473473Y37850583D01*
X15386838Y37794835D01*
X15310347Y37682887D01*
X15283437Y37550000D01*
X15283437Y37260752D01*
X13863530Y35840845D01*
X13849164Y35846810D01*
X13412750Y35847190D01*
X13375511Y35831803D01*
X13135000Y36072314D01*
X13135000Y36487043D01*
X13163162Y36505165D01*
X13239653Y36617113D01*
X13266563Y36750000D01*
X13266563Y37550000D01*
X13243204Y37674144D01*
X13169835Y37788162D01*
X13077742Y37851086D01*
X13166876Y37888007D01*
X13286993Y38008124D01*
X13352000Y38165065D01*
X13352000Y38416250D01*
X13245250Y38523000D01*
X12677000Y38523000D01*
X12677000Y38503000D01*
X12423000Y38503000D01*
X12423000Y38523000D01*
X12403000Y38523000D01*
X12403000Y38777000D01*
X12423000Y38777000D01*
X12423000Y38797000D01*
X12677000Y38797000D01*
X12677000Y38777000D01*
X13245250Y38777000D01*
X13352000Y38883750D01*
X13352000Y39075001D01*
X15198000Y39075001D01*
X15198000Y38883750D01*
G36*
X29040000Y36189135D02*
X28999961Y36390427D01*
X28976105Y36426130D01*
X28873148Y36580215D01*
X28140214Y37313148D01*
X27950427Y37439961D01*
X27726557Y37484491D01*
X27440022Y37484491D01*
X25384512Y39540000D01*
X29040000Y39540000D01*
X29040000Y36189135D01*
X29040000Y36189135D01*
G37*
X29040000Y36189135D02*
X28999961Y36390427D01*
X28976105Y36426130D01*
X28873148Y36580215D01*
X28140214Y37313148D01*
X27950427Y37439961D01*
X27726557Y37484491D01*
X27440022Y37484491D01*
X25384512Y39540000D01*
X29040000Y39540000D01*
X29040000Y36189135D01*
G36*
X2350000Y37406066D02*
X2400912Y37456978D01*
X2477000Y37380890D01*
X2477000Y37320934D01*
X2456066Y37300000D01*
X2477000Y37279066D01*
X2477000Y37219110D01*
X2400912Y37143022D01*
X2350000Y37193934D01*
X2299088Y37143022D01*
X2223000Y37219110D01*
X2223000Y37279066D01*
X2243934Y37300000D01*
X2223000Y37320934D01*
X2223000Y37533066D01*
X2350000Y37406066D01*
X2350000Y37406066D01*
G37*
X2350000Y37406066D02*
X2400912Y37456978D01*
X2477000Y37380890D01*
X2477000Y37320934D01*
X2456066Y37300000D01*
X2477000Y37279066D01*
X2477000Y37219110D01*
X2400912Y37143022D01*
X2350000Y37193934D01*
X2299088Y37143022D01*
X2223000Y37219110D01*
X2223000Y37279066D01*
X2243934Y37300000D01*
X2223000Y37320934D01*
X2223000Y37533066D01*
X2350000Y37406066D01*
G36*
X2477000Y38180890D02*
X2477000Y38120934D01*
X2456066Y38100000D01*
X2477000Y38079066D01*
X2477000Y38019110D01*
X2400912Y37943022D01*
X2350000Y37993934D01*
X2224163Y37868097D01*
X2223000Y37867994D01*
X2223000Y38079066D01*
X2243934Y38100000D01*
X2223000Y38120934D01*
X2223000Y38180890D01*
X2299088Y38256978D01*
X2350000Y38206066D01*
X2400912Y38256978D01*
X2477000Y38180890D01*
X2477000Y38180890D01*
G37*
X2477000Y38180890D02*
X2477000Y38120934D01*
X2456066Y38100000D01*
X2477000Y38079066D01*
X2477000Y38019110D01*
X2400912Y37943022D01*
X2350000Y37993934D01*
X2224163Y37868097D01*
X2223000Y37867994D01*
X2223000Y38079066D01*
X2243934Y38100000D01*
X2223000Y38120934D01*
X2223000Y38180890D01*
X2299088Y38256978D01*
X2350000Y38206066D01*
X2400912Y38256978D01*
X2477000Y38180890D01*
G36*
X7744609Y39924989D02*
X6864989Y39924989D01*
X6688954Y39889974D01*
X6539720Y39790258D01*
X6201439Y39451977D01*
X6182887Y39464653D01*
X6050000Y39491563D01*
X5150000Y39491563D01*
X5025856Y39468204D01*
X5013107Y39460000D01*
X4787280Y39460000D01*
X4606885Y39534907D01*
X4394049Y39535092D01*
X4197343Y39453815D01*
X4046714Y39303449D01*
X3965093Y39106885D01*
X3964908Y38894049D01*
X3993439Y38824999D01*
X3850279Y38824999D01*
X3800000Y38835000D01*
X3163539Y38835000D01*
X2987505Y38799985D01*
X2902280Y38743039D01*
X2759935Y38802000D01*
X2583750Y38802000D01*
X2477000Y38695250D01*
X2477000Y38664893D01*
X2413289Y38684890D01*
X2223000Y38667994D01*
X2223000Y38695250D01*
X2116250Y38802000D01*
X1940065Y38802000D01*
X1797720Y38743039D01*
X1712495Y38799985D01*
X1536461Y38835000D01*
X1263539Y38835000D01*
X1087505Y38799985D01*
X938270Y38700269D01*
X915191Y38665729D01*
X539721Y38290259D01*
X510000Y38245779D01*
X510000Y40330172D01*
X669827Y40490000D01*
X8309620Y40490000D01*
X7744609Y39924989D01*
X7744609Y39924989D01*
G37*
X7744609Y39924989D02*
X6864989Y39924989D01*
X6688954Y39889974D01*
X6539720Y39790258D01*
X6201439Y39451977D01*
X6182887Y39464653D01*
X6050000Y39491563D01*
X5150000Y39491563D01*
X5025856Y39468204D01*
X5013107Y39460000D01*
X4787280Y39460000D01*
X4606885Y39534907D01*
X4394049Y39535092D01*
X4197343Y39453815D01*
X4046714Y39303449D01*
X3965093Y39106885D01*
X3964908Y38894049D01*
X3993439Y38824999D01*
X3850279Y38824999D01*
X3800000Y38835000D01*
X3163539Y38835000D01*
X2987505Y38799985D01*
X2902280Y38743039D01*
X2759935Y38802000D01*
X2583750Y38802000D01*
X2477000Y38695250D01*
X2477000Y38664893D01*
X2413289Y38684890D01*
X2223000Y38667994D01*
X2223000Y38695250D01*
X2116250Y38802000D01*
X1940065Y38802000D01*
X1797720Y38743039D01*
X1712495Y38799985D01*
X1536461Y38835000D01*
X1263539Y38835000D01*
X1087505Y38799985D01*
X938270Y38700269D01*
X915191Y38665729D01*
X539721Y38290259D01*
X510000Y38245779D01*
X510000Y40330172D01*
X669827Y40490000D01*
X8309620Y40490000D01*
X7744609Y39924989D01*
M02*
