G04 #@! TF.FileFunction,Soldermask,Top*
%FSLAX46Y46*%
G04 Gerber Fmt 4.6, Leading zero omitted, Abs format (unit mm)*
G04 Created by KiCad (PCBNEW 4.0.7) date 12/08/17 11:15:19*
%MOMM*%
%LPD*%
G01*
G04 APERTURE LIST*
%ADD10C,0.100000*%
%ADD11C,1.140000*%
%ADD12C,1.640000*%
%ADD13R,1.040000X0.640000*%
%ADD14R,0.940000X0.890000*%
%ADD15R,0.890000X0.940000*%
%ADD16R,0.640000X1.040000*%
%ADD17R,1.440000X1.690000*%
%ADD18R,0.940000X0.640000*%
%ADD19R,0.940000X0.540000*%
%ADD20R,1.390000X1.140000*%
%ADD21R,0.940000X0.390000*%
%ADD22R,0.390000X0.940000*%
%ADD23R,1.340000X1.340000*%
%ADD24O,0.640000X0.390000*%
%ADD25R,0.790000X1.490000*%
%ADD26R,0.740000X0.540000*%
%ADD27R,1.640000X2.540000*%
%ADD28C,1.664000*%
%ADD29O,2.138980X2.138980*%
%ADD30R,2.138980X2.138980*%
%ADD31R,1.440000X0.940000*%
%ADD32R,0.540000X3.140000*%
%ADD33R,0.440000X1.740000*%
G04 APERTURE END LIST*
D10*
D11*
X20600000Y12700000D03*
D12*
X20600000Y38500000D03*
D11*
X20600000Y800000D03*
D13*
X5600000Y38900000D03*
X5600000Y37400000D03*
D14*
X4850000Y30350000D03*
X6350000Y30350000D03*
D15*
X16000000Y38650000D03*
X16000000Y37150000D03*
X18350000Y38650000D03*
X18350000Y37150000D03*
X38000000Y28750000D03*
X38000000Y27250000D03*
D14*
X4750000Y28050000D03*
X6250000Y28050000D03*
D13*
X35400000Y14050000D03*
X35400000Y12550000D03*
X32500000Y8300000D03*
X32500000Y6800000D03*
X8350000Y8950000D03*
X8350000Y7450000D03*
D16*
X21450000Y3450000D03*
X19950000Y3450000D03*
D13*
X7750000Y38900000D03*
X7750000Y37400000D03*
X36000000Y27250000D03*
X36000000Y28750000D03*
X22650000Y38650000D03*
X22650000Y37150000D03*
D17*
X1250000Y2025000D03*
X1250000Y9975000D03*
X5750000Y2025000D03*
X5750000Y9975000D03*
X39750000Y9975000D03*
X39750000Y2025000D03*
X35250000Y9975000D03*
X35250000Y2025000D03*
D15*
X22250200Y7048000D03*
X22250200Y8548000D03*
X30850000Y7850000D03*
X30850000Y6350000D03*
X8500000Y3450000D03*
X8500000Y1950000D03*
X32550000Y3550000D03*
X32550000Y2050000D03*
D14*
X38150000Y34700000D03*
X39650000Y34700000D03*
X3150000Y34850000D03*
X1650000Y34850000D03*
D16*
X3900000Y13350000D03*
X2400000Y13350000D03*
D18*
X20850000Y7950000D03*
D19*
X20850000Y9550000D03*
X20850000Y8750000D03*
D18*
X20850000Y10350000D03*
D19*
X19050000Y8750000D03*
D18*
X19050000Y7950000D03*
D19*
X19050000Y9550000D03*
D18*
X19050000Y10350000D03*
D20*
X10200000Y37200000D03*
X10200000Y39200000D03*
D15*
X12550000Y37150000D03*
X12550000Y38650000D03*
D20*
X40000000Y29000000D03*
X40000000Y27000000D03*
D21*
X24600000Y8850000D03*
X24600000Y8400000D03*
X24600000Y7950000D03*
X24600000Y7500000D03*
X24600000Y7050000D03*
X24600000Y6600000D03*
X24600000Y6150000D03*
D22*
X25250000Y5500000D03*
X25700000Y5500000D03*
X26150000Y5500000D03*
X26600000Y5500000D03*
X27050000Y5500000D03*
X27500000Y5500000D03*
X27950000Y5500000D03*
D21*
X28600000Y6150000D03*
X28600000Y6600000D03*
X28600000Y7050000D03*
X28600000Y7500000D03*
X28600000Y7950000D03*
X28600000Y8400000D03*
X28600000Y8850000D03*
D22*
X27950000Y9500000D03*
X27500000Y9500000D03*
X27050000Y9500000D03*
X26600000Y9500000D03*
X26150000Y9500000D03*
X25700000Y9500000D03*
X25250000Y9500000D03*
D23*
X27200000Y6900000D03*
X27200000Y8100000D03*
X26000000Y6900000D03*
X26000000Y8100000D03*
D24*
X1400000Y38375000D03*
X1400000Y37700000D03*
X1400000Y37025000D03*
X3300000Y37025000D03*
X3300000Y37700000D03*
X3300000Y38375000D03*
D25*
X2350000Y37700000D03*
D26*
X37450000Y38650000D03*
X37450000Y37700000D03*
X37450000Y36750000D03*
X40250000Y36750000D03*
X40250000Y37700000D03*
X40250000Y38650000D03*
D27*
X38850000Y37700000D03*
D26*
X38900000Y38650000D03*
D28*
X8550000Y34750000D03*
X11090000Y34750000D03*
X13630000Y34750000D03*
D29*
X32350000Y17950000D03*
D30*
X32350000Y12870000D03*
D29*
X32350000Y15410000D03*
X33800000Y30410000D03*
D30*
X33800000Y35490000D03*
D29*
X33800000Y32950000D03*
X27050000Y35490000D03*
D30*
X27050000Y30410000D03*
D29*
X27050000Y32950000D03*
D31*
X17000000Y2600000D03*
X17000000Y3880000D03*
X17000000Y5140000D03*
X17000000Y6410000D03*
X17000000Y7690000D03*
X17000000Y8960000D03*
X17000000Y10220000D03*
X17000000Y11500000D03*
X10700000Y11500000D03*
X10700000Y10220000D03*
X10700000Y8960000D03*
X10700000Y7690000D03*
X10700000Y6410000D03*
X10700000Y5140000D03*
X10700000Y3880000D03*
X10700000Y2600000D03*
D32*
X10450000Y19970512D03*
X11150000Y19970512D03*
X11850000Y19970512D03*
X12550000Y19970512D03*
X13250000Y19970512D03*
X13950000Y19970512D03*
X14650000Y19970512D03*
X15350000Y19970512D03*
X16050000Y19970512D03*
X16750000Y19970512D03*
X17450000Y19970512D03*
X18150000Y19970512D03*
X18850000Y19970512D03*
X19550000Y19970512D03*
X20250000Y19970512D03*
X20950000Y19970512D03*
X21650000Y19970512D03*
X22350000Y19970512D03*
X23050000Y19970512D03*
X23750000Y19970512D03*
X24450000Y19970512D03*
X25150000Y19970512D03*
X25850000Y19970512D03*
X26550000Y19970512D03*
X27250000Y19970512D03*
X27950000Y19970512D03*
X28650000Y19970512D03*
X29350000Y19970512D03*
X30050000Y19970512D03*
X30750000Y19970512D03*
D33*
X27518200Y2743400D03*
X26568200Y2743400D03*
X25618200Y2743400D03*
M02*
