M48
;DRILL file {KiCad 4.0.7} date 12/08/17 11:15:26
;FORMAT={-:-/ absolute / metric / decimal}
FMAT,2
METRIC,TZ
T1C0.300
T2C0.450
T3C1.000
T4C1.097
%
G90
G05
M71
T1
X2.35Y38.1
X2.35Y37.3
X2.5Y40.
X2.5Y32.5
X2.5Y30.
X2.5Y27.5
X2.5Y10.
X2.5Y7.5
X2.5Y5.
X3.748Y36.691
X4.5Y39.
X4.648Y36.068
X5.Y40.
X5.Y32.5
X5.Y25.
X5.Y12.5
X5.Y7.5
X5.Y5.
X7.5Y40.
X7.5Y32.5
X7.5Y12.5
X7.5Y10.
X7.5Y5.
X8.35Y8.95
X9.245Y3.455
X10.Y32.5
X10.Y30.
X10.Y12.5
X10.2Y39.2
X10.45Y19.971
X10.7Y11.5
X10.7Y8.96
X10.7Y6.41
X10.7Y3.94
X12.5Y12.5
X12.5Y5.
X12.5Y2.5
X12.55Y38.65
X13.055Y9.119
X13.12Y13.982
X13.411Y10.338
X13.792Y14.656
X13.817Y8.738
X14.148Y13.157
X14.554Y12.599
X15.Y35.
X15.Y32.5
X15.Y30.
X15.Y27.5
X15.Y25.
X15.Y15.
X15.Y7.5
X15.Y5.
X15.Y2.5
X15.343Y19.963
X16.Y38.65
X16.002Y16.713
X16.754Y19.975
X16.771Y2.893
X17.Y8.96
X17.Y6.41
X17.025Y11.475
X17.5Y35.
X17.5Y32.5
X17.5Y30.
X17.5Y27.5
X17.5Y25.
X18.15Y19.971
X18.262Y4.09
X18.35Y38.65
X18.847Y19.304
X19.293Y0.84
X19.482Y12.446
X19.629Y4.253
X20.Y32.5
X20.Y30.
X20.Y27.5
X20.Y25.
X20.Y22.5
X20.189Y14.79
X20.25Y19.971
X20.929Y19.99
X21.044Y14.11
X21.126Y15.576
X21.133Y18.009
X21.842Y13.892
X21.862Y6.15
X22.1Y36.1
X22.25Y8.55
X22.25Y7.05
X22.504Y40.335
X23.241Y23.8
X23.266Y14.478
X23.927Y6.02
X24.485Y19.736
X25.Y37.5
X25.Y35.
X25.Y32.5
X25.Y30.
X25.Y27.5
X25.Y25.
X25.Y17.5
X25.Y15.
X25.146Y19.736
X25.281Y4.74
X25.781Y4.369
X25.857Y19.736
X26.486Y4.37
X26.568Y19.736
X26.568Y1.905
X27.254Y19.736
X27.5Y37.51
X27.5Y27.5
X27.5Y17.5
X27.5Y15.
X27.5Y12.5
X27.659Y4.752
X27.866Y10.569
X29.108Y5.029
X29.616Y9.22
X29.667Y6.071
X30.Y37.5
X30.Y37.5
X30.Y17.5
X30.Y15.
X30.Y12.5
X30.Y10.
X30.05Y19.971
X30.75Y19.971
X30.85Y7.85
X31.877Y4.318
X32.5Y37.5
X32.5Y22.5
X32.5Y20.
X32.5Y8.3
X35.Y25.
X35.Y22.5
X35.Y20.
X35.Y17.5
X35.Y15.
X35.Y7.5
X35.Y5.
X36.Y28.75
X37.5Y30.
X37.5Y25.
X37.5Y15.
X37.5Y15.
X37.5Y10.
X37.5Y7.5
X37.5Y5.
X37.5Y2.5
X38.Y28.75
X38.35Y37.7
X38.85Y38.65
X38.85Y36.75
X39.35Y37.7
X40.Y30.
X40.Y29.
X40.Y15.
X40.Y12.5
T2
X13.2Y17.221
X23.698Y37.897
X39.5Y33.5
X40.4Y31.1
T3
X8.55Y34.75
X11.09Y34.75
X13.63Y34.75
T4
X27.05Y35.49
X27.05Y32.95
X27.05Y30.41
X32.35Y17.95
X32.35Y15.41
X32.35Y12.87
X33.8Y35.49
X33.8Y32.95
X33.8Y30.41
T0
M30
