G04 #@! TF.FileFunction,Legend,Bot*
%FSLAX46Y46*%
G04 Gerber Fmt 4.6, Leading zero omitted, Abs format (unit mm)*
G04 Created by KiCad (PCBNEW 4.0.7) date 12/08/17 11:15:19*
%MOMM*%
%LPD*%
G01*
G04 APERTURE LIST*
%ADD10C,0.100000*%
%ADD11C,0.150000*%
%ADD12C,0.198120*%
G04 APERTURE END LIST*
D10*
D11*
X29028571Y13147619D02*
X28409523Y13147619D01*
X28742857Y12766667D01*
X28599999Y12766667D01*
X28504761Y12719048D01*
X28457142Y12671429D01*
X28409523Y12576190D01*
X28409523Y12338095D01*
X28457142Y12242857D01*
X28504761Y12195238D01*
X28599999Y12147619D01*
X28885714Y12147619D01*
X28980952Y12195238D01*
X29028571Y12242857D01*
X27980952Y12242857D02*
X27933333Y12195238D01*
X27980952Y12147619D01*
X28028571Y12195238D01*
X27980952Y12242857D01*
X27980952Y12147619D01*
X27600000Y13147619D02*
X26980952Y13147619D01*
X27314286Y12766667D01*
X27171428Y12766667D01*
X27076190Y12719048D01*
X27028571Y12671429D01*
X26980952Y12576190D01*
X26980952Y12338095D01*
X27028571Y12242857D01*
X27076190Y12195238D01*
X27171428Y12147619D01*
X27457143Y12147619D01*
X27552381Y12195238D01*
X27600000Y12242857D01*
X26647619Y12814286D02*
X26409524Y12147619D01*
X26171428Y12814286D01*
X27785714Y15047619D02*
X28357143Y15047619D01*
X28071429Y15047619D02*
X28071429Y16047619D01*
X28166667Y15904762D01*
X28261905Y15809524D01*
X28357143Y15761905D01*
X27452381Y16047619D02*
X27214286Y15047619D01*
X27023809Y15761905D01*
X26833333Y15047619D01*
X26595238Y16047619D01*
X28061904Y18700000D02*
X28157142Y18747619D01*
X28299999Y18747619D01*
X28442857Y18700000D01*
X28538095Y18604762D01*
X28585714Y18509524D01*
X28633333Y18319048D01*
X28633333Y18176190D01*
X28585714Y17985714D01*
X28538095Y17890476D01*
X28442857Y17795238D01*
X28299999Y17747619D01*
X28204761Y17747619D01*
X28061904Y17795238D01*
X28014285Y17842857D01*
X28014285Y18176190D01*
X28204761Y18176190D01*
X27585714Y17747619D02*
X27585714Y18747619D01*
X27014285Y17747619D01*
X27014285Y18747619D01*
X26538095Y17747619D02*
X26538095Y18747619D01*
X26300000Y18747619D01*
X26157142Y18700000D01*
X26061904Y18604762D01*
X26014285Y18509524D01*
X25966666Y18319048D01*
X25966666Y18176190D01*
X26014285Y17985714D01*
X26061904Y17890476D01*
X26157142Y17795238D01*
X26300000Y17747619D01*
X26538095Y17747619D01*
X40376191Y30847619D02*
X40185714Y30847619D01*
X40090476Y30800000D01*
X39995238Y30704762D01*
X39947619Y30514286D01*
X39947619Y30180952D01*
X39995238Y29990476D01*
X40090476Y29895238D01*
X40185714Y29847619D01*
X40376191Y29847619D01*
X40471429Y29895238D01*
X40566667Y29990476D01*
X40614286Y30180952D01*
X40614286Y30514286D01*
X40566667Y30704762D01*
X40471429Y30800000D01*
X40376191Y30847619D01*
X39519048Y30847619D02*
X39519048Y30038095D01*
X39471429Y29942857D01*
X39423810Y29895238D01*
X39328572Y29847619D01*
X39138095Y29847619D01*
X39042857Y29895238D01*
X38995238Y29942857D01*
X38947619Y30038095D01*
X38947619Y30847619D01*
X38614286Y30847619D02*
X38042857Y30847619D01*
X38328572Y29847619D02*
X38328572Y30847619D01*
X37804762Y30847619D02*
X37185714Y30847619D01*
X37519048Y30466667D01*
X37376190Y30466667D01*
X37280952Y30419048D01*
X37233333Y30371429D01*
X37185714Y30276190D01*
X37185714Y30038095D01*
X37233333Y29942857D01*
X37280952Y29895238D01*
X37376190Y29847619D01*
X37661905Y29847619D01*
X37757143Y29895238D01*
X37804762Y29942857D01*
X40276191Y33247619D02*
X40085714Y33247619D01*
X39990476Y33200000D01*
X39895238Y33104762D01*
X39847619Y32914286D01*
X39847619Y32580952D01*
X39895238Y32390476D01*
X39990476Y32295238D01*
X40085714Y32247619D01*
X40276191Y32247619D01*
X40371429Y32295238D01*
X40466667Y32390476D01*
X40514286Y32580952D01*
X40514286Y32914286D01*
X40466667Y33104762D01*
X40371429Y33200000D01*
X40276191Y33247619D01*
X39419048Y33247619D02*
X39419048Y32438095D01*
X39371429Y32342857D01*
X39323810Y32295238D01*
X39228572Y32247619D01*
X39038095Y32247619D01*
X38942857Y32295238D01*
X38895238Y32342857D01*
X38847619Y32438095D01*
X38847619Y33247619D01*
X38514286Y33247619D02*
X37942857Y33247619D01*
X38228572Y32247619D02*
X38228572Y33247619D01*
X37657143Y33152381D02*
X37609524Y33200000D01*
X37514286Y33247619D01*
X37276190Y33247619D01*
X37180952Y33200000D01*
X37133333Y33152381D01*
X37085714Y33057143D01*
X37085714Y32961905D01*
X37133333Y32819048D01*
X37704762Y32247619D01*
X37085714Y32247619D01*
X40476191Y35847619D02*
X40285714Y35847619D01*
X40190476Y35800000D01*
X40095238Y35704762D01*
X40047619Y35514286D01*
X40047619Y35180952D01*
X40095238Y34990476D01*
X40190476Y34895238D01*
X40285714Y34847619D01*
X40476191Y34847619D01*
X40571429Y34895238D01*
X40666667Y34990476D01*
X40714286Y35180952D01*
X40714286Y35514286D01*
X40666667Y35704762D01*
X40571429Y35800000D01*
X40476191Y35847619D01*
X39619048Y35847619D02*
X39619048Y35038095D01*
X39571429Y34942857D01*
X39523810Y34895238D01*
X39428572Y34847619D01*
X39238095Y34847619D01*
X39142857Y34895238D01*
X39095238Y34942857D01*
X39047619Y35038095D01*
X39047619Y35847619D01*
X38714286Y35847619D02*
X38142857Y35847619D01*
X38428572Y34847619D02*
X38428572Y35847619D01*
X37285714Y34847619D02*
X37857143Y34847619D01*
X37571429Y34847619D02*
X37571429Y35847619D01*
X37666667Y35704762D01*
X37761905Y35609524D01*
X37857143Y35561905D01*
X23490476Y30552381D02*
X23442857Y30600000D01*
X23347619Y30647619D01*
X23109523Y30647619D01*
X23014285Y30600000D01*
X22966666Y30552381D01*
X22919047Y30457143D01*
X22919047Y30361905D01*
X22966666Y30219048D01*
X23538095Y29647619D01*
X22919047Y29647619D01*
X22061904Y30314286D02*
X22061904Y29647619D01*
X22300000Y30695238D02*
X22538095Y29980952D01*
X21919047Y29980952D01*
X21680952Y30647619D02*
X21347619Y29647619D01*
X21014285Y30647619D01*
X23061904Y33100000D02*
X23157142Y33147619D01*
X23299999Y33147619D01*
X23442857Y33100000D01*
X23538095Y33004762D01*
X23585714Y32909524D01*
X23633333Y32719048D01*
X23633333Y32576190D01*
X23585714Y32385714D01*
X23538095Y32290476D01*
X23442857Y32195238D01*
X23299999Y32147619D01*
X23204761Y32147619D01*
X23061904Y32195238D01*
X23014285Y32242857D01*
X23014285Y32576190D01*
X23204761Y32576190D01*
X22585714Y32147619D02*
X22585714Y33147619D01*
X22014285Y32147619D01*
X22014285Y33147619D01*
X21538095Y32147619D02*
X21538095Y33147619D01*
X21300000Y33147619D01*
X21157142Y33100000D01*
X21061904Y33004762D01*
X21014285Y32909524D01*
X20966666Y32719048D01*
X20966666Y32576190D01*
X21014285Y32385714D01*
X21061904Y32290476D01*
X21157142Y32195238D01*
X21300000Y32147619D01*
X21538095Y32147619D01*
X23423809Y34947619D02*
X23423809Y35947619D01*
X22947619Y34947619D02*
X22947619Y35947619D01*
X22376190Y34947619D01*
X22376190Y35947619D01*
D12*
X12894000Y15993000D02*
X12894000Y23673000D01*
X12894000Y23733000D02*
X7694000Y23733000D01*
X7694000Y23673000D02*
X7694000Y15993000D01*
X7694000Y15993000D02*
X12894000Y15993000D01*
X8184000Y14733000D02*
X8184000Y14293000D01*
X9244000Y13843000D02*
X9324000Y13973000D01*
X9324000Y13973000D02*
X9454000Y14133000D01*
X9454000Y14133000D02*
X9624000Y14273000D01*
X9624000Y14273000D02*
X9714000Y14303000D01*
X9714000Y14303000D02*
X8184000Y14303000D01*
X8184000Y14303000D02*
X8184000Y13863000D01*
X8894000Y15293000D02*
X9094000Y15293000D01*
X9094000Y15193000D02*
X8894000Y15193000D01*
X8794000Y15093000D02*
X9194000Y15093000D01*
X9194000Y14993000D02*
X8794000Y14993000D01*
X8694000Y14893000D02*
X9294000Y14893000D01*
X8994000Y15593000D02*
X8594000Y14793000D01*
X8594000Y14793000D02*
X9394000Y14793000D01*
X9394000Y14793000D02*
X8994000Y15593000D01*
D11*
X5290000Y28550000D02*
X5290000Y36750000D01*
X16890000Y28550000D02*
X5290000Y28550000D01*
X16890000Y36750000D02*
X16890000Y28550000D01*
X5290000Y36750000D02*
X16890000Y36750000D01*
X35448800Y19509560D02*
X35448800Y11310440D01*
X35050020Y19509560D02*
X35050020Y11310440D01*
X29749040Y19509560D02*
X29749040Y11310440D01*
X29251200Y11310440D02*
X29251200Y19509560D01*
X29749040Y16710480D02*
X29251200Y16710480D01*
X29251200Y11511100D02*
X29749040Y11511100D01*
X29749040Y19311440D02*
X29251200Y19311440D01*
X29251200Y14112060D02*
X29749040Y14112060D01*
X29251200Y19509560D02*
X35448800Y19509560D01*
X35448800Y11312980D02*
X29251200Y11312980D01*
X30701200Y28850440D02*
X30701200Y37049560D01*
X31099980Y28850440D02*
X31099980Y37049560D01*
X36400960Y28850440D02*
X36400960Y37049560D01*
X36898800Y37049560D02*
X36898800Y28850440D01*
X36400960Y31649520D02*
X36898800Y31649520D01*
X36898800Y36848900D02*
X36400960Y36848900D01*
X36400960Y29048560D02*
X36898800Y29048560D01*
X36898800Y34247940D02*
X36400960Y34247940D01*
X36898800Y28850440D02*
X30701200Y28850440D01*
X30701200Y37047020D02*
X36898800Y37047020D01*
X30148800Y37049560D02*
X30148800Y28850440D01*
X29750020Y37049560D02*
X29750020Y28850440D01*
X24449040Y37049560D02*
X24449040Y28850440D01*
X23951200Y28850440D02*
X23951200Y37049560D01*
X24449040Y34250480D02*
X23951200Y34250480D01*
X23951200Y29051100D02*
X24449040Y29051100D01*
X24449040Y36851440D02*
X23951200Y36851440D01*
X23951200Y31652060D02*
X24449040Y31652060D01*
X23951200Y37049560D02*
X30148800Y37049560D01*
X30148800Y28852980D02*
X23951200Y28852980D01*
X13785238Y33497619D02*
X13594761Y33497619D01*
X13499523Y33450000D01*
X13404285Y33354762D01*
X13356666Y33164286D01*
X13356666Y32830952D01*
X13404285Y32640476D01*
X13499523Y32545238D01*
X13594761Y32497619D01*
X13785238Y32497619D01*
X13880476Y32545238D01*
X13975714Y32640476D01*
X14023333Y32830952D01*
X14023333Y33164286D01*
X13975714Y33354762D01*
X13880476Y33450000D01*
X13785238Y33497619D01*
X10628095Y33450000D02*
X10723333Y33497619D01*
X10866190Y33497619D01*
X11009048Y33450000D01*
X11104286Y33354762D01*
X11151905Y33259524D01*
X11199524Y33069048D01*
X11199524Y32926190D01*
X11151905Y32735714D01*
X11104286Y32640476D01*
X11009048Y32545238D01*
X10866190Y32497619D01*
X10770952Y32497619D01*
X10628095Y32545238D01*
X10580476Y32592857D01*
X10580476Y32926190D01*
X10770952Y32926190D01*
X8490000Y32497619D02*
X8490000Y33497619D01*
M02*
