G04 #@! TF.FileFunction,Profile,NP*
%FSLAX46Y46*%
G04 Gerber Fmt 4.6, Leading zero omitted, Abs format (unit mm)*
G04 Created by KiCad (PCBNEW 4.0.7) date 12/08/17 11:15:19*
%MOMM*%
%LPD*%
G01*
G04 APERTURE LIST*
%ADD10C,0.100000*%
%ADD11C,0.150000*%
G04 APERTURE END LIST*
D10*
D11*
X36750000Y32000000D02*
X36400000Y32000000D01*
X36400000Y32500000D02*
X36750000Y32500000D01*
X36400000Y32500000D02*
G75*
G03X36400000Y32000000I0J-250000D01*
G01*
X39600000Y32000000D02*
G75*
G03X39600000Y32500000I0J250000D01*
G01*
X35750000Y39650000D02*
G75*
G03X35250000Y39650000I-250000J0D01*
G01*
X35250000Y32950000D02*
G75*
G03X35750000Y32950000I250000J0D01*
G01*
X36750000Y32000000D02*
X39600000Y32000000D01*
X39600000Y32500000D02*
X36750000Y32500000D01*
X35750000Y32950000D02*
X35763000Y39650000D01*
X35255000Y39650000D02*
X35250000Y32950000D01*
X41100000Y25850000D02*
G75*
G03X41100000Y15150000I0J-5350000D01*
G01*
X100000Y15150000D02*
G75*
G03X100000Y25850000I0J5350000D01*
G01*
X41100000Y15150000D02*
X41100000Y500000D01*
X41100000Y25850000D02*
X41100000Y40500000D01*
X500000Y40900000D02*
X40700000Y40900000D01*
X100000Y15150000D02*
X100000Y500000D01*
X100000Y25850000D02*
X100000Y40500000D01*
X100000Y500000D02*
X500000Y100000D01*
X40700000Y100000D02*
X41100000Y500000D01*
X40700000Y40900000D02*
X41100000Y40500000D01*
X100000Y40500000D02*
X500000Y40900000D01*
X500000Y100000D02*
X40700000Y100000D01*
M02*
